G04 DipTrace 3.0.0.2*
G04 BottomSilkscreen.gbo*
%MOIN*%
G04 #@! TF.FileFunction,Legend,Bot*
G04 #@! TF.Part,Single*
%ADD10C,0.009843*%
%ADD22C,0.019677*%
%ADD40C,0.015404*%
%ADD45C,0.015399*%
%ADD49O,0.016542X0.016422*%
%ADD128C,0.00772*%
%ADD129C,0.012351*%
%FSLAX26Y26*%
G04*
G70*
G90*
G75*
G01*
G04 BotSilk*
%LPD*%
X3849950Y703006D2*
D10*
X3826310D1*
X3838130Y714825D2*
Y691211D1*
X3738130Y573095D2*
G02X3738130Y573095I100000J0D01*
G01*
X3826310Y1093243D2*
X3849950D1*
X3838130Y1081425D2*
Y1105038D1*
X3738130Y1223154D2*
G02X3738130Y1223154I100000J0D01*
G01*
X4003130Y1178185D2*
Y1318065D1*
X4123130Y1178185D2*
Y1318065D1*
X4003130D2*
G02X4123130Y1318065I60000J60D01*
G01*
Y1178185D2*
G02X4003130Y1178185I-60000J-60D01*
G01*
X3573130Y743063D2*
Y603183D1*
X3453130Y743063D2*
Y603183D1*
X3573130D2*
G02X3453130Y603183I-60000J-60D01*
G01*
Y743063D2*
G02X3573130Y743063I60000J60D01*
G01*
X3333070Y1263125D2*
X3193190D1*
X3333070Y1383125D2*
X3193190D1*
Y1263125D2*
G02X3193190Y1383125I-60J60000D01*
G01*
X3333070D2*
G02X3333070Y1263125I60J-60000D01*
G01*
X3198130Y1478245D2*
Y1718005D1*
X3078130Y1478245D2*
Y1718005D1*
G02X3198130Y1718005I60000J120D01*
G01*
Y1478245D2*
G02X3078130Y1478245I-60000J-120D01*
G01*
X2356435Y1731550D2*
X2116675D1*
X2356435Y1611550D2*
X2116675D1*
G02X2116675Y1731550I-120J60000D01*
G01*
X2356435D2*
G02X2356435Y1611550I120J-60000D01*
G01*
X2118250Y1438125D2*
X2358010D1*
X2118250Y1558125D2*
X2358010D1*
G02X2358010Y1438125I120J-60000D01*
G01*
X2118250D2*
G02X2118250Y1558125I-120J60000D01*
G01*
X1928130Y1053185D2*
Y1193065D1*
X2048130Y1053185D2*
Y1193065D1*
X1928130D2*
G02X2048130Y1193065I60000J60D01*
G01*
Y1053185D2*
G02X1928130Y1053185I-60000J-60D01*
G01*
X4057323Y3849025D2*
Y3825385D1*
X4045505Y3837205D2*
X4069118D1*
X4087269D2*
G02X4087269Y3837205I99965J0D01*
G01*
X3975385Y3932323D2*
X3999025D1*
X3987205Y3920505D2*
Y3944118D1*
X3887205Y4062234D2*
G02X3887205Y4062234I100000J0D01*
G01*
X4111634Y3970845D2*
X4162776D1*
X4095845Y3712776D2*
Y3661634D1*
X958070Y1613125D2*
X818190D1*
X958070Y1733125D2*
X818190D1*
Y1613125D2*
G02X818190Y1733125I-60J60000D01*
G01*
X958070D2*
G02X958070Y1613125I60J-60000D01*
G01*
Y1463125D2*
X818190D1*
X958070Y1583125D2*
X818190D1*
Y1463125D2*
G02X818190Y1583125I-60J60000D01*
G01*
X958070D2*
G02X958070Y1463125I60J-60000D01*
G01*
X1133070Y1888123D2*
X993190D1*
X1133070Y2008123D2*
X993190D1*
Y1888123D2*
G02X993190Y2008123I-60J60000D01*
G01*
X1133070D2*
G02X1133070Y1888123I60J-60000D01*
G01*
X1320570Y1325625D2*
X1180690D1*
X1320570Y1445625D2*
X1180690D1*
Y1325625D2*
G02X1180690Y1445625I-60J60000D01*
G01*
X1320570D2*
G02X1320570Y1325625I60J-60000D01*
G01*
X3519882Y2837205D2*
G02X3519882Y2837205I265748J0D01*
G01*
X3587222Y2849004D2*
Y2825406D1*
X3575423Y2837205D2*
X3599022D1*
X3718110Y3674705D2*
G02X3718110Y3674705I-157477J0D01*
G01*
X3371665Y3686515D2*
Y3662894D1*
X3359843Y3674705D2*
X3383452D1*
X1283345Y2900276D2*
Y2849134D1*
X2645845Y3062776D2*
Y3011634D1*
X2087776Y3053564D2*
X2036634D1*
X1753564Y2961634D2*
Y3012776D1*
Y3161634D2*
Y3212776D1*
X2583345Y2587776D2*
Y2536634D1*
X2645845Y2912776D2*
Y2861634D1*
X3438701Y2064484D2*
X3387559D1*
X2609902Y1541824D2*
Y1451273D1*
X2810846D1*
X2643286Y1541824D2*
Y1451273D1*
X2810846Y1541824D2*
Y1451273D1*
X2609902Y1541824D2*
X2810846D1*
X2812028Y1575093D2*
Y1665644D1*
X2611083D1*
X2778643Y1575093D2*
Y1665644D1*
X2611083Y1575093D2*
Y1665644D1*
X2812028Y1575093D2*
X2611083D1*
X2608720Y1790644D2*
Y1700093D1*
X2809665D1*
X2642105Y1790644D2*
Y1700093D1*
X2809665Y1790644D2*
Y1700093D1*
X2608720Y1790644D2*
X2809665D1*
X3416335Y2530610D2*
X3454331D1*
X3416335Y2843209D2*
X3454331D1*
X3258074Y2530610D2*
X3220079D1*
X3454331Y2843209D2*
Y2530610D1*
X3258074Y2843209D2*
X3220079D1*
D22*
X3337205Y2889665D3*
X3220079Y2843209D2*
D10*
Y2530610D1*
X2693866Y2756169D2*
X2670307D1*
X2693866Y2693240D2*
X2670307D1*
X2686452D2*
Y2756169D1*
X2693901Y2693240D2*
Y2756169D1*
X2504075Y651568D2*
X2086752D1*
Y1005899D1*
X2504075D1*
Y651568D1*
G36*
X2397616Y686293D2*
X2366233D1*
Y654793D1*
X2397616D1*
Y686293D1*
G37*
G36*
X2200890D2*
X2169465D1*
Y654793D1*
X2200890D1*
Y686293D1*
G37*
X1174715Y2712205D2*
D10*
X1262215D1*
Y2787205D1*
X1174715D1*
Y2712205D1*
X4112205Y2662205D2*
X4212205D1*
X4112205Y2462205D2*
Y2662205D1*
Y2462205D2*
X4212205D1*
Y2662205D1*
X2088130Y2123125D2*
X2188130D1*
X2088130Y1923125D2*
Y2123125D1*
Y1923125D2*
X2188130D1*
Y2123125D1*
X599705Y2924705D2*
X499705D1*
Y2624705D1*
X599705D2*
X499705D1*
X599705Y2924705D2*
Y2624705D1*
X4013130Y948243D2*
X4113130D1*
Y698003D2*
Y948243D1*
X4013130Y698003D2*
X4113130D1*
X4013130D2*
Y948243D1*
X3298169Y1573125D2*
G02X3298169Y1573125I216535J0D01*
G01*
X3579331Y3002169D2*
X3461222D1*
X3579331Y3486414D2*
X3461222D1*
X3579331D2*
Y3002169D1*
X3095079Y3486414D2*
Y3002169D1*
X3213188D1*
X3095079Y3486414D2*
X3213188D1*
X892461Y823123D2*
G02X892461Y823123I295276J0D01*
G01*
X2635935Y1374691D2*
G03X2787176Y1374691I75620J-66569D01*
G01*
X2635935D1*
X3141272Y1098744D2*
G03X3141272Y947503I-66569J-75620D01*
G01*
Y1098744D1*
X1938750Y1469981D2*
G03X1787509Y1469981I-75620J66569D01*
G01*
X1938750D1*
X1663750Y1044982D2*
G03X1512509Y1044982I-75620J66569D01*
G01*
X1663750D1*
D40*
X2675731Y3364622D3*
X2666530Y3414764D2*
D10*
X2548425D1*
Y3434449D1*
X2666530D1*
Y3414764D1*
X3883130Y953273D2*
X3943130D1*
X3883130Y792973D2*
Y953273D1*
Y792973D2*
X3943130D1*
Y953273D1*
X3733130D2*
X3793130D1*
X3733130Y792973D2*
Y953273D1*
Y792973D2*
X3793130D1*
Y953273D1*
X2956405Y1166549D2*
Y1226549D1*
X3116705Y1166549D2*
X2956405D1*
X3116705D2*
Y1226549D1*
X2956405D1*
X2757087Y725197D2*
X2568110D1*
X2757087Y1099213D2*
X2568110D1*
X2745276Y758671D2*
Y1061811D1*
X2757087Y725197D2*
Y758671D1*
X2745276D1*
Y1061811D2*
X2757087D1*
Y1099213D1*
X2568110Y725197D2*
Y1099213D1*
X3218130Y642973D2*
X3158130D1*
X3218130Y803273D2*
Y642973D1*
Y803273D2*
X3158130D1*
Y642973D1*
X2318130Y1142975D2*
X2258130D1*
X2318130Y1303275D2*
Y1142975D1*
Y1303275D2*
X2258130D1*
Y1142975D1*
X2143130D2*
X2083130D1*
X2143130Y1303275D2*
Y1142975D1*
Y1303275D2*
X2083130D1*
Y1142975D1*
X1833130Y1303275D2*
X1893130D1*
X1833130Y1142975D2*
Y1303275D1*
Y1142975D2*
X1893130D1*
Y1303275D1*
X1793130Y1142975D2*
X1733130D1*
X1793130Y1303275D2*
Y1142975D1*
Y1303275D2*
X1733130D1*
Y1142975D1*
X1843130Y1792975D2*
X1783130D1*
X1843130Y1953275D2*
Y1792975D1*
Y1953275D2*
X1783130D1*
Y1792975D1*
X707980Y1768125D2*
Y1828125D1*
X868280Y1768125D2*
X707980D1*
X868280D2*
Y1828125D1*
X707980D1*
X1643130Y1392975D2*
X1583130D1*
X1643130Y1553275D2*
Y1392975D1*
Y1553275D2*
X1583130D1*
Y1392975D1*
X1483130Y1553275D2*
X1543130D1*
X1483130Y1392975D2*
Y1553275D1*
Y1392975D2*
X1543130D1*
Y1553275D1*
X3820307Y2268669D2*
X3843866D1*
X3820307Y2205740D2*
X3843866D1*
X3820307Y2168669D2*
X3843866D1*
X3820307Y2105740D2*
X3843866D1*
X2258130Y2078275D2*
X2318130D1*
X2258130Y1917975D2*
Y2078275D1*
Y1917975D2*
X2318130D1*
Y2078275D1*
X2358130D2*
X2418130D1*
X2358130Y1917975D2*
Y2078275D1*
Y1917975D2*
X2418130D1*
Y2078275D1*
X2458130D2*
X2518130D1*
X2458130Y1917975D2*
Y2078275D1*
Y1917975D2*
X2518130D1*
Y2078275D1*
X2558130D2*
X2618130D1*
X2558130Y1917975D2*
Y2078275D1*
Y1917975D2*
X2618130D1*
Y2078275D1*
X2658130D2*
X2718130D1*
X2658130Y1917975D2*
Y2078275D1*
Y1917975D2*
X2718130D1*
Y2078275D1*
X4263386Y2242349D2*
Y1950965D1*
X4098031Y2218720D2*
Y1927336D1*
X4263386Y1919445D2*
G02X4098031Y1927336I-82278J12308D01*
G01*
Y2250240D2*
G02X4263386Y2242349I82278J-12308D01*
G01*
X2758130Y2078275D2*
X2818130D1*
X2758130Y1917975D2*
Y2078275D1*
Y1917975D2*
X2818130D1*
Y2078275D1*
X2858130D2*
X2918130D1*
X2858130Y1917975D2*
Y2078275D1*
Y1917975D2*
X2918130D1*
Y2078275D1*
X2958130D2*
X3018130D1*
X2958130Y1917975D2*
Y2078275D1*
Y1917975D2*
X3018130D1*
Y2078275D1*
X3058130D2*
X3118130D1*
X3058130Y1917975D2*
Y2078275D1*
Y1917975D2*
X3118130D1*
Y2078275D1*
X3158130D2*
X3218130D1*
X3158130Y1917975D2*
Y2078275D1*
Y1917975D2*
X3218130D1*
Y2078275D1*
X3258130D2*
X3318130D1*
X3258130Y1917975D2*
Y2078275D1*
Y1917975D2*
X3318130D1*
Y2078275D1*
X784512Y2815618D2*
X910370D1*
X784512Y2933791D2*
X910370D1*
X3659980Y1125490D2*
X3266280D1*
Y920757D2*
Y1125490D1*
X3659980Y920757D2*
X3266280D1*
X3659980D2*
Y999498D1*
Y1125490D2*
Y1046749D1*
Y999498D2*
G02X3659980Y1046749I4J23626D01*
G01*
X1160763Y1869975D2*
Y1476274D1*
X1365497D2*
X1160763D1*
X1365497Y1869975D2*
Y1476274D1*
Y1869975D2*
X1286756D1*
X1160763D2*
X1239504D1*
X1286756D2*
G02X1239504Y1869975I-23626J4D01*
G01*
X3803429Y3120289D2*
Y3521837D1*
Y3120289D2*
X3917608D1*
X3803429Y3521837D2*
X3917608D1*
D45*
X3680673Y3148771D3*
X1482094Y2823132D2*
D10*
Y2626278D1*
X1379717Y2823132D2*
Y2626278D1*
X1482094D2*
X1379717D1*
X1450600Y2823132D2*
X1482094D1*
X1411211D2*
X1379717D1*
X1450600D2*
G02X1411211Y2823132I-19694J9D01*
G01*
X2213397Y2885228D2*
X2441721D1*
Y3113591D1*
X2213397D1*
Y2885228D1*
D49*
X2161744Y2854112D3*
G36*
X2213397Y2885228D2*
Y2916720D1*
X2244890Y2885228D1*
X2213397D1*
G37*
X1997205Y3212212D2*
D10*
Y2972198D1*
X1827205Y3212212D2*
Y2972198D1*
X1977213Y3212212D2*
Y2972198D1*
X1847197D2*
Y3212212D1*
X1882200Y3102209D2*
Y3082201D1*
X1942210D1*
Y3102209D1*
X1882200D1*
Y3067195D2*
X1912205D1*
X1942210D1*
X1882200Y3117215D2*
X1912205D1*
X1942210D1*
X1912205Y3067195D2*
Y3042185D1*
Y3117215D2*
Y3142225D1*
X1827205Y3212212D2*
G02X1997205Y3212212I85000J-7D01*
G01*
Y2972198D2*
G02X1827205Y2972198I-85000J7D01*
G01*
X1847197Y3212212D2*
G02X1977213Y3212212I65008J-23D01*
G01*
Y2972198D2*
G02X1847197Y2972198I-65008J23D01*
G01*
X3983911Y551110D2*
D128*
X3986288Y555863D1*
X3991096Y560671D1*
X3995850Y563048D1*
X4005411D1*
X4010220Y560671D1*
X4014973Y555863D1*
X4017405Y551110D1*
X4019781Y543925D1*
Y531931D1*
X4017405Y524801D1*
X4014973Y519993D1*
X4010220Y515240D1*
X4005411Y512808D1*
X3995850D1*
X3991096Y515240D1*
X3986288Y519993D1*
X3983911Y524801D1*
X3968472Y553431D2*
X3963664Y555863D1*
X3956479Y562993D1*
Y512808D1*
X3844661Y1384404D2*
X3847038Y1389157D1*
X3851846Y1393965D1*
X3856599Y1396342D1*
X3866161D1*
X3870970Y1393965D1*
X3875723Y1389157D1*
X3878155Y1384404D1*
X3880531Y1377219D1*
Y1365225D1*
X3878155Y1358095D1*
X3875723Y1353287D1*
X3870970Y1348534D1*
X3866161Y1346102D1*
X3856599D1*
X3851846Y1348534D1*
X3847038Y1353287D1*
X3844661Y1358095D1*
X3826790Y1384348D2*
Y1386725D1*
X3824414Y1391533D1*
X3822037Y1393910D1*
X3817229Y1396287D1*
X3807667D1*
X3802914Y1393910D1*
X3800537Y1391533D1*
X3798105Y1386725D1*
Y1381972D1*
X3800537Y1377163D1*
X3805290Y1370034D1*
X3829222Y1346102D1*
X3795729D1*
X4069661Y1439410D2*
X4072038Y1444163D1*
X4076846Y1448971D1*
X4081599Y1451348D1*
X4091161D1*
X4095970Y1448971D1*
X4100723Y1444163D1*
X4103155Y1439410D1*
X4105531Y1432224D1*
Y1420231D1*
X4103155Y1413101D1*
X4100723Y1408293D1*
X4095970Y1403540D1*
X4091161Y1401108D1*
X4081599D1*
X4076846Y1403540D1*
X4072038Y1408293D1*
X4069661Y1413101D1*
X4049414Y1451292D2*
X4023161D1*
X4037475Y1432169D1*
X4030290D1*
X4025537Y1429793D1*
X4023161Y1427416D1*
X4020729Y1420231D1*
Y1415478D1*
X4023161Y1408293D1*
X4027914Y1403484D1*
X4035099Y1401108D1*
X4042284D1*
X4049414Y1403484D1*
X4051790Y1405916D1*
X4054222Y1410669D1*
X3645850Y689408D2*
X3648226Y694161D1*
X3653035Y698970D1*
X3657788Y701346D1*
X3667349D1*
X3672158Y698970D1*
X3676911Y694161D1*
X3679343Y689408D1*
X3681719Y682223D1*
Y670230D1*
X3679343Y663100D1*
X3676911Y658291D1*
X3672158Y653538D1*
X3667349Y651106D1*
X3657788D1*
X3653035Y653538D1*
X3648226Y658291D1*
X3645850Y663100D1*
X3606479Y651106D2*
Y701291D1*
X3630410Y667853D1*
X3594540D1*
X3269661Y1444410D2*
X3272038Y1449163D1*
X3276846Y1453971D1*
X3281599Y1456348D1*
X3291161D1*
X3295970Y1453971D1*
X3300723Y1449163D1*
X3303155Y1444410D1*
X3305531Y1437225D1*
Y1425231D1*
X3303155Y1418101D1*
X3300723Y1413293D1*
X3295970Y1408540D1*
X3291161Y1406108D1*
X3281599D1*
X3276846Y1408540D1*
X3272038Y1413293D1*
X3269661Y1418101D1*
X3225537Y1456293D2*
X3249414D1*
X3251790Y1434793D1*
X3249414Y1437169D1*
X3242229Y1439601D1*
X3235099D1*
X3227914Y1437169D1*
X3223105Y1432416D1*
X3220729Y1425231D1*
Y1420478D1*
X3223105Y1413293D1*
X3227914Y1408484D1*
X3235099Y1406108D1*
X3242229D1*
X3249414Y1408484D1*
X3251790Y1410916D1*
X3254222Y1415669D1*
X3143445Y1614410D2*
X3145822Y1619163D1*
X3150630Y1623971D1*
X3155384Y1626348D1*
X3164945D1*
X3169754Y1623971D1*
X3174507Y1619163D1*
X3176939Y1614410D1*
X3179315Y1607224D1*
Y1595231D1*
X3176939Y1588101D1*
X3174507Y1583293D1*
X3169754Y1578540D1*
X3164945Y1576108D1*
X3155384D1*
X3150630Y1578540D1*
X3145822Y1583293D1*
X3143445Y1588101D1*
X3099321Y1619163D2*
X3101698Y1623916D1*
X3108883Y1626292D1*
X3113636D1*
X3120821Y1623916D1*
X3125629Y1616731D1*
X3128006Y1604793D1*
Y1592854D1*
X3125629Y1583293D1*
X3120821Y1578484D1*
X3113636Y1576108D1*
X3111259D1*
X3104130Y1578484D1*
X3099321Y1583293D1*
X3096945Y1590478D1*
Y1592854D1*
X3099321Y1600039D1*
X3104130Y1604793D1*
X3111259Y1607169D1*
X3113636D1*
X3120821Y1604793D1*
X3125629Y1600039D1*
X3128006Y1592854D1*
X2243086Y1692835D2*
X2245463Y1697588D1*
X2250271Y1702396D1*
X2255025Y1704773D1*
X2264586D1*
X2269395Y1702396D1*
X2274148Y1697588D1*
X2276580Y1692835D1*
X2278956Y1685650D1*
Y1673656D1*
X2276580Y1666527D1*
X2274148Y1661718D1*
X2269395Y1656965D1*
X2264586Y1654533D1*
X2255025D1*
X2250271Y1656965D1*
X2245463Y1661718D1*
X2243086Y1666527D1*
X2218086Y1654533D2*
X2194154Y1704718D1*
X2227647D1*
X2244634Y1519410D2*
X2247010Y1524163D1*
X2251819Y1528971D1*
X2256572Y1531348D1*
X2266133D1*
X2270942Y1528971D1*
X2275695Y1524163D1*
X2278127Y1519410D1*
X2280504Y1512225D1*
Y1500231D1*
X2278127Y1493101D1*
X2275695Y1488293D1*
X2270942Y1483540D1*
X2266133Y1481108D1*
X2256572D1*
X2251819Y1483540D1*
X2247010Y1488293D1*
X2244634Y1493101D1*
X2217256Y1531293D2*
X2224386Y1528916D1*
X2226818Y1524163D1*
Y1519354D1*
X2224386Y1514601D1*
X2219633Y1512169D1*
X2210071Y1509793D1*
X2202886Y1507416D1*
X2198133Y1502608D1*
X2195756Y1497855D1*
Y1490669D1*
X2198133Y1485916D1*
X2200509Y1483484D1*
X2207695Y1481108D1*
X2217256D1*
X2224386Y1483484D1*
X2226818Y1485916D1*
X2229194Y1490669D1*
Y1497855D1*
X2226818Y1502608D1*
X2222009Y1507416D1*
X2214880Y1509793D1*
X2205318Y1512169D1*
X2200509Y1514601D1*
X2198133Y1519354D1*
Y1524163D1*
X2200509Y1528916D1*
X2207695Y1531293D1*
X2217256D1*
X1993473Y1314410D2*
X1995850Y1319163D1*
X2000658Y1323971D1*
X2005411Y1326348D1*
X2014973D1*
X2019781Y1323971D1*
X2024534Y1319163D1*
X2026966Y1314410D1*
X2029343Y1307224D1*
Y1295231D1*
X2026966Y1288101D1*
X2024534Y1283293D1*
X2019781Y1278540D1*
X2014973Y1276108D1*
X2005411D1*
X2000658Y1278540D1*
X1995850Y1283293D1*
X1993473Y1288101D1*
X1946917Y1309601D2*
X1949349Y1302416D1*
X1954102Y1297608D1*
X1961287Y1295231D1*
X1963664D1*
X1970849Y1297608D1*
X1975602Y1302416D1*
X1978034Y1309601D1*
Y1311978D1*
X1975602Y1319163D1*
X1970849Y1323916D1*
X1963664Y1326292D1*
X1961287D1*
X1954102Y1323916D1*
X1949349Y1319163D1*
X1946917Y1309601D1*
Y1297608D1*
X1949349Y1285669D1*
X1954102Y1278484D1*
X1961287Y1276108D1*
X1966040D1*
X1973225Y1278484D1*
X1975602Y1283293D1*
X3986599Y3860990D2*
X3988976Y3865743D1*
X3993784Y3870551D1*
X3998538Y3872928D1*
X4008099D1*
X4012908Y3870551D1*
X4017661Y3865743D1*
X4020093Y3860990D1*
X4022469Y3853805D1*
Y3841811D1*
X4020093Y3834681D1*
X4017661Y3829873D1*
X4012908Y3825120D1*
X4008099Y3822688D1*
X3998538D1*
X3993784Y3825120D1*
X3988976Y3829873D1*
X3986599Y3834681D1*
X3971160Y3863311D2*
X3966352Y3865743D1*
X3959167Y3872873D1*
Y3822688D1*
X3929357Y3872873D2*
X3936542Y3870496D1*
X3941351Y3863311D1*
X3943727Y3851373D1*
Y3844188D1*
X3941351Y3832249D1*
X3936542Y3825064D1*
X3929357Y3822688D1*
X3924604D1*
X3917419Y3825064D1*
X3912666Y3832249D1*
X3910234Y3844188D1*
Y3851373D1*
X3912666Y3863311D1*
X3917419Y3870496D1*
X3924604Y3872873D1*
X3929357D1*
X3912666Y3863311D2*
X3941351Y3832249D1*
X3996702Y4223484D2*
X3999079Y4228237D1*
X4003888Y4233045D1*
X4008641Y4235422D1*
X4018202D1*
X4023011Y4233045D1*
X4027764Y4228237D1*
X4030196Y4223484D1*
X4032572Y4216299D1*
Y4204305D1*
X4030196Y4197175D1*
X4027764Y4192367D1*
X4023011Y4187614D1*
X4018202Y4185182D1*
X4008641D1*
X4003888Y4187614D1*
X3999079Y4192367D1*
X3996702Y4197175D1*
X3981263Y4225805D2*
X3976455Y4228237D1*
X3969270Y4235367D1*
Y4185182D1*
X3953831Y4225805D2*
X3949022Y4228237D1*
X3941837Y4235367D1*
Y4185182D1*
X4121392Y4211970D2*
X4116639Y4214346D1*
X4111831Y4219155D1*
X4109454Y4223908D1*
Y4233469D1*
X4111831Y4238278D1*
X4116639Y4243031D1*
X4121392Y4245463D1*
X4128577Y4247839D1*
X4140571D1*
X4147701Y4245463D1*
X4152509Y4243031D1*
X4157262Y4238278D1*
X4159694Y4233469D1*
Y4223908D1*
X4157262Y4219155D1*
X4152509Y4214346D1*
X4147701Y4211969D1*
X4119071Y4196530D2*
X4116639Y4191722D1*
X4109509Y4184537D1*
X4159694D1*
X4121448Y4166666D2*
X4119071D1*
X4114263Y4164289D1*
X4111886Y4161913D1*
X4109509Y4157104D1*
Y4147543D1*
X4111886Y4142789D1*
X4114263Y4140413D1*
X4119071Y4137981D1*
X4123824D1*
X4128633Y4140413D1*
X4135762Y4145166D1*
X4159694Y4169098D1*
Y4135604D1*
X4036969Y3703017D2*
X4039346Y3707770D1*
X4044155Y3712579D1*
X4048908Y3714955D1*
X4058469D1*
X4063278Y3712579D1*
X4068031Y3707770D1*
X4070463Y3703017D1*
X4072839Y3695832D1*
Y3683839D1*
X4070463Y3676709D1*
X4068031Y3671900D1*
X4063278Y3667147D1*
X4058469Y3664715D1*
X4048908D1*
X4044155Y3667147D1*
X4039346Y3671900D1*
X4036969Y3676709D1*
X4021530Y3705338D2*
X4016722Y3707770D1*
X4009537Y3714900D1*
Y3664715D1*
X3989289Y3714900D2*
X3963036D1*
X3977351Y3695777D1*
X3970166D1*
X3965413Y3693400D1*
X3963036Y3691024D1*
X3960604Y3683839D1*
Y3679085D1*
X3963036Y3671900D1*
X3967789Y3667092D1*
X3974974Y3664715D1*
X3982159D1*
X3989289Y3667092D1*
X3991666Y3669524D1*
X3994097Y3674277D1*
X684566Y1694410D2*
X686943Y1699163D1*
X691751Y1703971D1*
X696504Y1706348D1*
X706066D1*
X710874Y1703971D1*
X715627Y1699163D1*
X718059Y1694410D1*
X720436Y1687225D1*
Y1675231D1*
X718059Y1668101D1*
X715627Y1663293D1*
X710874Y1658540D1*
X706066Y1656108D1*
X696504D1*
X691751Y1658540D1*
X686943Y1663293D1*
X684566Y1668101D1*
X669127Y1696731D2*
X664318Y1699163D1*
X657133Y1706293D1*
Y1656108D1*
X617762D2*
Y1706293D1*
X641694Y1672854D1*
X605824D1*
X683378Y1544410D2*
X685754Y1549163D1*
X690563Y1553971D1*
X695316Y1556348D1*
X704877D1*
X709686Y1553971D1*
X714439Y1549163D1*
X716871Y1544410D1*
X719248Y1537225D1*
Y1525231D1*
X716871Y1518101D1*
X714439Y1513293D1*
X709686Y1508540D1*
X704877Y1506108D1*
X695316D1*
X690563Y1508540D1*
X685754Y1513293D1*
X683378Y1518101D1*
X667938Y1546731D2*
X663130Y1549163D1*
X655945Y1556293D1*
Y1506108D1*
X611821Y1556293D2*
X635697D1*
X638074Y1534793D1*
X635697Y1537169D1*
X628512Y1539601D1*
X621382D1*
X614197Y1537169D1*
X609389Y1532416D1*
X607012Y1525231D1*
Y1520478D1*
X609389Y1513293D1*
X614197Y1508484D1*
X621382Y1506108D1*
X628512D1*
X635697Y1508484D1*
X638074Y1510916D1*
X640506Y1515669D1*
X1082162Y2069408D2*
X1084538Y2074161D1*
X1089347Y2078970D1*
X1094100Y2081346D1*
X1103662D1*
X1108470Y2078970D1*
X1113223Y2074161D1*
X1115655Y2069408D1*
X1118032Y2062223D1*
Y2050230D1*
X1115655Y2043100D1*
X1113223Y2038291D1*
X1108470Y2033538D1*
X1103662Y2031106D1*
X1094100D1*
X1089347Y2033538D1*
X1084538Y2038291D1*
X1082162Y2043100D1*
X1066722Y2071730D2*
X1061914Y2074161D1*
X1054729Y2081291D1*
Y2031106D1*
X1010605Y2074161D2*
X1012981Y2078915D1*
X1020166Y2081291D1*
X1024920D1*
X1032105Y2078915D1*
X1036913Y2071730D1*
X1039290Y2059791D1*
Y2047853D1*
X1036913Y2038291D1*
X1032105Y2033483D1*
X1024920Y2031106D1*
X1022543D1*
X1015413Y2033483D1*
X1010605Y2038291D1*
X1008228Y2045477D1*
Y2047853D1*
X1010605Y2055038D1*
X1015413Y2059791D1*
X1022543Y2062168D1*
X1024920D1*
X1032105Y2059791D1*
X1036913Y2055038D1*
X1039290Y2047853D1*
X1270878Y1281910D2*
X1273254Y1286663D1*
X1278063Y1291471D1*
X1282816Y1293848D1*
X1292377D1*
X1297186Y1291471D1*
X1301939Y1286663D1*
X1304371Y1281910D1*
X1306748Y1274725D1*
Y1262731D1*
X1304371Y1255601D1*
X1301939Y1250793D1*
X1297186Y1246040D1*
X1292377Y1243608D1*
X1282816D1*
X1278063Y1246040D1*
X1273254Y1250793D1*
X1270878Y1255601D1*
X1255438Y1284231D2*
X1250630Y1286663D1*
X1243445Y1293793D1*
Y1243608D1*
X1218444D2*
X1194512Y1293793D1*
X1228006D1*
X3805850Y2939238D2*
X3808227Y2943991D1*
X3813035Y2948799D1*
X3817788Y2951176D1*
X3827350D1*
X3832158Y2948799D1*
X3836911Y2943991D1*
X3839343Y2939238D1*
X3841720Y2932053D1*
Y2920059D1*
X3839343Y2912929D1*
X3836911Y2908121D1*
X3832158Y2903368D1*
X3827350Y2900936D1*
X3817788D1*
X3813035Y2903368D1*
X3808227Y2908121D1*
X3805850Y2912929D1*
X3790411Y2941559D2*
X3785602Y2943991D1*
X3778417Y2951121D1*
Y2900936D1*
X3751040Y2951121D2*
X3758170Y2948744D1*
X3760601Y2943991D1*
Y2939182D1*
X3758170Y2934429D1*
X3753416Y2931997D1*
X3743855Y2929621D1*
X3736670Y2927244D1*
X3731917Y2922436D1*
X3729540Y2917682D1*
Y2910497D1*
X3731917Y2905744D1*
X3734293Y2903312D1*
X3741478Y2900936D1*
X3751040D1*
X3758170Y2903312D1*
X3760601Y2905744D1*
X3762978Y2910497D1*
Y2917682D1*
X3760601Y2922436D1*
X3755793Y2927244D1*
X3748663Y2929621D1*
X3739102Y2931997D1*
X3734293Y2934429D1*
X3731917Y2939182D1*
Y2943991D1*
X3734293Y2948744D1*
X3741478Y2951121D1*
X3751040D1*
X3583036Y3630966D2*
X3585412Y3635719D1*
X3590221Y3640528D1*
X3594974Y3642904D1*
X3604536D1*
X3609344Y3640528D1*
X3614097Y3635719D1*
X3616529Y3630966D1*
X3618906Y3623781D1*
Y3611788D1*
X3616529Y3604658D1*
X3614097Y3599849D1*
X3609344Y3595096D1*
X3604536Y3592664D1*
X3594974D1*
X3590221Y3595096D1*
X3585412Y3599849D1*
X3583036Y3604658D1*
X3567597Y3633287D2*
X3562788Y3635719D1*
X3555603Y3642849D1*
Y3592664D1*
X3509047Y3626158D2*
X3511479Y3618973D1*
X3516232Y3614164D1*
X3523417Y3611788D1*
X3525794D1*
X3532979Y3614164D1*
X3537732Y3618973D1*
X3540164Y3626158D1*
Y3628534D1*
X3537732Y3635719D1*
X3532979Y3640473D1*
X3525794Y3642849D1*
X3523417D1*
X3516232Y3640473D1*
X3511479Y3635719D1*
X3509047Y3626158D1*
Y3614164D1*
X3511479Y3602226D1*
X3516232Y3595041D1*
X3523417Y3592664D1*
X3528170D1*
X3535355Y3595041D1*
X3537732Y3599849D1*
X1385219Y2965517D2*
X1387596Y2970270D1*
X1392404Y2975079D1*
X1397158Y2977455D1*
X1406719D1*
X1411528Y2975079D1*
X1416281Y2970270D1*
X1418713Y2965517D1*
X1421089Y2958332D1*
Y2946339D1*
X1418713Y2939209D1*
X1416281Y2934400D1*
X1411528Y2929647D1*
X1406719Y2927215D1*
X1397158D1*
X1392404Y2929647D1*
X1387596Y2934400D1*
X1385219Y2939209D1*
X1367348Y2965462D2*
Y2967838D1*
X1364972Y2972647D1*
X1362595Y2975024D1*
X1357787Y2977400D1*
X1348225D1*
X1343472Y2975024D1*
X1341095Y2972647D1*
X1338663Y2967838D1*
Y2963085D1*
X1341095Y2958277D1*
X1345848Y2951147D1*
X1369780Y2927215D1*
X1336287D1*
X1306477Y2977400D2*
X1313663Y2975024D1*
X1318471Y2967838D1*
X1320848Y2955900D1*
Y2948715D1*
X1318471Y2936777D1*
X1313663Y2929592D1*
X1306477Y2927215D1*
X1301724D1*
X1294539Y2929592D1*
X1289786Y2936777D1*
X1287354Y2948715D1*
Y2955900D1*
X1289786Y2967838D1*
X1294539Y2975024D1*
X1301724Y2977400D1*
X1306477D1*
X1289786Y2967838D2*
X1318471Y2936777D1*
X2886969Y3053017D2*
X2889346Y3057770D1*
X2894155Y3062579D1*
X2898908Y3064955D1*
X2908469D1*
X2913278Y3062579D1*
X2918031Y3057770D1*
X2920463Y3053017D1*
X2922839Y3045832D1*
Y3033839D1*
X2920463Y3026709D1*
X2918031Y3021900D1*
X2913278Y3017147D1*
X2908469Y3014715D1*
X2898908D1*
X2894155Y3017147D1*
X2889346Y3021900D1*
X2886969Y3026709D1*
X2869098Y3052962D2*
Y3055338D1*
X2866722Y3060147D1*
X2864345Y3062524D1*
X2859537Y3064900D1*
X2849975D1*
X2845222Y3062524D1*
X2842845Y3060147D1*
X2840413Y3055338D1*
Y3050585D1*
X2842845Y3045777D1*
X2847599Y3038647D1*
X2871530Y3014715D1*
X2838037D1*
X2822598Y3055338D2*
X2817789Y3057770D1*
X2810604Y3064900D1*
Y3014715D1*
X2046392Y2851185D2*
X2041639Y2853562D1*
X2036831Y2858370D1*
X2034454Y2863124D1*
Y2872685D1*
X2036831Y2877494D1*
X2041639Y2882247D1*
X2046392Y2884679D1*
X2053577Y2887055D1*
X2065571D1*
X2072701Y2884679D1*
X2077509Y2882247D1*
X2082262Y2877494D1*
X2084694Y2872685D1*
Y2863124D1*
X2082262Y2858370D1*
X2077509Y2853562D1*
X2072701Y2851185D1*
X2046448Y2833314D2*
X2044071D1*
X2039263Y2830938D1*
X2036886Y2828561D1*
X2034509Y2823753D1*
Y2814191D1*
X2036886Y2809438D1*
X2039263Y2807061D1*
X2044071Y2804629D1*
X2048824D1*
X2053633Y2807061D1*
X2060762Y2811814D1*
X2084694Y2835746D1*
Y2802253D1*
X2046448Y2784382D2*
X2044071D1*
X2039263Y2782005D1*
X2036886Y2779629D1*
X2034509Y2774820D1*
Y2765258D1*
X2036886Y2760505D1*
X2039263Y2758129D1*
X2044071Y2755697D1*
X2048824D1*
X2053633Y2758129D1*
X2060762Y2762882D1*
X2084694Y2786813D1*
Y2753320D1*
X1713685Y3078017D2*
X1716062Y3082770D1*
X1720870Y3087579D1*
X1725624Y3089955D1*
X1735185D1*
X1739994Y3087579D1*
X1744747Y3082770D1*
X1747179Y3078017D1*
X1749555Y3070832D1*
Y3058839D1*
X1747179Y3051709D1*
X1744747Y3046900D1*
X1739994Y3042147D1*
X1735185Y3039715D1*
X1725624D1*
X1720870Y3042147D1*
X1716062Y3046900D1*
X1713685Y3051709D1*
X1695814Y3077962D2*
Y3080338D1*
X1693438Y3085147D1*
X1691061Y3087524D1*
X1686253Y3089900D1*
X1676691D1*
X1671938Y3087524D1*
X1669561Y3085147D1*
X1667129Y3080338D1*
Y3075585D1*
X1669561Y3070777D1*
X1674314Y3063647D1*
X1698246Y3039715D1*
X1664753D1*
X1644505Y3089900D2*
X1618252D1*
X1632567Y3070777D1*
X1625382D1*
X1620629Y3068400D1*
X1618252Y3066024D1*
X1615820Y3058839D1*
Y3054085D1*
X1618252Y3046900D1*
X1623005Y3042092D1*
X1630190Y3039715D1*
X1637375D1*
X1644505Y3042092D1*
X1646882Y3044524D1*
X1649313Y3049277D1*
X1714874Y3278017D2*
X1717250Y3282770D1*
X1722059Y3287579D1*
X1726812Y3289955D1*
X1736373D1*
X1741182Y3287579D1*
X1745935Y3282770D1*
X1748367Y3278017D1*
X1750744Y3270832D1*
Y3258839D1*
X1748367Y3251709D1*
X1745935Y3246900D1*
X1741182Y3242147D1*
X1736373Y3239715D1*
X1726812D1*
X1722059Y3242147D1*
X1717250Y3246900D1*
X1714874Y3251709D1*
X1697002Y3277962D2*
Y3280338D1*
X1694626Y3285147D1*
X1692249Y3287524D1*
X1687441Y3289900D1*
X1677879D1*
X1673126Y3287524D1*
X1670749Y3285147D1*
X1668318Y3280338D1*
Y3275585D1*
X1670749Y3270777D1*
X1675503Y3263647D1*
X1699434Y3239715D1*
X1665941D1*
X1626570D2*
Y3289900D1*
X1650502Y3256462D1*
X1614632D1*
X2847719Y2590517D2*
X2850096Y2595270D1*
X2854904Y2600079D1*
X2859658Y2602455D1*
X2869219D1*
X2874028Y2600079D1*
X2878781Y2595270D1*
X2881213Y2590517D1*
X2883589Y2583332D1*
Y2571339D1*
X2881213Y2564209D1*
X2878781Y2559400D1*
X2874028Y2554647D1*
X2869219Y2552215D1*
X2859658D1*
X2854904Y2554647D1*
X2850096Y2559400D1*
X2847719Y2564209D1*
X2829848Y2590462D2*
Y2592838D1*
X2827472Y2597647D1*
X2825095Y2600024D1*
X2820287Y2602400D1*
X2810725D1*
X2805972Y2600024D1*
X2803595Y2597647D1*
X2801163Y2592838D1*
Y2588085D1*
X2803595Y2583277D1*
X2808348Y2576147D1*
X2832280Y2552215D1*
X2798787D1*
X2754663Y2602400D2*
X2778539D1*
X2780916Y2580900D1*
X2778539Y2583277D1*
X2771354Y2585709D1*
X2764224D1*
X2757039Y2583277D1*
X2752231Y2578524D1*
X2749854Y2571339D1*
Y2566585D1*
X2752231Y2559400D1*
X2757039Y2554592D1*
X2764224Y2552215D1*
X2771354D1*
X2778539Y2554592D1*
X2780916Y2557024D1*
X2783348Y2561777D1*
X2909003Y2903017D2*
X2911380Y2907770D1*
X2916189Y2912579D1*
X2920942Y2914955D1*
X2930503D1*
X2935312Y2912579D1*
X2940065Y2907770D1*
X2942497Y2903017D1*
X2944873Y2895832D1*
Y2883839D1*
X2942497Y2876709D1*
X2940065Y2871900D1*
X2935312Y2867147D1*
X2930503Y2864715D1*
X2920942D1*
X2916189Y2867147D1*
X2911380Y2871900D1*
X2909003Y2876709D1*
X2891132Y2902962D2*
Y2905338D1*
X2888756Y2910147D1*
X2886379Y2912524D1*
X2881571Y2914900D1*
X2872009D1*
X2867256Y2912524D1*
X2864879Y2910147D1*
X2862447Y2905338D1*
Y2900585D1*
X2864879Y2895777D1*
X2869633Y2888647D1*
X2893564Y2864715D1*
X2860071D1*
X2815947Y2907770D2*
X2818323Y2912524D1*
X2825508Y2914900D1*
X2830262D1*
X2837447Y2912524D1*
X2842255Y2905338D1*
X2844632Y2893400D1*
Y2881462D1*
X2842255Y2871900D1*
X2837447Y2867092D1*
X2830262Y2864715D1*
X2827885D1*
X2820755Y2867092D1*
X2815947Y2871900D1*
X2813570Y2879085D1*
Y2881462D1*
X2815947Y2888647D1*
X2820755Y2893400D1*
X2827885Y2895777D1*
X2830262D1*
X2837447Y2893400D1*
X2842255Y2888647D1*
X2844632Y2881462D1*
X3472318Y2024605D2*
X3467564Y2026982D1*
X3462756Y2031790D1*
X3460379Y2036543D1*
Y2046105D1*
X3462756Y2050914D1*
X3467564Y2055667D1*
X3472318Y2058099D1*
X3479503Y2060475D1*
X3491496D1*
X3498626Y2058099D1*
X3503434Y2055667D1*
X3508187Y2050914D1*
X3510619Y2046105D1*
Y2036543D1*
X3508187Y2031790D1*
X3503434Y2026982D1*
X3498626Y2024605D1*
X3472373Y2006734D2*
X3469996D1*
X3465188Y2004358D1*
X3462811Y2001981D1*
X3460435Y1997173D1*
Y1987611D1*
X3462811Y1982858D1*
X3465188Y1980481D1*
X3469996Y1978049D1*
X3474749D1*
X3479558Y1980481D1*
X3486688Y1985234D1*
X3510619Y2009166D1*
Y1975673D1*
Y1950672D2*
X3460435Y1926740D1*
Y1960234D1*
X2740837Y1515047D2*
Y1464807D1*
X2724090D1*
X2716905Y1467239D1*
X2712097Y1471992D1*
X2709720Y1476801D1*
X2707344Y1483930D1*
Y1495924D1*
X2709720Y1503109D1*
X2712097Y1507862D1*
X2716905Y1512671D1*
X2724090Y1515047D1*
X2740837D1*
X2691904Y1505430D2*
X2687096Y1507862D1*
X2679911Y1514992D1*
Y1464807D1*
X2752768Y1638867D2*
Y1588627D1*
X2736021D1*
X2728836Y1591059D1*
X2724028Y1595812D1*
X2721651Y1600621D1*
X2719275Y1607751D1*
Y1619744D1*
X2721651Y1626929D1*
X2724028Y1631682D1*
X2728836Y1636491D1*
X2736021Y1638867D1*
X2752768D1*
X2701404Y1626874D2*
Y1629251D1*
X2699027Y1634059D1*
X2696650Y1636436D1*
X2691842Y1638812D1*
X2682280D1*
X2677527Y1636436D1*
X2675151Y1634059D1*
X2672719Y1629251D1*
Y1624497D1*
X2675151Y1619689D1*
X2679904Y1612559D1*
X2703835Y1588627D1*
X2670342D1*
X2750406Y1763867D2*
Y1713627D1*
X2733659D1*
X2726474Y1716059D1*
X2721666Y1720812D1*
X2719289Y1725621D1*
X2716913Y1732751D1*
Y1744744D1*
X2719289Y1751929D1*
X2721666Y1756682D1*
X2726474Y1761491D1*
X2733659Y1763867D1*
X2750406D1*
X2696665Y1763812D2*
X2670412D1*
X2684727Y1744689D1*
X2677542D1*
X2672788Y1742312D1*
X2670412Y1739936D1*
X2667980Y1732751D1*
Y1727998D1*
X2670412Y1720812D1*
X2675165Y1716004D1*
X2682350Y1713627D1*
X2689535D1*
X2696665Y1716004D1*
X2699041Y1718436D1*
X2701473Y1723189D1*
X3378418Y2747731D2*
Y2697491D1*
X3361671D1*
X3354486Y2699923D1*
X3349678Y2704676D1*
X3347301Y2709484D1*
X3344924Y2716614D1*
Y2728608D1*
X3347301Y2735793D1*
X3349678Y2740546D1*
X3354486Y2745354D1*
X3361671Y2747731D1*
X3378418D1*
X3300800Y2747676D2*
X3324677D1*
X3327053Y2726176D1*
X3324677Y2728552D1*
X3317492Y2730984D1*
X3310362D1*
X3303177Y2728552D1*
X3298368Y2723799D1*
X3295992Y2716614D1*
Y2711861D1*
X3298368Y2704676D1*
X3303177Y2699868D1*
X3310362Y2697491D1*
X3317492D1*
X3324677Y2699868D1*
X3327053Y2702299D1*
X3329485Y2707053D1*
X2873272Y2758361D2*
Y2708121D1*
X2856525D1*
X2849340Y2710553D1*
X2844532Y2715306D1*
X2842155Y2720114D1*
X2839779Y2727244D1*
Y2739238D1*
X2842155Y2746423D1*
X2844532Y2751176D1*
X2849340Y2755984D1*
X2856525Y2758361D1*
X2873272D1*
X2812401Y2758306D2*
X2819531Y2755929D1*
X2821963Y2751176D1*
Y2746367D1*
X2819531Y2741614D1*
X2814778Y2739182D1*
X2805216Y2736806D1*
X2798031Y2734429D1*
X2793278Y2729621D1*
X2790901Y2724868D1*
Y2717682D1*
X2793278Y2712929D1*
X2795654Y2710497D1*
X2802840Y2708121D1*
X2812401D1*
X2819531Y2710497D1*
X2821963Y2712929D1*
X2824339Y2717682D1*
Y2724868D1*
X2821963Y2729621D1*
X2817154Y2734429D1*
X2810025Y2736806D1*
X2800463Y2739182D1*
X2795654Y2741614D1*
X2793278Y2746367D1*
Y2751176D1*
X2795654Y2755929D1*
X2802840Y2758306D1*
X2812401D1*
X2272164Y954122D2*
Y915876D1*
X2274540Y908690D1*
X2276972Y906314D1*
X2281726Y903882D1*
X2286534D1*
X2291287Y906314D1*
X2293664Y908690D1*
X2296096Y915876D1*
Y920629D1*
X2256725Y944505D2*
X2251916Y946937D1*
X2244731Y954067D1*
Y903882D1*
X1230965Y2685428D2*
Y2647181D1*
X1233342Y2639996D1*
X1235773Y2637620D1*
X1240527Y2635188D1*
X1245335D1*
X1250088Y2637620D1*
X1252465Y2639996D1*
X1254897Y2647181D1*
Y2651934D1*
X1213094Y2673434D2*
Y2675811D1*
X1210717Y2680619D1*
X1208341Y2682996D1*
X1203532Y2685373D1*
X1193971D1*
X1189217Y2682996D1*
X1186841Y2680619D1*
X1184409Y2675811D1*
Y2671058D1*
X1186841Y2666249D1*
X1191594Y2659120D1*
X1215526Y2635188D1*
X1182032D1*
X4174705Y2735428D2*
Y2697181D1*
X4177082Y2689996D1*
X4179514Y2687620D1*
X4184267Y2685188D1*
X4189075D1*
X4193828Y2687620D1*
X4196205Y2689996D1*
X4198637Y2697181D1*
Y2701934D1*
X4154457Y2735373D2*
X4128204D1*
X4142519Y2716249D1*
X4135334D1*
X4130581Y2713873D1*
X4128204Y2711496D1*
X4125773Y2704311D1*
Y2699558D1*
X4128204Y2692373D1*
X4132958Y2687564D1*
X4140143Y2685188D1*
X4147328D1*
X4154457Y2687564D1*
X4156834Y2689996D1*
X4159266Y2694749D1*
X2150630Y2196348D2*
Y2158101D1*
X2153007Y2150916D1*
X2155439Y2148540D1*
X2160192Y2146108D1*
X2165000D1*
X2169754Y2148540D1*
X2172130Y2150916D1*
X2174562Y2158101D1*
Y2162854D1*
X2106506Y2196292D2*
X2130383D1*
X2132759Y2174793D1*
X2130383Y2177169D1*
X2123198Y2179601D1*
X2116068D1*
X2108883Y2177169D1*
X2104074Y2172416D1*
X2101698Y2165231D1*
Y2160478D1*
X2104074Y2153293D1*
X2108883Y2148484D1*
X2116068Y2146108D1*
X2123198D1*
X2130383Y2148484D1*
X2132759Y2150916D1*
X2135191Y2155669D1*
X560989Y2997928D2*
Y2959681D1*
X563366Y2952496D1*
X565798Y2950120D1*
X570551Y2947688D1*
X575359D1*
X580112Y2950120D1*
X582489Y2952496D1*
X584921Y2959681D1*
Y2964434D1*
X516865Y2990743D2*
X519242Y2995496D1*
X526427Y2997873D1*
X531180D1*
X538365Y2995496D1*
X543173Y2988311D1*
X545550Y2976373D1*
Y2964434D1*
X543173Y2954873D1*
X538365Y2950064D1*
X531180Y2947688D1*
X528803D1*
X521674Y2950064D1*
X516865Y2954873D1*
X514489Y2962058D1*
Y2964434D1*
X516865Y2971620D1*
X521674Y2976373D1*
X528803Y2978749D1*
X531180D1*
X538365Y2976373D1*
X543173Y2971620D1*
X545550Y2964434D1*
X4091189Y851346D2*
Y801106D1*
X4062504D1*
X4047065Y841730D2*
X4042256Y844161D1*
X4035071Y851291D1*
Y801106D1*
X3553513Y1687883D2*
Y1637643D1*
X3524829D1*
X3506957Y1675890D2*
Y1678266D1*
X3504581Y1683075D1*
X3502204Y1685451D1*
X3497396Y1687828D1*
X3487834D1*
X3483081Y1685451D1*
X3480704Y1683075D1*
X3478273Y1678266D1*
Y1673513D1*
X3480704Y1668705D1*
X3485458Y1661575D1*
X3509389Y1637643D1*
X3475896D1*
X3376013Y3316727D2*
Y3266487D1*
X3347329D1*
X3327081Y3316672D2*
X3300828D1*
X3315143Y3297548D1*
X3307958D1*
X3303204Y3295172D1*
X3300828Y3292795D1*
X3298396Y3285610D1*
Y3280857D1*
X3300828Y3273672D1*
X3305581Y3268864D1*
X3312766Y3266487D1*
X3319951D1*
X3327081Y3268864D1*
X3329457Y3271295D1*
X3331889Y3276049D1*
X2585438Y3073166D2*
X2635678D1*
Y3044481D1*
Y3005111D2*
X2585494D1*
X2618932Y3029042D1*
Y2993172D1*
X1240261Y841622D2*
Y791382D1*
X1211576D1*
X1162644Y834437D2*
X1167397Y839245D1*
X1174582Y841622D1*
X1184144D1*
X1191329Y839245D1*
X1196137Y834437D1*
Y829684D1*
X1193705Y824875D1*
X1191329Y822499D1*
X1186576Y820122D1*
X1172205Y815314D1*
X1167397Y812937D1*
X1165020Y810505D1*
X1162644Y805752D1*
Y798567D1*
X1167397Y793814D1*
X1174582Y791382D1*
X1184144D1*
X1191329Y793814D1*
X1196137Y798567D1*
X1147205Y832005D2*
X1142396Y834437D1*
X1135211Y841567D1*
Y791382D1*
X2892552Y1335414D2*
X2897305Y1333093D1*
X2902114Y1328284D1*
X2904491Y1323476D1*
X2906922Y1316291D1*
Y1304353D1*
X2904491Y1297168D1*
X2902114Y1292414D1*
X2897305Y1287606D1*
X2892552Y1285229D1*
X2882991D1*
X2878182Y1287606D1*
X2873429Y1292414D1*
X2871052Y1297168D1*
X2868621Y1304353D1*
Y1316291D1*
X2871052Y1323476D1*
X2873429Y1328284D1*
X2878182Y1333093D1*
X2882991Y1335414D1*
X2892552D1*
X2885367Y1294791D2*
X2871052Y1280421D1*
X2853181Y1325797D2*
X2848373Y1328229D1*
X2841188Y1335359D1*
Y1285174D1*
X3236861Y1047093D2*
X3241614Y1044772D1*
X3246423Y1039964D1*
X3248799Y1035155D1*
X3251231Y1027970D1*
Y1016032D1*
X3248799Y1008847D1*
X3246423Y1004094D1*
X3241614Y999285D1*
X3236861Y996909D1*
X3227300D1*
X3222491Y999285D1*
X3217738Y1004094D1*
X3215361Y1008847D1*
X3212930Y1016032D1*
Y1027970D1*
X3215361Y1035155D1*
X3217738Y1039964D1*
X3222491Y1044772D1*
X3227300Y1047093D1*
X3236861D1*
X3229676Y1006470D2*
X3215361Y992100D1*
X3195058Y1035100D2*
Y1037476D1*
X3192682Y1042285D1*
X3190305Y1044661D1*
X3185497Y1047038D1*
X3175935D1*
X3171182Y1044661D1*
X3168805Y1042285D1*
X3166374Y1037476D1*
Y1032723D1*
X3168805Y1027915D1*
X3173559Y1020785D1*
X3197490Y996853D1*
X3163997D1*
X1942377Y1710520D2*
X1947130Y1708199D1*
X1951939Y1703391D1*
X1954315Y1698582D1*
X1956747Y1691397D1*
Y1679459D1*
X1954315Y1672274D1*
X1951939Y1667521D1*
X1947130Y1662712D1*
X1942377Y1660336D1*
X1932815D1*
X1928007Y1662712D1*
X1923254Y1667521D1*
X1920877Y1672274D1*
X1918445Y1679459D1*
Y1691397D1*
X1920877Y1698582D1*
X1923254Y1703391D1*
X1928007Y1708199D1*
X1932815Y1710520D1*
X1942377D1*
X1935192Y1669897D2*
X1920877Y1655527D1*
X1898198Y1710465D2*
X1871945D1*
X1886259Y1691342D1*
X1879074D1*
X1874321Y1688965D1*
X1871945Y1686589D1*
X1869513Y1679404D1*
Y1674650D1*
X1871945Y1667465D1*
X1876698Y1662657D1*
X1883883Y1660280D1*
X1891068D1*
X1898198Y1662657D1*
X1900574Y1665089D1*
X1903006Y1669842D1*
X1618565Y1285522D2*
X1623319Y1283200D1*
X1628127Y1278392D1*
X1630504Y1273583D1*
X1632935Y1266398D1*
Y1254460D1*
X1630504Y1247275D1*
X1628127Y1242522D1*
X1623319Y1237713D1*
X1618565Y1235337D1*
X1609004D1*
X1604195Y1237713D1*
X1599442Y1242522D1*
X1597065Y1247275D1*
X1594634Y1254460D1*
Y1266398D1*
X1597065Y1273583D1*
X1599442Y1278392D1*
X1604195Y1283200D1*
X1609004Y1285522D1*
X1618565D1*
X1611380Y1244899D2*
X1597065Y1230528D1*
X1555263Y1235282D2*
Y1285466D1*
X1579194Y1252028D1*
X1543324D1*
X2795176Y3438774D2*
X2799929Y3436453D1*
X2804738Y3431644D1*
X2807114Y3426836D1*
X2809546Y3419651D1*
Y3407713D1*
X2807114Y3400528D1*
X2804738Y3395775D1*
X2799929Y3390966D1*
X2795176Y3388590D1*
X2785615D1*
X2780806Y3390966D1*
X2776053Y3395775D1*
X2773676Y3400528D1*
X2771245Y3407713D1*
Y3419651D1*
X2773676Y3426836D1*
X2776053Y3431644D1*
X2780806Y3436453D1*
X2785615Y3438774D1*
X2795176D1*
X2787991Y3398151D2*
X2773676Y3383781D1*
X2727120Y3438719D2*
X2750997D1*
X2753373Y3417219D1*
X2750997Y3419596D1*
X2743812Y3422028D1*
X2736682D1*
X2729497Y3419596D1*
X2724689Y3414843D1*
X2722312Y3407658D1*
Y3402904D1*
X2724689Y3395719D1*
X2729497Y3390911D1*
X2736682Y3388534D1*
X2743812D1*
X2750997Y3390911D1*
X2753373Y3393343D1*
X2755805Y3398096D1*
X3908839Y903586D2*
Y882087D1*
X3906407Y874902D1*
X3904030Y872470D1*
X3899277Y870093D1*
X3894469D1*
X3889715Y872470D1*
X3887283Y874902D1*
X3884907Y882087D1*
Y903586D1*
X3935147D1*
X3908839Y886840D2*
X3935147Y870093D1*
X3894524Y854654D2*
X3892092Y849845D1*
X3884962Y842660D1*
X3935147D1*
X3758839Y914336D2*
Y892837D1*
X3756407Y885651D1*
X3754030Y883220D1*
X3749277Y880843D1*
X3744469D1*
X3739715Y883220D1*
X3737283Y885652D1*
X3734907Y892837D1*
Y914336D1*
X3785147D1*
X3758839Y897590D2*
X3785147Y880843D1*
X3746900Y862972D2*
X3744524D1*
X3739715Y860595D1*
X3737339Y858219D1*
X3734962Y853410D1*
Y843849D1*
X3737339Y839096D1*
X3739715Y836719D1*
X3744524Y834287D1*
X3749277D1*
X3754085Y836719D1*
X3761215Y841472D1*
X3785147Y865404D1*
Y831911D1*
X3077768Y1200840D2*
X3056268D1*
X3049083Y1203272D1*
X3046651Y1205648D1*
X3044275Y1210402D1*
Y1215210D1*
X3046651Y1219963D1*
X3049083Y1222395D1*
X3056268Y1224772D1*
X3077768D1*
Y1174532D1*
X3061021Y1200840D2*
X3044275Y1174532D1*
X3024027Y1224716D2*
X2997774D1*
X3012089Y1205593D1*
X3004904D1*
X3000151Y1203217D1*
X2997774Y1200840D1*
X2995342Y1193655D1*
Y1188902D1*
X2997774Y1181717D1*
X3002527Y1176908D1*
X3009712Y1174532D1*
X3016897D1*
X3024027Y1176908D1*
X3026404Y1179340D1*
X3028835Y1184093D1*
X2705000Y1148504D2*
X2683500D1*
X2676315Y1150936D1*
X2673883Y1153312D1*
X2671506Y1158066D1*
Y1162874D1*
X2673883Y1167627D1*
X2676315Y1170059D1*
X2683500Y1172436D1*
X2705000D1*
Y1122196D1*
X2688253Y1148504D2*
X2671506Y1122196D1*
X2632135D2*
Y1172380D1*
X2656067Y1138942D1*
X2620197D1*
X3183839Y764336D2*
Y742837D1*
X3181407Y735651D1*
X3179030Y733220D1*
X3174277Y730843D1*
X3169469D1*
X3164715Y733220D1*
X3162283Y735652D1*
X3159907Y742837D1*
Y764336D1*
X3210147D1*
X3183839Y747590D2*
X3210147Y730843D1*
X3159962Y686719D2*
Y710595D1*
X3181462Y712972D1*
X3179085Y710595D1*
X3176654Y703410D1*
Y696281D1*
X3179085Y689096D1*
X3183839Y684287D1*
X3191024Y681911D1*
X3195777D1*
X3202962Y684287D1*
X3207770Y689096D1*
X3210147Y696281D1*
Y703410D1*
X3207770Y710595D1*
X3205338Y712972D1*
X3200585Y715404D1*
X2283839Y1263122D2*
Y1241622D1*
X2281407Y1234437D1*
X2279030Y1232005D1*
X2274277Y1229628D1*
X2269469D1*
X2264715Y1232005D1*
X2262283Y1234437D1*
X2259907Y1241622D1*
Y1263122D1*
X2310147D1*
X2283839Y1246375D2*
X2310147Y1229628D1*
X2267092Y1185504D2*
X2262339Y1187881D1*
X2259962Y1195066D1*
Y1199819D1*
X2262339Y1207004D1*
X2269524Y1211813D1*
X2281462Y1214189D1*
X2293400D1*
X2302962Y1211813D1*
X2307770Y1207004D1*
X2310147Y1199819D1*
Y1197443D1*
X2307770Y1190313D1*
X2302962Y1185504D1*
X2295777Y1183128D1*
X2293400D1*
X2286215Y1185504D1*
X2281462Y1190313D1*
X2279085Y1197443D1*
Y1199819D1*
X2281462Y1207004D1*
X2286215Y1211813D1*
X2293400Y1214189D1*
X2108839Y1264338D2*
Y1242838D1*
X2106407Y1235653D1*
X2104030Y1233221D1*
X2099277Y1230844D1*
X2094469D1*
X2089715Y1233221D1*
X2087283Y1235653D1*
X2084907Y1242838D1*
Y1264338D1*
X2135147D1*
X2108839Y1247591D2*
X2135147Y1230844D1*
Y1205843D2*
X2084962Y1181912D1*
Y1215405D1*
X1858839Y1264310D2*
Y1242810D1*
X1856407Y1235625D1*
X1854030Y1233193D1*
X1849277Y1230817D1*
X1844469D1*
X1839715Y1233193D1*
X1837283Y1235625D1*
X1834907Y1242810D1*
Y1264310D1*
X1885147D1*
X1858839Y1247563D2*
X1885147Y1230817D1*
X1834962Y1203439D2*
X1837339Y1210569D1*
X1842092Y1213001D1*
X1846900D1*
X1851654Y1210569D1*
X1854085Y1205816D1*
X1856462Y1196254D1*
X1858839Y1189069D1*
X1863647Y1184316D1*
X1868400Y1181939D1*
X1875585D1*
X1880338Y1184316D1*
X1882770Y1186693D1*
X1885147Y1193878D1*
Y1203439D1*
X1882770Y1210569D1*
X1880338Y1213001D1*
X1875585Y1215377D1*
X1868400D1*
X1863647Y1213001D1*
X1858839Y1208192D1*
X1856462Y1201063D1*
X1854085Y1191501D1*
X1851654Y1186693D1*
X1846900Y1184316D1*
X1842092D1*
X1837339Y1186693D1*
X1834962Y1193878D1*
Y1203439D1*
X1758839Y1263149D2*
Y1241650D1*
X1756407Y1234465D1*
X1754030Y1232033D1*
X1749277Y1229656D1*
X1744469D1*
X1739715Y1232033D1*
X1737283Y1234465D1*
X1734907Y1241650D1*
Y1263149D1*
X1785147D1*
X1758839Y1246403D2*
X1785147Y1229656D1*
X1751654Y1183100D2*
X1758839Y1185532D1*
X1763647Y1190285D1*
X1766024Y1197470D1*
Y1199847D1*
X1763647Y1207032D1*
X1758839Y1211785D1*
X1751654Y1214217D1*
X1749277D1*
X1742092Y1211785D1*
X1737339Y1207032D1*
X1734962Y1199847D1*
Y1197470D1*
X1737339Y1190285D1*
X1742092Y1185532D1*
X1751654Y1183100D1*
X1763647D1*
X1775585Y1185532D1*
X1782770Y1190285D1*
X1785147Y1197470D1*
Y1202223D1*
X1782770Y1209408D1*
X1777962Y1211785D1*
X1808839Y1928054D2*
Y1906554D1*
X1806407Y1899369D1*
X1804030Y1896937D1*
X1799277Y1894561D1*
X1794469D1*
X1789715Y1896937D1*
X1787283Y1899369D1*
X1784907Y1906554D1*
Y1928054D1*
X1835147D1*
X1808839Y1911307D2*
X1835147Y1894561D1*
X1794524Y1879121D2*
X1792092Y1874313D1*
X1784962Y1867128D1*
X1835147D1*
X1784962Y1837319D2*
X1787339Y1844504D1*
X1794524Y1849312D1*
X1806462Y1851689D1*
X1813647D1*
X1825585Y1849312D1*
X1832770Y1844504D1*
X1835147Y1837319D1*
Y1832566D1*
X1832770Y1825381D1*
X1825585Y1820627D1*
X1813647Y1818195D1*
X1806462D1*
X1794524Y1820627D1*
X1787339Y1825381D1*
X1784962Y1832566D1*
Y1837319D1*
X1794524Y1820627D2*
X1825585Y1849312D1*
X832309Y1802416D2*
X810809D1*
X803624Y1804848D1*
X801193Y1807224D1*
X798816Y1811978D1*
Y1816786D1*
X801193Y1821539D1*
X803624Y1823971D1*
X810809Y1826348D1*
X832309D1*
Y1776108D1*
X815563Y1802416D2*
X798816Y1776108D1*
X783377Y1816731D2*
X778568Y1819163D1*
X771383Y1826292D1*
Y1776108D1*
X755944Y1816731D2*
X751136Y1819163D1*
X743951Y1826292D1*
Y1776108D1*
X1608839Y1528054D2*
Y1506554D1*
X1606407Y1499369D1*
X1604030Y1496937D1*
X1599277Y1494561D1*
X1594469D1*
X1589715Y1496937D1*
X1587283Y1499369D1*
X1584907Y1506554D1*
Y1528054D1*
X1635147D1*
X1608839Y1511307D2*
X1635147Y1494561D1*
X1594524Y1479121D2*
X1592092Y1474313D1*
X1584962Y1467128D1*
X1635147D1*
X1596900Y1449257D2*
X1594524D1*
X1589715Y1446880D1*
X1587339Y1444504D1*
X1584962Y1439695D1*
Y1430134D1*
X1587339Y1425381D1*
X1589715Y1423004D1*
X1594524Y1420572D1*
X1599277D1*
X1604085Y1423004D1*
X1611215Y1427757D1*
X1635147Y1451689D1*
Y1418195D1*
X1508839Y1528054D2*
Y1506554D1*
X1506407Y1499369D1*
X1504030Y1496937D1*
X1499277Y1494561D1*
X1494469D1*
X1489715Y1496937D1*
X1487283Y1499369D1*
X1484907Y1506554D1*
Y1528054D1*
X1535147D1*
X1508839Y1511307D2*
X1535147Y1494561D1*
X1494524Y1479121D2*
X1492092Y1474313D1*
X1484962Y1467128D1*
X1535147D1*
X1484962Y1446880D2*
Y1420627D1*
X1504085Y1434942D1*
Y1427757D1*
X1506462Y1423004D1*
X1508839Y1420627D1*
X1516024Y1418195D1*
X1520777D1*
X1527962Y1420627D1*
X1532770Y1425381D1*
X1535147Y1432566D1*
Y1439751D1*
X1532770Y1446880D1*
X1530338Y1449257D1*
X1525585Y1451689D1*
X4063204Y2246929D2*
X4041704D1*
X4034519Y2249361D1*
X4032087Y2251738D1*
X4029711Y2256491D1*
Y2261299D1*
X4032087Y2266052D1*
X4034519Y2268484D1*
X4041704Y2270861D1*
X4063204D1*
Y2220621D1*
X4046458Y2246929D2*
X4029711Y2220621D1*
X4014272Y2261244D2*
X4009463Y2263676D1*
X4002278Y2270806D1*
Y2220621D1*
X3962907D2*
Y2270806D1*
X3986839Y2237368D1*
X3950969D1*
X4062016Y2146929D2*
X4040516D1*
X4033331Y2149361D1*
X4030899Y2151738D1*
X4028523Y2156491D1*
Y2161299D1*
X4030899Y2166052D1*
X4033331Y2168484D1*
X4040516Y2170861D1*
X4062016D1*
Y2120621D1*
X4045269Y2146929D2*
X4028523Y2120621D1*
X4013083Y2161244D2*
X4008275Y2163676D1*
X4001090Y2170806D1*
Y2120621D1*
X3956966Y2170806D2*
X3980842D1*
X3983219Y2149306D1*
X3980842Y2151682D1*
X3973657Y2154114D1*
X3966527D1*
X3959342Y2151682D1*
X3954534Y2146929D1*
X3952157Y2139744D1*
Y2134991D1*
X3954534Y2127806D1*
X3959342Y2122997D1*
X3966527Y2120621D1*
X3973657D1*
X3980842Y2122997D1*
X3983219Y2125429D1*
X3985651Y2130182D1*
X1095886Y2478517D2*
Y2457017D1*
X1093454Y2449832D1*
X1091077Y2447400D1*
X1086324Y2445023D1*
X1081516D1*
X1076763Y2447400D1*
X1074331Y2449832D1*
X1071954Y2457017D1*
Y2478517D1*
X1122194D1*
X1095886Y2461770D2*
X1122194Y2445023D1*
X1081571Y2429584D2*
X1079139Y2424776D1*
X1072009Y2417591D1*
X1122194Y2417590D1*
X1079139Y2373466D2*
X1074386Y2375843D1*
X1072009Y2383028D1*
Y2387781D1*
X1074386Y2394966D1*
X1081571Y2399775D1*
X1093509Y2402151D1*
X1105447D1*
X1115009Y2399775D1*
X1119818Y2394966D1*
X1122194Y2387781D1*
Y2385405D1*
X1119818Y2378275D1*
X1115009Y2373466D1*
X1107824Y2371090D1*
X1105447D1*
X1098262Y2373466D1*
X1093509Y2378275D1*
X1091133Y2385405D1*
Y2387781D1*
X1093509Y2394966D1*
X1098262Y2399775D1*
X1105447Y2402151D1*
X1804536Y2866024D2*
X1783036D1*
X1775851Y2868456D1*
X1773419Y2870832D1*
X1771042Y2875585D1*
Y2880394D1*
X1773419Y2885147D1*
X1775851Y2887579D1*
X1783036Y2889955D1*
X1804536D1*
Y2839715D1*
X1787789Y2866024D2*
X1771042Y2839715D1*
X1755603Y2880338D2*
X1750795Y2882770D1*
X1743610Y2889900D1*
Y2839715D1*
X1718609D2*
X1694677Y2889900D1*
X1728170D1*
X1829705Y2516024D2*
X1808205D1*
X1801020Y2518456D1*
X1798588Y2520832D1*
X1796212Y2525585D1*
Y2530394D1*
X1798588Y2535147D1*
X1801020Y2537579D1*
X1808205Y2539955D1*
X1829705D1*
Y2489715D1*
X1812958Y2516024D2*
X1796212Y2489715D1*
X1780772Y2530338D2*
X1775964Y2532770D1*
X1768779Y2539900D1*
Y2489715D1*
X1741401Y2539900D2*
X1748531Y2537524D1*
X1750963Y2532770D1*
Y2527962D1*
X1748531Y2523209D1*
X1743778Y2520777D1*
X1734216Y2518400D1*
X1727031Y2516024D1*
X1722278Y2511215D1*
X1719901Y2506462D1*
Y2499277D1*
X1722278Y2494524D1*
X1724655Y2492092D1*
X1731840Y2489715D1*
X1741401D1*
X1748531Y2492092D1*
X1750963Y2494524D1*
X1753340Y2499277D1*
Y2506462D1*
X1750963Y2511215D1*
X1746154Y2516024D1*
X1739025Y2518400D1*
X1729463Y2520777D1*
X1724655Y2523209D1*
X1722278Y2527962D1*
Y2532770D1*
X1724655Y2537524D1*
X1731840Y2539900D1*
X1741401D1*
X1965847Y2653524D2*
X1944347D1*
X1937162Y2655956D1*
X1934731Y2658332D1*
X1932354Y2663085D1*
Y2667894D1*
X1934731Y2672647D1*
X1937162Y2675079D1*
X1944347Y2677455D1*
X1965847D1*
Y2627215D1*
X1949101Y2653524D2*
X1932354Y2627215D1*
X1916915Y2667838D2*
X1912106Y2670270D1*
X1904921Y2677400D1*
Y2627215D1*
X1858365Y2660709D2*
X1860797Y2653524D1*
X1865550Y2648715D1*
X1872735Y2646339D1*
X1875112D1*
X1882297Y2648715D1*
X1887050Y2653524D1*
X1889482Y2660709D1*
Y2663085D1*
X1887050Y2670270D1*
X1882297Y2675024D1*
X1875112Y2677400D1*
X1872735D1*
X1865550Y2675024D1*
X1860797Y2670270D1*
X1858365Y2660709D1*
Y2648715D1*
X1860797Y2636777D1*
X1865550Y2629592D1*
X1872735Y2627215D1*
X1877489D1*
X1884674Y2629592D1*
X1887050Y2634400D1*
X1020886Y2777786D2*
Y2756286D1*
X1018454Y2749101D1*
X1016077Y2746669D1*
X1011324Y2744292D1*
X1006516D1*
X1001763Y2746669D1*
X999331Y2749101D1*
X996954Y2756286D1*
Y2777786D1*
X1047194D1*
X1020886Y2761039D2*
X1047194Y2744292D1*
X1008948Y2726421D2*
X1006571D1*
X1001763Y2724045D1*
X999386Y2721668D1*
X997009Y2716860D1*
Y2707298D1*
X999386Y2702545D1*
X1001763Y2700168D1*
X1006571Y2697736D1*
X1011324D1*
X1016133Y2700168D1*
X1023262Y2704921D1*
X1047194Y2728853D1*
Y2695360D1*
X997009Y2665550D2*
X999386Y2672735D1*
X1006571Y2677544D1*
X1018509Y2679920D1*
X1025694D1*
X1037633Y2677544D1*
X1044818Y2672735D1*
X1047194Y2665550D1*
Y2660797D1*
X1044818Y2653612D1*
X1037632Y2648859D1*
X1025694Y2646427D1*
X1018509D1*
X1006571Y2648859D1*
X999386Y2653612D1*
X997009Y2660797D1*
Y2665550D1*
X1006571Y2648859D2*
X1037633Y2677544D1*
X1095886Y3077982D2*
Y3056483D1*
X1093454Y3049298D1*
X1091077Y3046866D1*
X1086324Y3044489D1*
X1081516D1*
X1076763Y3046866D1*
X1074331Y3049298D1*
X1071954Y3056483D1*
Y3077982D1*
X1122194D1*
X1095886Y3061236D2*
X1122194Y3044489D1*
X1083948Y3026618D2*
X1081571D1*
X1076763Y3024241D1*
X1074386Y3021865D1*
X1072009Y3017056D1*
Y3007495D1*
X1074386Y3002742D1*
X1076763Y3000365D1*
X1081571Y2997933D1*
X1086324D1*
X1091133Y3000365D1*
X1098262Y3005118D1*
X1122194Y3029050D1*
Y2995556D1*
X1072009Y2975309D2*
Y2949056D1*
X1091133Y2963371D1*
Y2956186D1*
X1093509Y2951432D1*
X1095886Y2949056D1*
X1103071Y2946624D1*
X1107824D1*
X1115009Y2949056D1*
X1119818Y2953809D1*
X1122194Y2960994D1*
Y2968179D1*
X1119818Y2975309D1*
X1117386Y2977685D1*
X1112633Y2980117D1*
X2878974Y2653524D2*
X2857474D1*
X2850289Y2655956D1*
X2847857Y2658332D1*
X2845481Y2663085D1*
Y2667894D1*
X2847857Y2672647D1*
X2850289Y2675079D1*
X2857474Y2677455D1*
X2878974D1*
Y2627215D1*
X2862227Y2653524D2*
X2845481Y2627215D1*
X2827609Y2665462D2*
Y2667838D1*
X2825233Y2672647D1*
X2822856Y2675024D1*
X2818048Y2677400D1*
X2808486D1*
X2803733Y2675024D1*
X2801356Y2672647D1*
X2798925Y2667838D1*
Y2663085D1*
X2801356Y2658277D1*
X2806110Y2651147D1*
X2830041Y2627215D1*
X2796548D1*
X2757177D2*
Y2677400D1*
X2781109Y2643962D1*
X2745239D1*
X2940482Y2966024D2*
X2918983D1*
X2911798Y2968456D1*
X2909366Y2970832D1*
X2906989Y2975585D1*
Y2980394D1*
X2909366Y2985147D1*
X2911798Y2987579D1*
X2918983Y2989955D1*
X2940482D1*
Y2939715D1*
X2923736Y2966024D2*
X2906989Y2939715D1*
X2889118Y2977962D2*
Y2980338D1*
X2886741Y2985147D1*
X2884365Y2987524D1*
X2879556Y2989900D1*
X2869995D1*
X2865242Y2987524D1*
X2862865Y2985147D1*
X2860433Y2980338D1*
Y2975585D1*
X2862865Y2970777D1*
X2867618Y2963647D1*
X2891550Y2939715D1*
X2858056D1*
X2813932Y2989900D2*
X2837809D1*
X2840185Y2968400D1*
X2837809Y2970777D1*
X2830624Y2973209D1*
X2823494D1*
X2816309Y2970777D1*
X2811500Y2966024D1*
X2809124Y2958839D1*
Y2954085D1*
X2811500Y2946900D1*
X2816309Y2942092D1*
X2823494Y2939715D1*
X2830624D1*
X2837809Y2942092D1*
X2840185Y2944524D1*
X2842617Y2949277D1*
X2708386Y3790286D2*
Y3768786D1*
X2705954Y3761601D1*
X2703577Y3759169D1*
X2698824Y3756792D1*
X2694016D1*
X2689263Y3759169D1*
X2686831Y3761601D1*
X2684454Y3768786D1*
Y3790286D1*
X2734694D1*
X2708386Y3773539D2*
X2734694Y3756792D1*
X2696448Y3738921D2*
X2694071D1*
X2689263Y3736545D1*
X2686886Y3734168D1*
X2684509Y3729360D1*
Y3719798D1*
X2686886Y3715045D1*
X2689263Y3712668D1*
X2694071Y3710236D1*
X2698824D1*
X2703633Y3712668D1*
X2710762Y3717421D1*
X2734694Y3741353D1*
Y3707860D1*
Y3682859D2*
X2684509Y3658927D1*
Y3692420D1*
X2815258Y3291024D2*
X2793758D1*
X2786573Y3293456D1*
X2784141Y3295832D1*
X2781765Y3300585D1*
Y3305394D1*
X2784141Y3310147D1*
X2786573Y3312579D1*
X2793758Y3314955D1*
X2815258D1*
Y3264715D1*
X2798511Y3291024D2*
X2781765Y3264715D1*
X2763893Y3302962D2*
Y3305338D1*
X2761517Y3310147D1*
X2759140Y3312524D1*
X2754332Y3314900D1*
X2744770D1*
X2740017Y3312524D1*
X2737640Y3310147D1*
X2735209Y3305338D1*
Y3300585D1*
X2737640Y3295777D1*
X2742394Y3288647D1*
X2766325Y3264715D1*
X2732832D1*
X2705455Y3314900D2*
X2712584Y3312524D1*
X2715016Y3307770D1*
Y3302962D1*
X2712584Y3298209D1*
X2707831Y3295777D1*
X2698269Y3293400D1*
X2691084Y3291024D1*
X2686331Y3286215D1*
X2683955Y3281462D1*
Y3274277D1*
X2686331Y3269524D1*
X2688708Y3267092D1*
X2695893Y3264715D1*
X2705455D1*
X2712584Y3267092D1*
X2715016Y3269524D1*
X2717393Y3274277D1*
Y3281462D1*
X2715016Y3286215D1*
X2710208Y3291024D1*
X2703078Y3293400D1*
X2693516Y3295777D1*
X2688708Y3298209D1*
X2686331Y3302962D1*
Y3307770D1*
X2688708Y3312524D1*
X2695893Y3314900D1*
X2705455D1*
X2283839Y2062616D2*
Y2041116D1*
X2281407Y2033931D1*
X2279030Y2031499D1*
X2274277Y2029122D1*
X2269469D1*
X2264715Y2031499D1*
X2262283Y2033931D1*
X2259907Y2041116D1*
Y2062616D1*
X2310147D1*
X2283839Y2045869D2*
X2310147Y2029122D1*
X2271900Y2011251D2*
X2269524D1*
X2264715Y2008875D1*
X2262339Y2006498D1*
X2259962Y2001690D1*
Y1992128D1*
X2262339Y1987375D1*
X2264715Y1984998D1*
X2269524Y1982566D1*
X2274277D1*
X2279085Y1984998D1*
X2286215Y1989751D1*
X2310147Y2013683D1*
Y1980190D1*
X2276654Y1933634D2*
X2283839Y1936066D1*
X2288647Y1940819D1*
X2291024Y1948004D1*
Y1950380D1*
X2288647Y1957566D1*
X2283839Y1962319D1*
X2276654Y1964751D1*
X2274277D1*
X2267092Y1962319D1*
X2262339Y1957566D1*
X2259962Y1950381D1*
Y1948004D1*
X2262339Y1940819D1*
X2267092Y1936066D1*
X2276654Y1933634D1*
X2288647D1*
X2300585Y1936066D1*
X2307770Y1940819D1*
X2310147Y1948004D1*
Y1952757D1*
X2307770Y1959942D1*
X2302962Y1962319D1*
X2383839Y2063804D2*
Y2042304D1*
X2381407Y2035119D1*
X2379030Y2032687D1*
X2374277Y2030311D1*
X2369469D1*
X2364715Y2032687D1*
X2362283Y2035119D1*
X2359907Y2042304D1*
Y2063804D1*
X2410147D1*
X2383839Y2047057D2*
X2410147Y2030311D1*
X2359962Y2010063D2*
Y1983810D1*
X2379085Y1998125D1*
Y1990940D1*
X2381462Y1986187D1*
X2383839Y1983810D1*
X2391024Y1981378D1*
X2395777D1*
X2402962Y1983810D1*
X2407770Y1988563D1*
X2410147Y1995748D1*
Y2002933D1*
X2407770Y2010063D1*
X2405338Y2012439D1*
X2400585Y2014871D1*
X2359962Y1951569D2*
X2362339Y1958754D1*
X2369524Y1963562D1*
X2381462Y1965939D1*
X2388647D1*
X2400585Y1963562D1*
X2407770Y1958754D1*
X2410147Y1951569D1*
Y1946816D1*
X2407770Y1939631D1*
X2400585Y1934877D1*
X2388647Y1932446D1*
X2381462D1*
X2369524Y1934877D1*
X2362339Y1939631D1*
X2359962Y1946816D1*
Y1951569D1*
X2369524Y1934877D2*
X2400585Y1963562D1*
X2483839Y2053054D2*
Y2031554D1*
X2481407Y2024369D1*
X2479030Y2021937D1*
X2474277Y2019561D1*
X2469469D1*
X2464715Y2021937D1*
X2462283Y2024369D1*
X2459907Y2031554D1*
Y2053054D1*
X2510147D1*
X2483839Y2036307D2*
X2510147Y2019561D1*
X2459962Y1999313D2*
Y1973060D1*
X2479085Y1987375D1*
Y1980190D1*
X2481462Y1975437D1*
X2483839Y1973060D1*
X2491024Y1970628D1*
X2495777D1*
X2502962Y1973060D1*
X2507770Y1977813D1*
X2510147Y1984998D1*
Y1992183D1*
X2507770Y1999313D1*
X2505338Y2001690D1*
X2500585Y2004121D1*
X2469524Y1955189D2*
X2467092Y1950381D1*
X2459962Y1943195D1*
X2510147D1*
X2583839Y2063804D2*
Y2042304D1*
X2581407Y2035119D1*
X2579030Y2032687D1*
X2574277Y2030311D1*
X2569469D1*
X2564715Y2032687D1*
X2562283Y2035119D1*
X2559907Y2042304D1*
Y2063804D1*
X2610147D1*
X2583839Y2047057D2*
X2610147Y2030311D1*
X2559962Y2010063D2*
Y1983810D1*
X2579085Y1998125D1*
Y1990940D1*
X2581462Y1986187D1*
X2583839Y1983810D1*
X2591024Y1981378D1*
X2595777D1*
X2602962Y1983810D1*
X2607770Y1988563D1*
X2610147Y1995748D1*
Y2002933D1*
X2607770Y2010063D1*
X2605338Y2012439D1*
X2600585Y2014871D1*
X2571900Y1963507D2*
X2569524D1*
X2564715Y1961130D1*
X2562339Y1958754D1*
X2559962Y1953945D1*
Y1944384D1*
X2562339Y1939631D1*
X2564715Y1937254D1*
X2569524Y1934822D1*
X2574277D1*
X2579085Y1937254D1*
X2586215Y1942007D1*
X2610147Y1965939D1*
Y1932446D1*
X2683839Y2063804D2*
Y2042304D1*
X2681407Y2035119D1*
X2679030Y2032687D1*
X2674277Y2030311D1*
X2669469D1*
X2664715Y2032687D1*
X2662283Y2035119D1*
X2659907Y2042304D1*
Y2063804D1*
X2710147D1*
X2683839Y2047057D2*
X2710147Y2030311D1*
X2659962Y2010063D2*
Y1983810D1*
X2679085Y1998125D1*
Y1990940D1*
X2681462Y1986187D1*
X2683839Y1983810D1*
X2691024Y1981378D1*
X2695777D1*
X2702962Y1983810D1*
X2707770Y1988563D1*
X2710147Y1995748D1*
Y2002933D1*
X2707770Y2010063D1*
X2705338Y2012439D1*
X2700585Y2014871D1*
X2659962Y1961130D2*
Y1934877D1*
X2679085Y1949192D1*
Y1942007D1*
X2681462Y1937254D1*
X2683839Y1934877D1*
X2691024Y1932446D1*
X2695777D1*
X2702962Y1934877D1*
X2707770Y1939631D1*
X2710147Y1946816D1*
Y1954001D1*
X2707770Y1961130D1*
X2705338Y1963507D1*
X2700585Y1965939D1*
X4247576Y2107918D2*
X4226076D1*
X4218891Y2110350D1*
X4216459Y2112726D1*
X4214083Y2117479D1*
Y2122288D1*
X4216459Y2127041D1*
X4218891Y2129473D1*
X4226076Y2131849D1*
X4247576D1*
Y2081609D1*
X4230830Y2107918D2*
X4214083Y2081609D1*
X4193835Y2131794D2*
X4167582D1*
X4181897Y2112671D1*
X4174712D1*
X4169959Y2110294D1*
X4167582Y2107918D1*
X4165150Y2100733D1*
Y2095979D1*
X4167582Y2088794D1*
X4172335Y2083986D1*
X4179520Y2081609D1*
X4186705D1*
X4193835Y2083986D1*
X4196212Y2086418D1*
X4198644Y2091171D1*
X4125779Y2081609D2*
Y2131794D1*
X4149711Y2098356D1*
X4113841D1*
X2783839Y2063804D2*
Y2042304D1*
X2781407Y2035119D1*
X2779030Y2032687D1*
X2774277Y2030311D1*
X2769469D1*
X2764715Y2032687D1*
X2762283Y2035119D1*
X2759907Y2042304D1*
Y2063804D1*
X2810147D1*
X2783839Y2047057D2*
X2810147Y2030311D1*
X2759962Y2010063D2*
Y1983810D1*
X2779085Y1998125D1*
Y1990940D1*
X2781462Y1986187D1*
X2783839Y1983810D1*
X2791024Y1981378D1*
X2795777D1*
X2802962Y1983810D1*
X2807770Y1988563D1*
X2810147Y1995748D1*
Y2002933D1*
X2807770Y2010063D1*
X2805338Y2012439D1*
X2800585Y2014871D1*
X2759962Y1937254D2*
Y1961130D1*
X2781462Y1963507D1*
X2779085Y1961130D1*
X2776654Y1953945D1*
Y1946816D1*
X2779085Y1939631D1*
X2783839Y1934822D1*
X2791024Y1932446D1*
X2795777D1*
X2802962Y1934822D1*
X2807770Y1939631D1*
X2810147Y1946816D1*
Y1953945D1*
X2807770Y1961130D1*
X2805338Y1963507D1*
X2800585Y1965939D1*
X2883839Y2062588D2*
Y2041088D1*
X2881407Y2033903D1*
X2879030Y2031471D1*
X2874277Y2029095D1*
X2869469D1*
X2864715Y2031471D1*
X2862283Y2033903D1*
X2859907Y2041088D1*
Y2062588D1*
X2910147D1*
X2883839Y2045841D2*
X2910147Y2029095D1*
X2859962Y2008847D2*
Y1982594D1*
X2879085Y1996909D1*
Y1989724D1*
X2881462Y1984971D1*
X2883839Y1982594D1*
X2891024Y1980162D1*
X2895777D1*
X2902962Y1982594D1*
X2907770Y1987347D1*
X2910147Y1994532D1*
Y2001717D1*
X2907770Y2008847D1*
X2905338Y2011224D1*
X2900585Y2013655D1*
X2867092Y1936038D2*
X2862339Y1938415D1*
X2859962Y1945600D1*
Y1950353D1*
X2862339Y1957538D1*
X2869524Y1962346D1*
X2881462Y1964723D1*
X2893400D1*
X2902962Y1962346D1*
X2907770Y1957538D1*
X2910147Y1950353D1*
Y1947976D1*
X2907770Y1940847D1*
X2902962Y1936038D1*
X2895777Y1933661D1*
X2893400D1*
X2886215Y1936038D1*
X2881462Y1940847D1*
X2879085Y1947976D1*
Y1950353D1*
X2881462Y1957538D1*
X2886215Y1962346D1*
X2893400Y1964723D1*
X2983839Y2063804D2*
Y2042304D1*
X2981407Y2035119D1*
X2979030Y2032687D1*
X2974277Y2030311D1*
X2969469D1*
X2964715Y2032687D1*
X2962283Y2035119D1*
X2959907Y2042304D1*
Y2063804D1*
X3010147D1*
X2983839Y2047057D2*
X3010147Y2030311D1*
X2959962Y2010063D2*
Y1983810D1*
X2979085Y1998125D1*
Y1990940D1*
X2981462Y1986187D1*
X2983839Y1983810D1*
X2991024Y1981378D1*
X2995777D1*
X3002962Y1983810D1*
X3007770Y1988563D1*
X3010147Y1995748D1*
Y2002933D1*
X3007770Y2010063D1*
X3005338Y2012439D1*
X3000585Y2014871D1*
X3010147Y1956377D2*
X2959962Y1932446D1*
Y1965939D1*
X3083839Y2063776D2*
Y2042276D1*
X3081407Y2035091D1*
X3079030Y2032660D1*
X3074277Y2030283D1*
X3069469D1*
X3064715Y2032660D1*
X3062283Y2035091D1*
X3059907Y2042276D1*
Y2063776D1*
X3110147D1*
X3083839Y2047030D2*
X3110147Y2030283D1*
X3059962Y2010035D2*
Y1983782D1*
X3079085Y1998097D1*
Y1990912D1*
X3081462Y1986159D1*
X3083839Y1983782D1*
X3091024Y1981350D1*
X3095777D1*
X3102962Y1983782D1*
X3107770Y1988535D1*
X3110147Y1995720D1*
Y2002905D1*
X3107770Y2010035D1*
X3105338Y2012412D1*
X3100585Y2014844D1*
X3059962Y1953973D2*
X3062339Y1961103D1*
X3067092Y1963535D1*
X3071900D1*
X3076654Y1961103D1*
X3079085Y1956350D1*
X3081462Y1946788D1*
X3083839Y1939603D1*
X3088647Y1934850D1*
X3093400Y1932473D1*
X3100585D1*
X3105338Y1934850D1*
X3107770Y1937226D1*
X3110147Y1944411D1*
Y1953973D1*
X3107770Y1961103D1*
X3105338Y1963535D1*
X3100585Y1965911D1*
X3093400D1*
X3088647Y1963535D1*
X3083839Y1958726D1*
X3081462Y1951596D1*
X3079085Y1942035D1*
X3076654Y1937226D1*
X3071900Y1934850D1*
X3067092D1*
X3062339Y1937226D1*
X3059962Y1944411D1*
Y1953973D1*
X3183839Y2062616D2*
Y2041116D1*
X3181407Y2033931D1*
X3179030Y2031499D1*
X3174277Y2029122D1*
X3169469D1*
X3164715Y2031499D1*
X3162283Y2033931D1*
X3159907Y2041116D1*
Y2062616D1*
X3210147D1*
X3183839Y2045869D2*
X3210147Y2029122D1*
X3159962Y2008875D2*
Y1982622D1*
X3179085Y1996936D1*
Y1989751D1*
X3181462Y1984998D1*
X3183839Y1982622D1*
X3191024Y1980190D1*
X3195777D1*
X3202962Y1982622D1*
X3207770Y1987375D1*
X3210147Y1994560D1*
Y2001745D1*
X3207770Y2008875D1*
X3205338Y2011251D1*
X3200585Y2013683D1*
X3176654Y1933634D2*
X3183839Y1936066D1*
X3188647Y1940819D1*
X3191024Y1948004D1*
Y1950380D1*
X3188647Y1957566D1*
X3183839Y1962319D1*
X3176654Y1964751D1*
X3174277D1*
X3167092Y1962319D1*
X3162339Y1957566D1*
X3159962Y1950381D1*
Y1948004D1*
X3162339Y1940819D1*
X3167092Y1936066D1*
X3176654Y1933634D1*
X3188647D1*
X3200585Y1936066D1*
X3207770Y1940819D1*
X3210147Y1948004D1*
Y1952757D1*
X3207770Y1959942D1*
X3202962Y1962319D1*
X3283839Y2064992D2*
Y2043492D1*
X3281407Y2036307D1*
X3279030Y2033875D1*
X3274277Y2031499D1*
X3269469D1*
X3264715Y2033876D1*
X3262283Y2036307D1*
X3259907Y2043492D1*
Y2064992D1*
X3310147D1*
X3283839Y2048246D2*
X3310147Y2031499D1*
Y1992128D2*
X3259962D1*
X3293400Y2016060D1*
Y1980190D1*
X3259962Y1950381D2*
X3262339Y1957566D1*
X3269524Y1962374D1*
X3281462Y1964751D1*
X3288647D1*
X3300585Y1962374D1*
X3307770Y1957565D1*
X3310147Y1950380D1*
Y1945627D1*
X3307770Y1938442D1*
X3300585Y1933689D1*
X3288647Y1931257D1*
X3281462D1*
X3269524Y1933689D1*
X3262339Y1938442D1*
X3259962Y1945627D1*
Y1950381D1*
X3269524Y1933689D2*
X3300585Y1962374D1*
X903559Y2874488D2*
X882059D1*
X874874Y2876920D1*
X872442Y2879297D1*
X870065Y2884050D1*
Y2888858D1*
X872442Y2893611D1*
X874874Y2896043D1*
X882059Y2898420D1*
X903559D1*
Y2848180D1*
X886812Y2874488D2*
X870065Y2848180D1*
X830694D2*
Y2898365D1*
X854626Y2864927D1*
X818756D1*
X803317Y2888803D2*
X798508Y2891235D1*
X791323Y2898365D1*
Y2848180D1*
X3493593Y1050874D2*
Y1015004D1*
X3491216Y1007819D1*
X3486408Y1003066D1*
X3479223Y1000634D1*
X3474470D1*
X3467285Y1003066D1*
X3462476Y1007819D1*
X3460100Y1015004D1*
Y1050874D1*
X3444660Y1041257D2*
X3439852Y1043689D1*
X3432667Y1050819D1*
Y1000634D1*
X1304343Y1718198D2*
Y1682328D1*
X1301966Y1675143D1*
X1297158Y1670390D1*
X1289973Y1667958D1*
X1285220D1*
X1278035Y1670390D1*
X1273226Y1675143D1*
X1270850Y1682328D1*
Y1718198D1*
X1252978Y1706205D2*
Y1708581D1*
X1250602Y1713390D1*
X1248225Y1715766D1*
X1243417Y1718143D1*
X1233855D1*
X1229102Y1715766D1*
X1226725Y1713390D1*
X1224294Y1708581D1*
Y1703828D1*
X1226725Y1699020D1*
X1231479Y1691890D1*
X1255410Y1667958D1*
X1221917D1*
X3907355Y3315447D2*
Y3279578D1*
X3904978Y3272393D1*
X3900170Y3267639D1*
X3892985Y3265207D1*
X3888231D1*
X3881046Y3267639D1*
X3876238Y3272393D1*
X3873861Y3279578D1*
Y3315447D1*
X3853614Y3315392D2*
X3827361D1*
X3841675Y3296269D1*
X3834490D1*
X3829737Y3293892D1*
X3827361Y3291516D1*
X3824929Y3284331D1*
Y3279578D1*
X3827361Y3272393D1*
X3832114Y3267584D1*
X3839299Y3265207D1*
X3846484D1*
X3853614Y3267584D1*
X3855990Y3270016D1*
X3858422Y3274769D1*
X1473307Y2746355D2*
Y2710485D1*
X1470930Y2703300D1*
X1466122Y2698547D1*
X1458937Y2696115D1*
X1454184D1*
X1446998Y2698547D1*
X1442190Y2703300D1*
X1439813Y2710485D1*
Y2746355D1*
X1400442Y2696115D2*
Y2746300D1*
X1424374Y2712862D1*
X1388504D1*
X2368772Y3044483D2*
Y3008613D1*
X2366395Y3001428D1*
X2361587Y2996675D1*
X2354402Y2994243D1*
X2349649D1*
X2342464Y2996675D1*
X2337655Y3001428D1*
X2335279Y3008613D1*
Y3044483D1*
X2291155Y3044428D2*
X2315031D1*
X2317408Y3022928D1*
X2315031Y3025304D1*
X2307846Y3027736D1*
X2300716D1*
X2293531Y3025304D1*
X2288723Y3020551D1*
X2286346Y3013366D1*
Y3008613D1*
X2288723Y3001428D1*
X2293531Y2996620D1*
X2300716Y2994243D1*
X2307846D1*
X2315031Y2996620D1*
X2317408Y2999051D1*
X2319839Y3003805D1*
X1945044Y3370428D2*
X1925921Y3346496D1*
Y3320188D1*
X1906798Y3370428D2*
X1925921Y3346496D1*
X1891359Y3360811D2*
X1886550Y3363243D1*
X1879365Y3370373D1*
Y3320188D1*
X1048758Y1341247D2*
D129*
Y1260863D1*
X1024055Y1314452D2*
Y1260863D1*
Y1299153D2*
X1012559Y1310649D1*
X1004866Y1314452D1*
X993458D1*
X985764Y1310649D1*
X981962Y1299153D1*
Y1260863D1*
X911363Y1341247D2*
Y1260863D1*
Y1302956D2*
X918968Y1310649D1*
X926662Y1314452D1*
X938158D1*
X945763Y1310649D1*
X953456Y1302956D1*
X957259Y1291460D1*
Y1283855D1*
X953456Y1272359D1*
X945763Y1264754D1*
X938158Y1260863D1*
X926662D1*
X918968Y1264754D1*
X911363Y1272359D1*
X886660Y1341247D2*
X882858Y1337444D1*
X878967Y1341247D1*
X882858Y1345138D1*
X886660Y1341247D1*
X882858Y1314452D2*
Y1260863D1*
X808280Y1302956D2*
X815973Y1310649D1*
X823667Y1314452D1*
X835075D1*
X842768Y1310649D1*
X850373Y1302956D1*
X854264Y1291460D1*
Y1283855D1*
X850373Y1272359D1*
X842768Y1264754D1*
X835075Y1260863D1*
X823667D1*
X815973Y1264754D1*
X808280Y1272359D1*
X737681Y1314452D2*
Y1260863D1*
Y1302956D2*
X745286Y1310649D1*
X752980Y1314452D1*
X764387D1*
X772081Y1310649D1*
X779686Y1302956D1*
X783577Y1291460D1*
Y1283855D1*
X779686Y1272359D1*
X772081Y1264754D1*
X764387Y1260863D1*
X752980D1*
X745286Y1264754D1*
X737681Y1272359D1*
X667083Y1341247D2*
Y1260863D1*
Y1302956D2*
X674688Y1310649D1*
X682381Y1314452D1*
X693877D1*
X701482Y1310649D1*
X709176Y1302956D1*
X712978Y1291460D1*
Y1283855D1*
X709176Y1272359D1*
X701482Y1264754D1*
X693877Y1260863D1*
X682381D1*
X674688Y1264754D1*
X667083Y1272359D1*
X623279Y1314452D2*
X630884Y1310649D1*
X638577Y1302956D1*
X642380Y1291460D1*
Y1283855D1*
X638577Y1272359D1*
X630884Y1264754D1*
X623279Y1260863D1*
X611783D1*
X604089Y1264754D1*
X596484Y1272359D1*
X592593Y1283855D1*
Y1291460D1*
X596484Y1302956D1*
X604089Y1310649D1*
X611783Y1314452D1*
X623279D1*
X567890D2*
Y1260863D1*
Y1291460D2*
X563999Y1302956D1*
X556394Y1310649D1*
X548701Y1314452D1*
X537205D1*
X932858Y1229751D2*
X940463Y1237444D1*
X951959Y1241247D1*
X967258D1*
X978754Y1237444D1*
X986447Y1229751D1*
Y1222146D1*
X982556Y1214452D1*
X978754Y1210649D1*
X971149Y1206847D1*
X948156Y1199153D1*
X940463Y1195351D1*
X936660Y1191460D1*
X932858Y1183855D1*
Y1172359D1*
X940463Y1164754D1*
X951959Y1160863D1*
X967258D1*
X978754Y1164754D1*
X986447Y1172359D1*
X889054Y1214452D2*
X896659Y1210649D1*
X904353Y1202956D1*
X908155Y1191460D1*
Y1183855D1*
X904353Y1172359D1*
X896659Y1164754D1*
X889054Y1160863D1*
X877558D1*
X869864Y1164754D1*
X862259Y1172359D1*
X858368Y1183855D1*
Y1191460D1*
X862259Y1202956D1*
X869864Y1210649D1*
X877558Y1214452D1*
X889054D1*
X833665D2*
Y1160863D1*
Y1199153D2*
X822169Y1210649D1*
X814476Y1214452D1*
X803068D1*
X795375Y1210649D1*
X791572Y1199153D1*
Y1160863D1*
X747768Y1214452D2*
X755373Y1210649D1*
X763067Y1202956D1*
X766869Y1191460D1*
Y1183855D1*
X763067Y1172359D1*
X755373Y1164754D1*
X747768Y1160863D1*
X736272D1*
X728579Y1164754D1*
X720974Y1172359D1*
X717083Y1183855D1*
Y1191460D1*
X720974Y1202956D1*
X728579Y1210649D1*
X736272Y1214452D1*
X747768D1*
X692380D2*
Y1160863D1*
Y1191460D2*
X688489Y1202956D1*
X680884Y1210649D1*
X673190Y1214452D1*
X661694D1*
X617890D2*
X625495Y1210649D1*
X633189Y1202956D1*
X636991Y1191460D1*
Y1183855D1*
X633189Y1172359D1*
X625495Y1164754D1*
X617890Y1160863D1*
X606394D1*
X598701Y1164754D1*
X591096Y1172359D1*
X587205Y1183855D1*
Y1191460D1*
X591096Y1202956D1*
X598701Y1210649D1*
X606394Y1214452D1*
X617890D1*
X2956501Y485863D2*
X2987187Y566247D1*
X3017784Y485863D1*
X3006288Y512657D2*
X2967997D1*
X2931798Y566247D2*
Y485863D1*
X2885903D1*
X2834405Y566247D2*
Y485863D1*
X2861200Y566247D2*
X2807610D1*
X2721625Y485863D2*
X2752310Y566247D1*
X2782908Y485863D1*
X2771412Y512657D2*
X2733121D1*
X2592366Y566247D2*
Y485863D1*
X2619160Y566247D2*
X2565571D1*
X2491170D2*
X2540868D1*
Y485863D1*
X2491170D1*
X2540868Y527956D2*
X2510271D1*
X2412878Y566247D2*
Y485863D1*
X2466467Y566247D1*
Y485863D1*
X2334586Y554751D2*
X2342191Y562444D1*
X2353687Y566247D1*
X2368985D1*
X2380482Y562444D1*
X2388175Y554751D1*
Y547146D1*
X2384284Y539452D1*
X2380482Y535649D1*
X2372876Y531847D1*
X2349884Y524153D1*
X2342191Y520351D1*
X2338388Y516460D1*
X2334586Y508855D1*
Y497359D1*
X2342191Y489754D1*
X2353687Y485863D1*
X2368985D1*
X2380482Y489754D1*
X2388175Y497359D1*
X2248600Y485863D2*
X2279286Y566247D1*
X2309883Y485863D1*
X2298387Y512657D2*
X2260096D1*
X2200905Y566247D2*
X2208599Y562444D1*
X2216204Y554751D1*
X2220095Y547146D1*
X2223897Y535649D1*
Y516460D1*
X2220095Y505052D1*
X2216204Y497359D1*
X2208599Y489754D1*
X2200905Y485863D1*
X2185607D1*
X2178001Y489754D1*
X2170308Y497359D1*
X2166505Y505052D1*
X2162703Y516460D1*
Y535649D1*
X2166505Y547146D1*
X2170308Y554751D1*
X2178001Y562444D1*
X2185607Y566247D1*
X2200905D1*
X2060238Y526010D2*
X2016023D1*
X1856167Y547146D2*
X1859969Y554751D1*
X1867663Y562444D1*
X1875268Y566247D1*
X1890566D1*
X1898260Y562444D1*
X1905865Y554751D1*
X1909756Y547146D1*
X1913559Y535649D1*
Y516460D1*
X1909756Y505052D1*
X1905865Y497359D1*
X1898260Y489754D1*
X1890566Y485863D1*
X1875268D1*
X1867663Y489754D1*
X1859969Y497359D1*
X1856167Y505052D1*
X1831464Y566247D2*
Y508855D1*
X1827661Y497359D1*
X1819968Y489754D1*
X1808472Y485863D1*
X1800867D1*
X1789371Y489754D1*
X1781677Y497359D1*
X1777875Y508855D1*
Y566247D1*
X1753172D2*
Y485863D1*
X1728469Y566247D2*
Y485863D1*
X1701674D1*
X1690178Y489754D1*
X1682485Y497359D1*
X1678682Y505052D1*
X1674880Y516460D1*
Y535649D1*
X1678682Y547146D1*
X1682485Y554751D1*
X1690178Y562444D1*
X1701674Y566247D1*
X1728469D1*
X1588894Y485863D2*
X1619580Y566247D1*
X1650177Y485863D1*
X1638681Y512657D2*
X1600390D1*
X1564191Y566247D2*
Y485863D1*
X1537396D1*
X1525900Y489754D1*
X1518207Y497359D1*
X1514404Y505052D1*
X1510602Y516460D1*
Y535649D1*
X1514404Y547146D1*
X1518207Y554751D1*
X1525900Y562444D1*
X1537396Y566247D1*
X1564191D1*
X1462907D2*
X1470600Y562444D1*
X1478205Y554751D1*
X1482096Y547146D1*
X1485899Y535649D1*
Y516460D1*
X1482096Y505052D1*
X1478205Y497359D1*
X1470600Y489754D1*
X1462907Y485863D1*
X1447608D1*
X1440003Y489754D1*
X1432310Y497359D1*
X1428507Y505052D1*
X1424705Y516460D1*
Y535649D1*
X1428507Y547146D1*
X1432310Y554751D1*
X1440003Y562444D1*
X1447608Y566247D1*
X1462907D1*
X624705Y2629687D2*
X655390Y2710071D1*
X685987Y2629687D1*
X674491Y2656481D2*
X636201D1*
X678294Y2816247D2*
Y2735863D1*
X643806D1*
X632310Y2739754D1*
X628507Y2743556D1*
X624705Y2751161D1*
Y2762657D1*
X628507Y2770351D1*
X632310Y2774153D1*
X643806Y2777956D1*
X632310Y2781847D1*
X628507Y2785649D1*
X624705Y2793255D1*
Y2800948D1*
X628507Y2808553D1*
X632310Y2812444D1*
X643806Y2816247D1*
X678294D1*
Y2777956D2*
X643806D1*
X893789Y3047146D2*
X897591Y3054751D1*
X905285Y3062444D1*
X912890Y3066247D1*
X928189D1*
X935882Y3062444D1*
X943487Y3054751D1*
X947378Y3047146D1*
X951181Y3035649D1*
Y3016460D1*
X947378Y3005052D1*
X943487Y2997359D1*
X935882Y2989754D1*
X928189Y2985863D1*
X912890D1*
X905285Y2989754D1*
X897591Y2997359D1*
X893789Y3005052D1*
Y3016460D1*
X912890D1*
X815497Y3066247D2*
Y2985863D1*
X869086Y3066247D1*
Y2985863D1*
X790794Y3066247D2*
Y2985863D1*
X763999D1*
X752503Y2989754D1*
X744810Y2997359D1*
X741007Y3005052D1*
X737205Y3016460D1*
Y3035649D1*
X741007Y3047146D1*
X744810Y3054751D1*
X752503Y3062444D1*
X763999Y3066247D1*
X790794D1*
M02*
