G04 DipTrace 3.0.0.2*
G04 BottomCopper.gbl*
%MOIN*%
G04 #@! TF.FileFunction,Copper,L2,Bot*
G04 #@! TF.Part,Single*
%AMOUTLINE0*
4,1,8,
-0.019685,0.029528,
-0.009843,0.03937,
0.009843,0.03937,
0.019685,0.029528,
0.019685,-0.029528,
0.009843,-0.03937,
-0.009843,-0.03937,
-0.019685,-0.029528,
-0.019685,0.029528,
0*%
%AMOUTLINE3*
4,1,8,
0.029528,0.019685,
0.03937,0.009843,
0.03937,-0.009843,
0.029528,-0.019685,
-0.029528,-0.019685,
-0.03937,-0.009843,
-0.03937,0.009843,
-0.029528,0.019685,
0.029528,0.019685,
0*%
%AMOUTLINE6*
4,1,8,
0.019685,-0.029528,
0.009843,-0.03937,
-0.009843,-0.03937,
-0.019685,-0.029528,
-0.019685,0.029528,
-0.009843,0.03937,
0.009843,0.03937,
0.019685,0.029528,
0.019685,-0.029528,
0*%
G04 #@! TA.AperFunction,CopperBalancing*
%ADD13C,0.025*%
G04 #@! TA.AperFunction,Conductor*
%ADD14C,0.01252*%
G04 #@! TA.AperFunction,CopperBalancing*
%ADD15C,0.012992*%
G04 #@! TA.AperFunction,ComponentPad*
%ADD16R,0.062992X0.062992*%
%ADD17C,0.062992*%
%ADD18R,0.059055X0.051181*%
%ADD19R,0.051181X0.059055*%
G04 #@! TA.AperFunction,ComponentPad*
%ADD20R,0.059055X0.059055*%
%ADD21C,0.059055*%
%ADD23R,0.124016X0.086614*%
%ADD24R,0.062992X0.070866*%
G04 #@! TA.AperFunction,ComponentPad*
%ADD25R,0.066929X0.066929*%
%ADD26C,0.066*%
%ADD27R,0.098425X0.098425*%
%ADD28C,0.098425*%
%ADD29R,0.025X0.05*%
G04 #@! TA.AperFunction,ComponentPad*
%ADD30C,0.066929*%
%ADD31R,0.06X0.06*%
%ADD32C,0.06*%
%ADD33C,0.062992*%
%ADD34R,0.212598X0.212598*%
%ADD35R,0.057087X0.047244*%
G04 #@! TA.AperFunction,ComponentPad*
%ADD36R,0.074803X0.074803*%
%ADD37C,0.074803*%
%ADD38O,0.03937X0.07874*%
%ADD39O,0.07874X0.03937*%
%ADD41R,0.025591X0.041339*%
G04 #@! TA.AperFunction,ComponentPad*
%ADD42C,0.05*%
%ADD43C,0.05*%
%ADD44R,0.070866X0.125984*%
%ADD46R,0.11811X0.03937*%
%ADD47R,0.354331X0.417323*%
%ADD48R,0.07874X0.023622*%
%ADD50R,0.066929X0.019685*%
%ADD51R,0.019685X0.066929*%
G04 #@! TA.AperFunction,ComponentPad*
%ADD52C,0.048*%
G04 #@! TA.AperFunction,ViaPad*
%ADD53C,0.023622*%
G04 #@! TA.AperFunction,ComponentPad*
%ADD131OUTLINE0*%
%ADD134OUTLINE3*%
%ADD137OUTLINE6*%
%FSLAX26Y26*%
G04*
G70*
G90*
G75*
G01*
G04 Bottom*
%LPD*%
X3687205Y2837205D2*
D13*
Y3187205D1*
X3724705D1*
X4162205Y2512205D2*
X3987205D1*
X3687205Y2812205D1*
Y2837205D1*
X4162205Y2512205D2*
Y2245472D1*
X4149213Y2232480D1*
X3887205Y2237205D2*
X4144488D1*
X4149213Y2232480D1*
X2492913Y3076181D2*
D14*
X2598228D1*
X2637205Y3037205D1*
X2687205D1*
X2162205Y2981693D2*
X2117717D1*
X2099705Y2999705D1*
X2074705D1*
X2062205Y3012205D1*
X2162205Y3044685D2*
X2119685D1*
X2099705Y3024705D1*
X2074705D1*
X2062205Y3012205D1*
X3462205Y3674705D2*
D13*
Y3637205D1*
X3337205Y3512205D1*
Y3437205D1*
X3512205D1*
X3562205Y3387205D1*
X3723917D1*
X3724705Y3387992D1*
X3987205Y4012205D2*
D14*
X4137205D1*
Y3837205D1*
Y3687205D1*
X2687205Y3037205D2*
D3*
X2062205Y3012205D2*
D3*
X1324705Y2874705D2*
Y2799803D1*
X1324606Y2799705D1*
X1537205Y2749705D2*
Y2729436D1*
Y2699705D1*
X1874705Y2724705D2*
X1541936D1*
X1537205Y2729436D1*
X1874705Y2724705D2*
Y2774705D1*
X1987205Y2887205D1*
X2162205D1*
X3288130Y2148125D2*
X3338130D1*
X3413130Y2073125D1*
Y2023125D1*
X2406299Y2832087D2*
Y2768110D1*
X2462205Y2712205D1*
Y2587205D2*
X2812205Y2237205D1*
X3112205D1*
X3188130Y2161280D1*
Y2148125D1*
X3776969Y2137205D2*
D13*
Y2237205D1*
X2374803Y2832087D2*
D14*
Y2724606D1*
X2412205Y2687205D1*
Y2562205D2*
X2487205Y2487205D1*
X2637205D2*
X2962205D1*
X3212205Y2237205D1*
X3776969D1*
X2106188Y3662205D2*
Y3443222D1*
X2280315Y3269094D1*
Y3162795D1*
X2206188Y3662205D2*
Y3393222D1*
X2311811Y3287598D1*
Y3162795D1*
X2306188Y3662205D2*
Y3343222D1*
X2343307Y3306102D1*
Y3162795D1*
X2406188Y3662205D2*
Y3331188D1*
X2374803Y3299803D1*
Y3162795D1*
X1606188Y3662205D2*
Y3543222D1*
X1687205Y3462205D1*
X2037205D1*
X2248819Y3250591D1*
Y3162795D1*
X2762008Y3037205D2*
Y2962402D1*
X2762205Y2962205D1*
Y2887402D1*
X2762008Y2887205D1*
X2162205Y3013189D2*
X2211220D1*
X2224705Y2999705D1*
Y2962205D1*
X2212205Y2949705D1*
X2162697D1*
X2162205Y2950197D1*
X2112697D1*
X2099705Y2937205D1*
X2062402D1*
X2062205Y2937402D1*
X2570079Y3379331D2*
D3*
X1813130Y2023125D2*
X1923125D1*
X2217323Y2317323D1*
Y2832087D1*
X3337205Y2824705D2*
D13*
Y3051378D1*
X3724705Y3254134D2*
X3454134D1*
X3337205Y3137205D1*
Y3051378D1*
X1199714Y2749705D2*
D14*
X1099902D1*
X1099705Y2749508D1*
X1712205Y2987205D2*
X1902205D1*
X1912205Y2997205D1*
X1922205D1*
X2001181Y3076181D1*
X2162205D1*
X549705Y2874705D2*
X737205D1*
X1712205Y3187205D2*
X1912205D1*
X1991732Y3107677D1*
X2162205D1*
X2492913Y3013189D2*
X2553150D1*
X2612205Y2954134D1*
X2679331D1*
X2687402Y2962205D1*
X2687205Y2887205D2*
Y2962008D1*
X2687402Y2962205D1*
X1306188Y3662205D2*
Y3743222D1*
X1112205Y3937205D1*
Y3974705D1*
X2606188Y3662205D2*
X2662008D1*
X2712205Y3612008D1*
X2607480Y3469882D2*
X2644882D1*
X2712205Y3537205D1*
X2644882Y3379331D2*
Y3295079D1*
X2637008Y3287205D1*
X2437795Y3162795D2*
X2462795D1*
X2524705Y3224705D1*
X2687205D1*
X3374705Y3912205D1*
X3687205D1*
X3737205Y3962205D1*
Y3987205D1*
X2406299Y3162795D2*
Y3231299D1*
X2462205Y3287205D1*
X2562205D1*
X3337205Y3987205D2*
X2749705Y3399705D1*
X2562205Y3287205D2*
D3*
X1406188Y3662205D2*
Y3543222D1*
X1537205Y3412205D1*
X2037205D1*
X2217323Y3232087D1*
Y3162795D1*
X1099705Y2599705D2*
Y2674705D1*
X549705D2*
X1099705D1*
X1324606Y2699705D2*
X1274705D1*
X1249705Y2674705D1*
X1099705D1*
X1324606Y2749705D2*
X1237205D1*
X1099705Y2824902D2*
X1199508D1*
X1237205Y2787205D1*
Y2749705D1*
X549705Y2774705D2*
X1012205D1*
X1062402Y2824902D1*
X1099705D1*
X2624705Y2562205D2*
Y2637205D1*
Y2722441D1*
X2626969Y2724705D1*
X2311811Y2832087D2*
Y2712598D1*
X2387205Y2637205D1*
X2624705D1*
Y2737205D2*
X2626969D1*
Y2724705D1*
X3399705Y3812205D2*
X2737205Y3149705D1*
X2624705Y2724705D2*
X2626969D1*
X1537205Y2799705D2*
X1699705D1*
X1712205D1*
X2280315Y2832087D2*
Y2617815D1*
X2262205Y2599705D1*
X1712205Y2799705D2*
D3*
X2492913Y3107677D2*
X2632677D1*
X3387205Y3862205D1*
X3562205D1*
X1537205Y2649705D2*
X1787205D1*
X1812205Y2624705D1*
Y2587205D1*
X2248819Y2832087D2*
Y2750591D1*
X2249705Y2749705D1*
X2149705Y2587205D2*
X1812205D1*
Y2537205D1*
X1762205Y2487205D1*
D53*
X2462205Y2712205D3*
Y2587205D3*
X2412205Y2687205D3*
Y2562205D3*
X2487205Y2487205D3*
X2637205D3*
X2570079Y3379331D3*
X2749705Y3399705D3*
X2562205Y3287205D3*
X3399705Y3812205D3*
X2737205Y3149705D3*
X2624705Y2724705D3*
X2262205Y2599705D3*
X1712205Y2799705D3*
X3562205Y3862205D3*
X2249705Y2749705D3*
X2149705Y2587205D3*
X1762205Y2487205D3*
X2712205Y3449705D3*
X1324705Y2874705D3*
X2687205Y3037205D3*
X2062205Y3012205D3*
X2737205Y2724705D3*
X2612205Y2887205D3*
X1099705Y2524705D3*
X1787205Y2799705D3*
X1737205Y2587205D3*
X1949705Y2724705D3*
X2699705Y2637205D3*
X448096Y4253970D2*
D13*
X4276348D1*
X448096Y4229101D2*
X4276348D1*
X448096Y4204232D2*
X4276348D1*
X448096Y4179364D2*
X4276348D1*
X448096Y4154495D2*
X3945049D1*
X4029394D2*
X4276348D1*
X448096Y4129626D2*
X3292314D1*
X3782080D2*
X3929374D1*
X4045020D2*
X4078692D1*
X4195702D2*
X4276348D1*
X448096Y4104757D2*
X3277373D1*
X3797021D2*
X3927177D1*
X4047217D2*
X4078692D1*
X4195702D2*
X4276348D1*
X448096Y4079888D2*
X1722100D1*
X1821192D2*
X2903202D1*
X3002294D2*
X3275176D1*
X3799218D2*
X3936552D1*
X4037841D2*
X4078692D1*
X4195702D2*
X4276348D1*
X448096Y4055020D2*
X1675860D1*
X1867432D2*
X2856962D1*
X3048534D2*
X3284112D1*
X3790282D2*
X3926738D1*
X4047705D2*
X4078692D1*
X4195702D2*
X4276348D1*
X448096Y4030151D2*
X1101689D1*
X1122719D2*
X1651054D1*
X1892285D2*
X2832157D1*
X3073388D2*
X3274736D1*
X3781542D2*
X3926738D1*
X4195702D2*
X4276348D1*
X448096Y4005282D2*
X1062773D1*
X1161621D2*
X1635136D1*
X1908202D2*
X2816240D1*
X3089306D2*
X3274736D1*
X3796874D2*
X3926738D1*
X4195702D2*
X4276348D1*
X448096Y3980413D2*
X1053984D1*
X1170409D2*
X1625126D1*
X1918164D2*
X2806230D1*
X3099268D2*
X3274736D1*
X3799268D2*
X3926738D1*
X4195702D2*
X4276348D1*
X448096Y3955545D2*
X1057060D1*
X1167333D2*
X1619853D1*
X1923437D2*
X2800957D1*
X3104541D2*
X3256718D1*
X3790625D2*
X3926738D1*
X4047705D2*
X4101933D1*
X4172461D2*
X4276348D1*
X448096Y3930676D2*
X1075077D1*
X1167529D2*
X1353692D1*
X1470702D2*
X1618877D1*
X1924462D2*
X2799980D1*
X3105566D2*
X3231865D1*
X3759668D2*
X4101933D1*
X4172461D2*
X4276348D1*
X448096Y3905807D2*
X863114D1*
X961280D2*
X1094804D1*
X1192432D2*
X1353692D1*
X1470702D2*
X1622001D1*
X1921289D2*
X2803105D1*
X3102392D2*
X3207012D1*
X3304638D2*
X3319512D1*
X3729638D2*
X4101933D1*
X4172461D2*
X4276348D1*
X448096Y3880938D2*
X854033D1*
X970361D2*
X1119657D1*
X1217285D2*
X1353692D1*
X1470702D2*
X1629570D1*
X1913720D2*
X2810673D1*
X3094824D2*
X3182109D1*
X3279736D2*
X3294609D1*
X3699462D2*
X4076738D1*
X448096Y3856070D2*
X856865D1*
X967529D2*
X1144512D1*
X1242138D2*
X1353692D1*
X1470702D2*
X1642362D1*
X1900928D2*
X2823466D1*
X3082030D2*
X3157256D1*
X3254882D2*
X3269756D1*
X3602490D2*
X4076738D1*
X448096Y3831201D2*
X874394D1*
X950000D2*
X1169413D1*
X1267041D2*
X1353692D1*
X1470702D2*
X1662236D1*
X1881104D2*
X2843340D1*
X3062157D2*
X3132402D1*
X3230029D2*
X3244902D1*
X3587206D2*
X4076738D1*
X448096Y3806332D2*
X1194268D1*
X1291894D2*
X1694657D1*
X1848681D2*
X2875761D1*
X3029785D2*
X3107500D1*
X3205126D2*
X3220000D1*
X3440038D2*
X4076738D1*
X448096Y3781463D2*
X833525D1*
X945752D2*
X1219121D1*
X1316748D2*
X3082646D1*
X3180273D2*
X3195146D1*
X3425049D2*
X3786308D1*
X3898486D2*
X4076738D1*
X4197705D2*
X4218730D1*
X4255713D2*
X4276348D1*
X448096Y3756594D2*
X796660D1*
X982617D2*
X1243974D1*
X1338573D2*
X3057793D1*
X3155420D2*
X3170293D1*
X3392920D2*
X3749444D1*
X3935400D2*
X4101933D1*
X4172461D2*
X4276348D1*
X448096Y3731726D2*
X776396D1*
X1002881D2*
X1268877D1*
X1341454D2*
X3032890D1*
X3130566D2*
X3145390D1*
X3368066D2*
X3729180D1*
X3955614D2*
X4082646D1*
X448096Y3706857D2*
X764286D1*
X1015038D2*
X1043730D1*
X1247997D2*
X1264385D1*
X1347997D2*
X1364385D1*
X1447997D2*
X1464385D1*
X1547997D2*
X1564385D1*
X1647997D2*
X1664385D1*
X1747997D2*
X1764385D1*
X1847997D2*
X1864385D1*
X1947997D2*
X1964385D1*
X2047997D2*
X2064385D1*
X2147997D2*
X2164385D1*
X2247997D2*
X2264385D1*
X2347997D2*
X2364385D1*
X2447997D2*
X2464385D1*
X2547997D2*
X2564385D1*
X2647997D2*
X3008037D1*
X3105664D2*
X3120537D1*
X3343164D2*
X3403692D1*
X3520702D2*
X3610673D1*
X3967773D2*
X4082646D1*
X448096Y3681988D2*
X757890D1*
X1021386D2*
X1043730D1*
X2691064D2*
X2983184D1*
X3080810D2*
X3095684D1*
X3318310D2*
X3403692D1*
X3520702D2*
X3601005D1*
X3974121D2*
X4082646D1*
X448096Y3657119D2*
X756524D1*
X1022802D2*
X1043730D1*
X2770702D2*
X2958281D1*
X3055957D2*
X3070781D1*
X3293457D2*
X3403692D1*
X3520702D2*
X3603349D1*
X3975537D2*
X4082646D1*
X448096Y3632251D2*
X759892D1*
X1019385D2*
X1043730D1*
X2770702D2*
X2933428D1*
X3031054D2*
X3045928D1*
X3268554D2*
X3399589D1*
X3520702D2*
X3620000D1*
X3698096D2*
X3712656D1*
X3972168D2*
X4082646D1*
X448096Y3607382D2*
X768437D1*
X1010840D2*
X1043730D1*
X1231786D2*
X1280596D1*
X1331786D2*
X1370928D1*
X1441454D2*
X1480596D1*
X1531786D2*
X1570928D1*
X2441454D2*
X2480596D1*
X2531786D2*
X2580596D1*
X2631786D2*
X2653692D1*
X2770702D2*
X2908573D1*
X3006201D2*
X3021073D1*
X3243701D2*
X3374736D1*
X3490038D2*
X3721220D1*
X3963573D2*
X4276348D1*
X448096Y3582513D2*
X783525D1*
X995801D2*
X1370928D1*
X1441454D2*
X1570928D1*
X2441454D2*
X2653692D1*
X2770702D2*
X2883672D1*
X2981348D2*
X2996172D1*
X3218848D2*
X3349882D1*
X3465136D2*
X3736260D1*
X3948534D2*
X4276348D1*
X448096Y3557644D2*
X808672D1*
X970605D2*
X1370928D1*
X1441454D2*
X1570928D1*
X2441454D2*
X2653692D1*
X2770702D2*
X2858818D1*
X2956445D2*
X2971318D1*
X3472509D2*
X3761406D1*
X3923388D2*
X4276348D1*
X448096Y3532776D2*
X868730D1*
X910546D2*
X1372636D1*
X1465429D2*
X1572636D1*
X2441454D2*
X2653692D1*
X2770702D2*
X2833965D1*
X2931592D2*
X2946465D1*
X3169092D2*
X3201933D1*
X3472509D2*
X3821465D1*
X3863329D2*
X3908329D1*
X448096Y3507907D2*
X1392705D1*
X1490332D2*
X1592705D1*
X2441454D2*
X2565702D1*
X2770702D2*
X2809112D1*
X2906738D2*
X2921612D1*
X3144238D2*
X3201933D1*
X3472509D2*
X3908329D1*
X448096Y3483038D2*
X1417558D1*
X1515185D2*
X1617558D1*
X2441454D2*
X2565702D1*
X2706836D2*
X2784209D1*
X2881836D2*
X2896709D1*
X3119336D2*
X3201933D1*
X3472509D2*
X3636650D1*
X3812744D2*
X3908329D1*
X448096Y3458169D2*
X1442412D1*
X1540038D2*
X1642412D1*
X2441454D2*
X2565702D1*
X2681982D2*
X2759356D1*
X2856982D2*
X2871856D1*
X3094482D2*
X3201933D1*
X3548877D2*
X3636650D1*
X3812744D2*
X3908329D1*
X448096Y3433301D2*
X1467314D1*
X2441454D2*
X2565702D1*
X2649268D2*
X2728789D1*
X2832129D2*
X2847001D1*
X3069629D2*
X3201933D1*
X3573730D2*
X3636650D1*
X3812744D2*
X3908329D1*
X448096Y3408432D2*
X1492168D1*
X2441454D2*
X2528301D1*
X2686669D2*
X2709892D1*
X2807226D2*
X2822100D1*
X3044726D2*
X3201933D1*
X3812744D2*
X3908329D1*
X448096Y3383563D2*
X1518828D1*
X2441454D2*
X2528301D1*
X2686669D2*
X2712480D1*
X3019873D2*
X3201933D1*
X3472509D2*
X3508184D1*
X3812744D2*
X3908329D1*
X448096Y3358694D2*
X2041874D1*
X2441454D2*
X2528301D1*
X2686669D2*
X2772392D1*
X2995020D2*
X3201933D1*
X3472509D2*
X3533085D1*
X3812744D2*
X3908329D1*
X448096Y3333825D2*
X2066777D1*
X2441454D2*
X2507646D1*
X2691601D2*
X2747490D1*
X2970165D2*
X3201933D1*
X3472509D2*
X3636650D1*
X3812744D2*
X3908329D1*
X448096Y3308957D2*
X2091630D1*
X2691601D2*
X2722636D1*
X2945264D2*
X3201933D1*
X3472509D2*
X3636650D1*
X3812744D2*
X3908329D1*
X448096Y3284088D2*
X2116484D1*
X2920409D2*
X3426689D1*
X3812744D2*
X3908329D1*
X448096Y3259219D2*
X2141386D1*
X2895556D2*
X3401592D1*
X3812744D2*
X3908329D1*
X448096Y3234350D2*
X1582841D1*
X1766797D2*
X1891630D1*
X1932764D2*
X2166240D1*
X2870654D2*
X3376689D1*
X3812744D2*
X3908329D1*
X448096Y3209482D2*
X1582841D1*
X1960009D2*
X2178496D1*
X2845801D2*
X3351836D1*
X3467138D2*
X3636650D1*
X3812744D2*
X3908329D1*
X448096Y3184613D2*
X1582841D1*
X1965136D2*
X2178496D1*
X2820946D2*
X3326982D1*
X3442236D2*
X3636650D1*
X3812744D2*
X3908329D1*
X448096Y3159744D2*
X1582841D1*
X1988476D2*
X2178496D1*
X2796045D2*
X3201933D1*
X3472509D2*
X3636650D1*
X3812744D2*
X3908329D1*
X448096Y3134875D2*
X1582841D1*
X1766797D2*
X1915702D1*
X2775000D2*
X3201933D1*
X3472509D2*
X3645732D1*
X3728710D2*
X3908329D1*
X448096Y3110007D2*
X1940605D1*
X2683837D2*
X3201933D1*
X3472509D2*
X3645732D1*
X3728710D2*
X3908329D1*
X448096Y3085138D2*
X1961308D1*
X2224657D2*
X2430449D1*
X2816601D2*
X3201933D1*
X3472509D2*
X3645732D1*
X3728710D2*
X4276348D1*
X448096Y3060269D2*
X1936454D1*
X2224657D2*
X2430449D1*
X2816601D2*
X3201933D1*
X3472509D2*
X3645732D1*
X3728710D2*
X4276348D1*
X448096Y3035400D2*
X1582841D1*
X1766797D2*
X1876689D1*
X2224657D2*
X2430449D1*
X2816601D2*
X3201933D1*
X3472509D2*
X3645732D1*
X3728710D2*
X4276348D1*
X448096Y3010531D2*
X1582841D1*
X1984325D2*
X2003692D1*
X2224657D2*
X2430449D1*
X2816797D2*
X3201933D1*
X3472509D2*
X3645732D1*
X3728710D2*
X4276348D1*
X448096Y2985663D2*
X1582841D1*
X1963866D2*
X2003692D1*
X2224657D2*
X2430449D1*
X2816797D2*
X3201933D1*
X3472509D2*
X3645732D1*
X3728710D2*
X4276348D1*
X448096Y2960794D2*
X672782D1*
X801612D2*
X893241D1*
X1022118D2*
X1582841D1*
X1949706D2*
X2003692D1*
X2224657D2*
X2430449D1*
X2816797D2*
X3201933D1*
X3472509D2*
X3645732D1*
X3728710D2*
X4276348D1*
X448096Y2935925D2*
X672782D1*
X801612D2*
X893241D1*
X1022118D2*
X1041192D1*
X1158202D2*
X1582841D1*
X1766797D2*
X2003692D1*
X2224657D2*
X2430449D1*
X2816797D2*
X3201933D1*
X3472509D2*
X3645732D1*
X3728710D2*
X4276348D1*
X448096Y2911056D2*
X491192D1*
X608202D2*
X672782D1*
X801612D2*
X893241D1*
X1022118D2*
X1041192D1*
X1158202D2*
X1270146D1*
X1454101D2*
X1962236D1*
X2224657D2*
X2430449D1*
X2816797D2*
X3295732D1*
X3378710D2*
X3645732D1*
X3728710D2*
X4276348D1*
X448096Y2886188D2*
X491192D1*
X801612D2*
X893241D1*
X1022118D2*
X1041192D1*
X1158202D2*
X1270146D1*
X1454101D2*
X1937382D1*
X2816601D2*
X3246220D1*
X3428222D2*
X3628692D1*
X3745702D2*
X3854374D1*
X3913720D2*
X4276348D1*
X448096Y2861319D2*
X491192D1*
X801612D2*
X893241D1*
X1022118D2*
X1041192D1*
X1158202D2*
X1270146D1*
X1454101D2*
X1912480D1*
X2816601D2*
X3246220D1*
X3428222D2*
X3628692D1*
X3745702D2*
X3830986D1*
X3937109D2*
X4276348D1*
X448096Y2836450D2*
X491192D1*
X801612D2*
X893241D1*
X1236768D2*
X1256230D1*
X1454101D2*
X1468828D1*
X1605566D2*
X1657646D1*
X1841601D2*
X1887626D1*
X2476612D2*
X2632646D1*
X2816601D2*
X3246220D1*
X3428222D2*
X3628692D1*
X3745702D2*
X3825517D1*
X3942577D2*
X4276348D1*
X448096Y2811581D2*
X505058D1*
X801612D2*
X893241D1*
X1392969D2*
X1468828D1*
X1841601D2*
X1862773D1*
X2476612D2*
X3246220D1*
X3428222D2*
X3628692D1*
X3745702D2*
X3831718D1*
X3936377D2*
X4276348D1*
X448096Y2786713D2*
X492509D1*
X1392969D2*
X1468828D1*
X2476612D2*
X3246220D1*
X3428222D2*
X3628692D1*
X3770361D2*
X3857304D1*
X3910840D2*
X4276348D1*
X448096Y2761844D2*
X492705D1*
X1392969D2*
X1468828D1*
X2461377D2*
X2566484D1*
X2797705D2*
X3246220D1*
X3428222D2*
X3679912D1*
X3795214D2*
X4276348D1*
X448096Y2736975D2*
X505790D1*
X1392969D2*
X1468828D1*
X2493945D2*
X2566484D1*
X2797705D2*
X3704814D1*
X3820068D2*
X4276348D1*
X448096Y2712106D2*
X505497D1*
X1392969D2*
X1468828D1*
X2503028D2*
X2566484D1*
X2797705D2*
X3729668D1*
X3844970D2*
X4276348D1*
X448096Y2687238D2*
X492608D1*
X1392969D2*
X1468828D1*
X2493749D2*
X2566484D1*
X2797705D2*
X3754521D1*
X3869824D2*
X4276348D1*
X448096Y2662369D2*
X492558D1*
X1392969D2*
X1468828D1*
X2754101D2*
X3779374D1*
X3894677D2*
X4134745D1*
X4189648D2*
X4276348D1*
X448096Y2637500D2*
X505302D1*
X594092D2*
X1041192D1*
X1158202D2*
X1256230D1*
X1392969D2*
X1468828D1*
X2315576D2*
X2338114D1*
X2754101D2*
X3804277D1*
X3919530D2*
X4109697D1*
X4214697D2*
X4276348D1*
X448096Y2612631D2*
X1041192D1*
X1158202D2*
X1256230D1*
X1392969D2*
X1468828D1*
X1605566D2*
X1682841D1*
X2315136D2*
X2363066D1*
X2754101D2*
X3246220D1*
X3428222D2*
X3829130D1*
X3944433D2*
X4103692D1*
X4220702D2*
X4276348D1*
X448096Y2587762D2*
X1041192D1*
X1158202D2*
X1682841D1*
X2301122D2*
X2381181D1*
X2754101D2*
X3246220D1*
X3428222D2*
X3853984D1*
X3969286D2*
X4109306D1*
X4215088D2*
X4276348D1*
X448096Y2562894D2*
X838017D1*
X941308D2*
X1041192D1*
X1158202D2*
X1682841D1*
X2275293D2*
X2371416D1*
X2754101D2*
X3246220D1*
X3428222D2*
X3790752D1*
X3994140D2*
X4103692D1*
X4220702D2*
X4276348D1*
X448096Y2538025D2*
X798710D1*
X980614D2*
X1041192D1*
X1158202D2*
X1682841D1*
X1866797D2*
X2182060D1*
X2252588D2*
X2380009D1*
X2754101D2*
X3246220D1*
X3428222D2*
X3751445D1*
X4220702D2*
X4276348D1*
X448096Y2513156D2*
X777617D1*
X1001660D2*
X1041192D1*
X1158202D2*
X1731524D1*
X1836962D2*
X2182060D1*
X2252588D2*
X2412432D1*
X2984668D2*
X3246220D1*
X3428222D2*
X3730400D1*
X4220702D2*
X4276348D1*
X448096Y2488287D2*
X764970D1*
X1014306D2*
X1041192D1*
X1158202D2*
X1721416D1*
X1812109D2*
X2182060D1*
X2252588D2*
X2437285D1*
X3009961D2*
X3246220D1*
X3428222D2*
X3717705D1*
X4220702D2*
X4276348D1*
X448096Y2463419D2*
X758232D1*
X1021093D2*
X1729668D1*
X1794726D2*
X2182060D1*
X2252588D2*
X2454668D1*
X2519726D2*
X2537188D1*
X3034814D2*
X3710966D1*
X3973828D2*
X4103692D1*
X4220702D2*
X4276348D1*
X448096Y2438550D2*
X756425D1*
X1022852D2*
X2182060D1*
X2252588D2*
X2562041D1*
X2659668D2*
X2962041D1*
X3059668D2*
X3709209D1*
X3975585D2*
X4120732D1*
X4203710D2*
X4276348D1*
X448096Y2413681D2*
X759453D1*
X1019824D2*
X2182060D1*
X2252588D2*
X2586894D1*
X2684570D2*
X2986894D1*
X3084570D2*
X3712188D1*
X3972608D2*
X4120732D1*
X4203710D2*
X4276348D1*
X448096Y2388812D2*
X767608D1*
X1011718D2*
X2182060D1*
X2252588D2*
X2611797D1*
X2709424D2*
X3011797D1*
X3109424D2*
X3720341D1*
X3964453D2*
X4120732D1*
X4203710D2*
X4276348D1*
X448096Y2363944D2*
X782060D1*
X997217D2*
X2182060D1*
X2252588D2*
X2636650D1*
X2734277D2*
X3036650D1*
X3134277D2*
X3734844D1*
X3950000D2*
X4120732D1*
X4203710D2*
X4276348D1*
X448096Y2339075D2*
X806181D1*
X973096D2*
X2182060D1*
X2252588D2*
X2661504D1*
X2759130D2*
X3061504D1*
X3159130D2*
X3758965D1*
X3925829D2*
X4120732D1*
X4203710D2*
X4276348D1*
X448096Y2314206D2*
X858378D1*
X920898D2*
X2165409D1*
X2252441D2*
X2686406D1*
X2784033D2*
X3086406D1*
X3184033D2*
X3811113D1*
X3873681D2*
X4120732D1*
X4203710D2*
X4276348D1*
X448096Y2289337D2*
X2140508D1*
X2238134D2*
X2711260D1*
X2808886D2*
X3111260D1*
X3208886D2*
X3716484D1*
X3947705D2*
X4117558D1*
X4203710D2*
X4276348D1*
X448096Y2264469D2*
X2115654D1*
X2213281D2*
X2736113D1*
X4207030D2*
X4276348D1*
X448096Y2239600D2*
X2090801D1*
X2188428D2*
X2761016D1*
X4215185D2*
X4276348D1*
X448096Y2214731D2*
X2065898D1*
X2163525D2*
X2785869D1*
X4213085D2*
X4276348D1*
X448096Y2189862D2*
X2041045D1*
X2138672D2*
X2255497D1*
X2320801D2*
X2355497D1*
X2420801D2*
X2455497D1*
X2520801D2*
X2555497D1*
X2620801D2*
X2655497D1*
X2720801D2*
X2755497D1*
X2820801D2*
X2855497D1*
X2920801D2*
X2955497D1*
X3020801D2*
X3055497D1*
X3220801D2*
X3255497D1*
X3320801D2*
X3716484D1*
X3947705D2*
X4099101D1*
X4199316D2*
X4276348D1*
X448096Y2164993D2*
X2016192D1*
X2113818D2*
X2236992D1*
X3370068D2*
X3716484D1*
X3947705D2*
X4276348D1*
X448096Y2140125D2*
X1991289D1*
X2088965D2*
X2234745D1*
X3394970D2*
X3716484D1*
X3947705D2*
X4276348D1*
X448096Y2115256D2*
X1966436D1*
X2064062D2*
X2098710D1*
X2177538D2*
X2245976D1*
X2330273D2*
X2345976D1*
X2430273D2*
X2445976D1*
X2530273D2*
X2545976D1*
X2630273D2*
X2645976D1*
X2730273D2*
X2745976D1*
X2830273D2*
X2845976D1*
X2930273D2*
X2945976D1*
X3030273D2*
X3045976D1*
X3130273D2*
X3145976D1*
X3230273D2*
X3245976D1*
X3419824D2*
X3716484D1*
X3947705D2*
X4276348D1*
X448096Y2090387D2*
X1941581D1*
X2039209D2*
X2082353D1*
X2193945D2*
X3347050D1*
X3443457D2*
X3716484D1*
X3947705D2*
X4276348D1*
X448096Y2065518D2*
X1781425D1*
X1844873D2*
X1916680D1*
X2014356D2*
X2080108D1*
X2196142D2*
X3354618D1*
X3471630D2*
X4276348D1*
X448096Y2040650D2*
X1762236D1*
X1989453D2*
X2089970D1*
X2186280D2*
X3354618D1*
X3471630D2*
X4276348D1*
X448096Y2015781D2*
X1759648D1*
X1964600D2*
X2079618D1*
X2196630D2*
X3354618D1*
X3471630D2*
X4276348D1*
X448096Y1990912D2*
X971513D1*
X1173633D2*
X1770440D1*
X1931542D2*
X2079618D1*
X2196630D2*
X3354618D1*
X3471630D2*
X4175077D1*
X4249316D2*
X4276348D1*
X448096Y1966043D2*
X955497D1*
X1173633D2*
X2079618D1*
X2196630D2*
X3354618D1*
X3471630D2*
X4152665D1*
X448096Y1941175D2*
X953056D1*
X1173633D2*
X2079618D1*
X2196630D2*
X3354618D1*
X3471630D2*
X4145928D1*
X448096Y1916306D2*
X962138D1*
X1173633D2*
X3354618D1*
X3471630D2*
X4149345D1*
X448096Y1891437D2*
X998417D1*
X1027832D2*
X1052665D1*
X1173633D2*
X2257793D1*
X2318457D2*
X2357793D1*
X2418457D2*
X2457793D1*
X2518457D2*
X2557793D1*
X2618457D2*
X2657793D1*
X2718457D2*
X2757793D1*
X2818457D2*
X2857793D1*
X2918457D2*
X2957793D1*
X3018457D2*
X3057793D1*
X3118457D2*
X3157793D1*
X3218457D2*
X3257793D1*
X3318457D2*
X4165117D1*
X4259277D2*
X4276348D1*
X448096Y1866568D2*
X1075273D1*
X1150976D2*
X1354618D1*
X1471630D2*
X2237577D1*
X3338720D2*
X4276348D1*
X448096Y1841699D2*
X608184D1*
X668066D2*
X908184D1*
X968066D2*
X1057793D1*
X1168457D2*
X1354618D1*
X1471630D2*
X2234550D1*
X3341698D2*
X4276348D1*
X448096Y1816831D2*
X587676D1*
X688622D2*
X887676D1*
X988622D2*
X1054961D1*
X1171289D2*
X1354618D1*
X1471630D2*
X2244756D1*
X2331542D2*
X2344756D1*
X2431542D2*
X2444756D1*
X2531542D2*
X2544756D1*
X2631542D2*
X2644756D1*
X2731542D2*
X2744756D1*
X2831542D2*
X2844756D1*
X2931542D2*
X2944756D1*
X3031542D2*
X3044756D1*
X3131542D2*
X3144756D1*
X3231542D2*
X3244756D1*
X3331542D2*
X4276348D1*
X448096Y1791962D2*
X584501D1*
X691748D2*
X884501D1*
X991748D2*
X1064092D1*
X1162157D2*
X1354618D1*
X1471630D2*
X2451836D1*
X2568896D2*
X2874394D1*
X2941601D2*
X4276348D1*
X448096Y1767093D2*
X594560D1*
X681738D2*
X894560D1*
X981738D2*
X1075908D1*
X1150341D2*
X1375908D1*
X1450341D2*
X1783818D1*
X1842432D2*
X2451836D1*
X2568896D2*
X2853886D1*
X2962157D2*
X4276348D1*
X448096Y1742224D2*
X1057988D1*
X1168310D2*
X1357988D1*
X1468310D2*
X1762822D1*
X1863428D2*
X2451836D1*
X2568896D2*
X2849589D1*
X2966454D2*
X3097978D1*
X3178272D2*
X4276348D1*
X448096Y1717356D2*
X798125D1*
X998633D2*
X1054912D1*
X1171337D2*
X1354912D1*
X1471337D2*
X1759453D1*
X1866797D2*
X2098516D1*
X2174609D2*
X2276054D1*
X2397021D2*
X2451836D1*
X2568896D2*
X2857012D1*
X2959033D2*
X3080937D1*
X3195312D2*
X4276348D1*
X448096Y1692487D2*
X780986D1*
X998633D2*
X1063749D1*
X1162549D2*
X1363749D1*
X1462549D2*
X1769268D1*
X1857030D2*
X2079961D1*
X2193114D2*
X2276054D1*
X2397021D2*
X2451836D1*
X2568896D2*
X2887041D1*
X2929004D2*
X3077909D1*
X3198340D2*
X4276348D1*
X448096Y1667618D2*
X777909D1*
X998633D2*
X1076592D1*
X1149657D2*
X1376592D1*
X1449657D2*
X1484697D1*
X1541552D2*
X1584697D1*
X1641552D2*
X2076201D1*
X2196924D2*
X2276054D1*
X2397021D2*
X2480156D1*
X2545312D2*
X2851836D1*
X2968896D2*
X3086308D1*
X3189941D2*
X4276348D1*
X448096Y1642749D2*
X786210D1*
X998633D2*
X1058184D1*
X1168114D2*
X1358184D1*
X1663232D2*
X2083720D1*
X2189404D2*
X2276054D1*
X2397021D2*
X2458866D1*
X2566601D2*
X2851836D1*
X2968896D2*
X3118437D1*
X3157861D2*
X4276348D1*
X448096Y1617881D2*
X817997D1*
X858252D2*
X877665D1*
X998633D2*
X1054862D1*
X1171386D2*
X1354862D1*
X1666845D2*
X2112089D1*
X2161034D2*
X2276054D1*
X2397021D2*
X2454277D1*
X2571192D2*
X2851836D1*
X2968896D2*
X3376885D1*
X3455664D2*
X3552665D1*
X3673633D2*
X4276348D1*
X448096Y1593012D2*
X1063408D1*
X1162890D2*
X1363408D1*
X1657421D2*
X2461357D1*
X2564112D2*
X2851836D1*
X2968896D2*
X3359306D1*
X3473241D2*
X3552665D1*
X3673633D2*
X4276348D1*
X448096Y1568143D2*
X799101D1*
X998633D2*
X1077276D1*
X1148974D2*
X1377276D1*
X1448974D2*
X1772001D1*
X1956786D2*
X2489970D1*
X2535497D2*
X2851836D1*
X2968896D2*
X3355986D1*
X3476562D2*
X3552665D1*
X3673633D2*
X4276348D1*
X448096Y1543274D2*
X781280D1*
X998633D2*
X1058378D1*
X1167920D2*
X1358378D1*
X1467920D2*
X1764433D1*
X1961816D2*
X2077665D1*
X2198633D2*
X2299248D1*
X2377001D2*
X2453056D1*
X2570068D2*
X2875810D1*
X2942577D2*
X3077665D1*
X3198633D2*
X3364042D1*
X3468505D2*
X3552665D1*
X3673633D2*
X4276348D1*
X448096Y1518406D2*
X777812D1*
X998633D2*
X1054814D1*
X1171436D2*
X1354814D1*
X1471436D2*
X1764433D1*
X1961816D2*
X2077665D1*
X2198633D2*
X2281328D1*
X2394970D2*
X2453056D1*
X2570068D2*
X2855108D1*
X2963281D2*
X3077665D1*
X3198633D2*
X3394609D1*
X3437988D2*
X3552665D1*
X3673633D2*
X4276348D1*
X448096Y1493537D2*
X785772D1*
X998633D2*
X1063066D1*
X1163184D2*
X1363066D1*
X1463184D2*
X1765508D1*
X1961816D2*
X2077665D1*
X2198633D2*
X2277812D1*
X2398437D2*
X2453056D1*
X2570068D2*
X2850761D1*
X2967626D2*
X3077665D1*
X3198633D2*
X4276348D1*
X448096Y1468668D2*
X815702D1*
X860546D2*
X877665D1*
X998633D2*
X1097490D1*
X1128760D2*
X1397490D1*
X1428760D2*
X1780253D1*
X1947852D2*
X2077665D1*
X2198633D2*
X2285673D1*
X2390576D2*
X2453056D1*
X2570068D2*
X2858085D1*
X2960302D2*
X3077665D1*
X3198633D2*
X4276348D1*
X448096Y1443799D2*
X2077665D1*
X2198633D2*
X2315361D1*
X2360888D2*
X2453056D1*
X2570068D2*
X2887822D1*
X2930566D2*
X3077665D1*
X3198633D2*
X4276348D1*
X448096Y1418930D2*
X1150664D1*
X1361133D2*
X1737089D1*
X1789160D2*
X1837089D1*
X1889160D2*
X2087089D1*
X2139160D2*
X2262089D1*
X2314160D2*
X4276348D1*
X448096Y1394062D2*
X1140752D1*
X1361133D2*
X1713604D1*
X1912696D2*
X2063604D1*
X2162696D2*
X2238604D1*
X2337696D2*
X4276348D1*
X448096Y1369193D2*
X1142509D1*
X1361133D2*
X1487626D1*
X1538622D2*
X1587626D1*
X1638622D2*
X1709306D1*
X1916992D2*
X2059306D1*
X2166992D2*
X2234306D1*
X2341992D2*
X2620049D1*
X2800829D2*
X3175420D1*
X3373633D2*
X4276348D1*
X448096Y1344324D2*
X1157402D1*
X1361133D2*
X1463701D1*
X1662549D2*
X1717949D1*
X1908301D2*
X2067949D1*
X2158301D2*
X2242949D1*
X2333301D2*
X2612870D1*
X2810108D2*
X3156669D1*
X3373633D2*
X4025566D1*
X4100684D2*
X4276348D1*
X448096Y1319455D2*
X1459257D1*
X1666992D2*
X2612870D1*
X2810253D2*
X3152764D1*
X3373633D2*
X3800761D1*
X3875488D2*
X4006718D1*
X4119530D2*
X4276348D1*
X448096Y1294587D2*
X1341825D1*
X1409424D2*
X1467753D1*
X1658496D2*
X2612870D1*
X2809668D2*
X3160136D1*
X3373633D2*
X3781768D1*
X3894482D2*
X4002764D1*
X4123486D2*
X4276348D1*
X448096Y1269718D2*
X1321416D1*
X1429833D2*
X2624198D1*
X2797217D2*
X3188017D1*
X3238232D2*
X3252647D1*
X3373633D2*
X3777764D1*
X3898534D2*
X4010088D1*
X4116161D2*
X4276348D1*
X448096Y1244849D2*
X1317217D1*
X1434033D2*
X2866192D1*
X2906885D2*
X3166192D1*
X3206885D2*
X3784990D1*
X3891260D2*
X4002665D1*
X4123633D2*
X4276348D1*
X448096Y1219980D2*
X1324688D1*
X1426562D2*
X1951445D1*
X2024804D2*
X2838213D1*
X2934912D2*
X3138213D1*
X3234912D2*
X3279912D1*
X3346337D2*
X3379912D1*
X3446337D2*
X3479912D1*
X3546337D2*
X3579912D1*
X3646337D2*
X3777665D1*
X3898633D2*
X4002665D1*
X4123633D2*
X4276348D1*
X448096Y1195112D2*
X1317118D1*
X1434130D2*
X1931962D1*
X2044286D2*
X2832597D1*
X2940528D2*
X3132597D1*
X3240528D2*
X3259112D1*
X3667138D2*
X3777665D1*
X3898633D2*
X4002665D1*
X4123633D2*
X4276348D1*
X448096Y1170243D2*
X1317118D1*
X1434130D2*
X1927714D1*
X2048534D2*
X2839776D1*
X2933301D2*
X3139776D1*
X3233301D2*
X3254668D1*
X3671581D2*
X3777665D1*
X3898633D2*
X4002665D1*
X4123633D2*
X4276348D1*
X448096Y1145374D2*
X1317118D1*
X1434130D2*
X1498564D1*
X1680029D2*
X1934697D1*
X2041552D2*
X2878349D1*
X2894764D2*
X3178349D1*
X3194764D2*
X3261944D1*
X3664306D2*
X3777665D1*
X3898633D2*
X4002665D1*
X4123633D2*
X4276348D1*
X448096Y1120505D2*
X1317118D1*
X1434130D2*
X1489530D1*
X1686816D2*
X1740458D1*
X1785790D2*
X1840458D1*
X1885790D2*
X1927665D1*
X2048633D2*
X2090458D1*
X2135790D2*
X2265458D1*
X2310790D2*
X3291386D1*
X3334862D2*
X3391386D1*
X3434862D2*
X3491386D1*
X3534862D2*
X3591386D1*
X3634862D2*
X3777665D1*
X3898633D2*
X4276348D1*
X448096Y1095636D2*
X1317118D1*
X1434130D2*
X1489433D1*
X1686816D2*
X1714336D1*
X1911962D2*
X1927665D1*
X2048633D2*
X2064301D1*
X2161962D2*
X2239336D1*
X2336962D2*
X3022978D1*
X3153272D2*
X4276348D1*
X448096Y1070768D2*
X1490117D1*
X1686816D2*
X1709209D1*
X2167089D2*
X2234209D1*
X2342089D2*
X3019756D1*
X3156493D2*
X3741093D1*
X3785156D2*
X3891093D1*
X3935156D2*
X4030253D1*
X4095996D2*
X4276348D1*
X448096Y1045899D2*
X1502861D1*
X1675097D2*
X1716924D1*
X1909325D2*
X1927665D1*
X2048633D2*
X2066878D1*
X2159325D2*
X2241924D1*
X2334325D2*
X2603692D1*
X2720702D2*
X3025761D1*
X3150488D2*
X3714433D1*
X3811816D2*
X3864433D1*
X3961816D2*
X4008916D1*
X4117333D2*
X4276348D1*
X448096Y1021030D2*
X1927665D1*
X2048633D2*
X2603692D1*
X2720702D2*
X3019804D1*
X3156445D2*
X3709160D1*
X3817089D2*
X3859160D1*
X3967089D2*
X4004180D1*
X4122070D2*
X4276348D1*
X448096Y996161D2*
X2603692D1*
X2720702D2*
X3025908D1*
X3150341D2*
X3716777D1*
X3809521D2*
X3866777D1*
X3959521D2*
X4010966D1*
X4115282D2*
X4276348D1*
X448096Y971293D2*
X2603692D1*
X2720702D2*
X3019804D1*
X3156445D2*
X4038164D1*
X4088085D2*
X4276348D1*
X448096Y946424D2*
X2615361D1*
X2709081D2*
X3028252D1*
X3147997D2*
X4276348D1*
X448096Y921555D2*
X1701104D1*
X1842188D2*
X2604472D1*
X2719921D2*
X2882206D1*
X3023290D2*
X3168144D1*
X3208105D2*
X3282500D1*
X3343798D2*
X3382500D1*
X3443798D2*
X3482500D1*
X3671630D2*
X4276348D1*
X448096Y896686D2*
X1665801D1*
X1877538D2*
X2605888D1*
X2718554D2*
X2846904D1*
X3058642D2*
X3139824D1*
X3236425D2*
X3259794D1*
X3671630D2*
X4276348D1*
X448096Y871818D2*
X971757D1*
X1104541D2*
X1293486D1*
X1381201D2*
X1644657D1*
X1898681D2*
X2140361D1*
X2229980D2*
X2303837D1*
X2460253D2*
X2620878D1*
X2703516D2*
X2825761D1*
X3079785D2*
X3134160D1*
X3242089D2*
X3254596D1*
X3671630D2*
X4276348D1*
X448096Y846949D2*
X971757D1*
X1104541D2*
X1275566D1*
X1399121D2*
X1631034D1*
X1912304D2*
X2117118D1*
X2253222D2*
X2303837D1*
X2460253D2*
X2615752D1*
X2708642D2*
X2812138D1*
X3093408D2*
X3141289D1*
X3234961D2*
X3261113D1*
X3671630D2*
X4276348D1*
X448096Y822080D2*
X971757D1*
X1104541D2*
X1270976D1*
X1403710D2*
X1622782D1*
X1920508D2*
X2108085D1*
X2262256D2*
X2303837D1*
X2460253D2*
X2604570D1*
X2719824D2*
X2803886D1*
X3101612D2*
X3178837D1*
X3197432D2*
X3287529D1*
X3338720D2*
X3387529D1*
X3438720D2*
X3487529D1*
X3538720D2*
X3554589D1*
X3671630D2*
X4276348D1*
X448096Y797211D2*
X971757D1*
X1104541D2*
X1276445D1*
X1398241D2*
X1619024D1*
X1924268D2*
X2107890D1*
X2262450D2*
X2303837D1*
X2460253D2*
X2605741D1*
X2718701D2*
X2800126D1*
X3105370D2*
X4276348D1*
X448096Y772343D2*
X971757D1*
X1104541D2*
X1296073D1*
X1378613D2*
X1619462D1*
X1923828D2*
X2116484D1*
X2253906D2*
X2303837D1*
X2460253D2*
X2620341D1*
X2704052D2*
X2800566D1*
X3104932D2*
X3452665D1*
X3573633D2*
X3745488D1*
X3780761D2*
X3895488D1*
X3930761D2*
X4276348D1*
X448096Y747474D2*
X1624101D1*
X1919189D2*
X2138652D1*
X2231738D2*
X2303837D1*
X2460253D2*
X2805205D1*
X3100293D2*
X3452665D1*
X3573633D2*
X3715264D1*
X3810986D2*
X3865264D1*
X3960986D2*
X4276348D1*
X448096Y722605D2*
X1633378D1*
X1909912D2*
X2814482D1*
X3091016D2*
X3452665D1*
X3573633D2*
X3709160D1*
X3817138D2*
X3859160D1*
X3967138D2*
X4276348D1*
X448096Y697736D2*
X1648369D1*
X1894921D2*
X2829472D1*
X3076025D2*
X3452665D1*
X3573633D2*
X3715849D1*
X3810449D2*
X3865849D1*
X3960449D2*
X4276348D1*
X448096Y672867D2*
X1671612D1*
X1871680D2*
X2852714D1*
X3052782D2*
X3452665D1*
X3573633D2*
X3749394D1*
X3926856D2*
X4004130D1*
X4122118D2*
X4276348D1*
X448096Y647999D2*
X1712626D1*
X1830664D2*
X2893730D1*
X3011768D2*
X3458232D1*
X3568017D2*
X3777665D1*
X3898633D2*
X4004130D1*
X4122118D2*
X4276348D1*
X448096Y623130D2*
X3173369D1*
X3202929D2*
X3452665D1*
X3573633D2*
X3777665D1*
X3898633D2*
X4004130D1*
X4122118D2*
X4276348D1*
X448096Y598261D2*
X3140702D1*
X3235546D2*
X3458232D1*
X3568017D2*
X3777665D1*
X3898633D2*
X4004130D1*
X4122118D2*
X4276348D1*
X448096Y573392D2*
X3134160D1*
X3242138D2*
X3480790D1*
X3545458D2*
X3777665D1*
X3898633D2*
X4004130D1*
X4122118D2*
X4276348D1*
X448096Y548524D2*
X3140409D1*
X3235888D2*
X3783476D1*
X3892773D2*
X4276348D1*
X448096Y523655D2*
X3171318D1*
X3204932D2*
X3777665D1*
X3898633D2*
X4276348D1*
X448096Y498786D2*
X3782988D1*
X3893261D2*
X4276348D1*
X448096Y473917D2*
X3804961D1*
X3871289D2*
X4276348D1*
X448096Y449049D2*
X4276348D1*
X3792886Y681113D2*
X3883315D1*
X3876719Y686713D1*
X3871472Y692857D1*
X3867251Y699747D1*
X3864157Y707211D1*
X3862272Y715068D1*
X3861638Y723123D1*
X3862272Y731178D1*
X3864157Y739035D1*
X3867251Y746500D1*
X3871472Y753390D1*
X3876719Y759534D1*
X3882864Y764781D1*
X3889753Y769003D1*
X3897218Y772096D1*
X3905075Y773982D1*
X3913130Y774615D1*
X3921185Y773982D1*
X3929042Y772096D1*
X3936507Y769003D1*
X3943396Y764781D1*
X3949541Y759534D1*
X3954787Y753390D1*
X3959009Y746500D1*
X3962102Y739035D1*
X3963988Y731178D1*
X3964622Y723123D1*
X3963988Y715068D1*
X3962102Y707211D1*
X3959009Y699747D1*
X3954787Y692857D1*
X3949541Y686713D1*
X3943396Y681466D1*
X3936507Y677244D1*
X3929042Y674151D1*
X3921185Y672265D1*
X3913130Y671631D1*
X3905075Y672265D1*
X3896106Y674562D1*
X3896118Y565136D1*
X3878199Y565042D1*
X3883272Y559524D1*
X3887589Y553398D1*
X3891080Y546766D1*
X3893688Y539739D1*
X3895366Y532434D1*
X3896118Y523125D1*
X3895634Y515646D1*
X3894189Y508291D1*
X3891807Y501185D1*
X3888529Y494445D1*
X3884409Y488184D1*
X3879517Y482507D1*
X3873932Y477508D1*
X3867749Y473272D1*
X3861072Y469867D1*
X3854012Y467354D1*
X3846686Y465772D1*
X3839218Y465147D1*
X3831731Y465491D1*
X3824350Y466798D1*
X3817201Y469045D1*
X3810400Y472196D1*
X3804064Y476198D1*
X3798295Y480984D1*
X3793193Y486474D1*
X3788841Y492575D1*
X3785312Y499188D1*
X3782667Y506199D1*
X3780948Y513495D1*
X3780182Y520950D1*
X3780386Y528442D1*
X3781554Y535845D1*
X3783667Y543035D1*
X3786690Y549894D1*
X3790572Y556304D1*
X3795249Y562161D1*
X3798173Y565133D1*
X3780142Y565136D1*
Y674560D1*
X3771185Y672265D1*
X3763130Y671631D1*
X3755075Y672265D1*
X3747218Y674151D1*
X3739753Y677244D1*
X3732864Y681466D1*
X3726719Y686713D1*
X3721472Y692857D1*
X3717251Y699747D1*
X3714157Y707211D1*
X3712272Y715068D1*
X3711638Y723123D1*
X3712272Y731178D1*
X3714157Y739035D1*
X3717251Y746500D1*
X3721472Y753390D1*
X3726719Y759534D1*
X3732864Y764781D1*
X3739753Y769003D1*
X3747218Y772096D1*
X3755075Y773982D1*
X3763130Y774615D1*
X3771185Y773982D1*
X3779042Y772096D1*
X3786507Y769003D1*
X3793396Y764781D1*
X3799541Y759534D1*
X3804787Y753390D1*
X3809009Y746500D1*
X3812102Y739035D1*
X3813988Y731178D1*
X3814622Y723123D1*
X3813988Y715068D1*
X3812102Y707211D1*
X3809009Y699747D1*
X3804787Y692857D1*
X3799541Y686713D1*
X3792858Y681105D1*
X3792642Y1231113D2*
X3798159D1*
X3791655Y1238444D1*
X3787571Y1244728D1*
X3784331Y1251486D1*
X3781988Y1258605D1*
X3780585Y1265967D1*
X3780143Y1273449D1*
X3780669Y1280925D1*
X3782155Y1288272D1*
X3784576Y1295365D1*
X3787892Y1302087D1*
X3792047Y1308324D1*
X3796971Y1313974D1*
X3802584Y1318941D1*
X3808790Y1323143D1*
X3815486Y1326509D1*
X3822560Y1328984D1*
X3829895Y1330525D1*
X3837367Y1331108D1*
X3844852Y1330722D1*
X3852224Y1329374D1*
X3859361Y1327087D1*
X3866144Y1323898D1*
X3872458Y1319860D1*
X3878199Y1315042D1*
X3883272Y1309524D1*
X3887589Y1303398D1*
X3891080Y1296766D1*
X3893688Y1289739D1*
X3895366Y1282434D1*
X3896118Y1273125D1*
X3895634Y1265646D1*
X3894189Y1258291D1*
X3891807Y1251185D1*
X3888529Y1244445D1*
X3884409Y1238184D1*
X3878084Y1231109D1*
X3896118Y1231113D1*
Y1115136D1*
X3780142D1*
Y1231113D1*
X3792642D1*
X4121064Y1295626D2*
X4120259Y1288175D1*
X4118497Y1280888D1*
X4115812Y1273892D1*
X4112247Y1267299D1*
X4107861Y1261222D1*
X4103084Y1256109D1*
X4121118Y1256113D1*
Y1140136D1*
X4005142D1*
Y1256113D1*
X4023159D1*
X4016655Y1263444D1*
X4012571Y1269728D1*
X4009331Y1276486D1*
X4006988Y1283605D1*
X4005585Y1290967D1*
X4005143Y1298449D1*
X4005669Y1305925D1*
X4007155Y1313272D1*
X4009576Y1320365D1*
X4012892Y1327087D1*
X4017047Y1333324D1*
X4021971Y1338974D1*
X4027584Y1343941D1*
X4033790Y1348143D1*
X4040486Y1351509D1*
X4047560Y1353984D1*
X4054895Y1355525D1*
X4062367Y1356108D1*
X4069852Y1355722D1*
X4077224Y1354374D1*
X4084361Y1352087D1*
X4091144Y1348898D1*
X4097458Y1344860D1*
X4103199Y1340042D1*
X4108272Y1334524D1*
X4112589Y1328398D1*
X4116080Y1321766D1*
X4118688Y1314739D1*
X4120366Y1307434D1*
X4121118Y1298125D1*
X4121064Y1295626D1*
X3571064Y620625D2*
X3570259Y613173D1*
X3568497Y605887D1*
X3565812Y598891D1*
X3562247Y592298D1*
X3557861Y586220D1*
X3552727Y580760D1*
X3546933Y576007D1*
X3540573Y572041D1*
X3533756Y568928D1*
X3526593Y566719D1*
X3519206Y565454D1*
X3511718Y565152D1*
X3504252Y565819D1*
X3496936Y567442D1*
X3489890Y569996D1*
X3483231Y573437D1*
X3477073Y577709D1*
X3471517Y582739D1*
X3466655Y588442D1*
X3462571Y594727D1*
X3459331Y601484D1*
X3456988Y608604D1*
X3455585Y615966D1*
X3455143Y623448D1*
X3455669Y630924D1*
X3457155Y638270D1*
X3459576Y645364D1*
X3462892Y652085D1*
X3467047Y658323D1*
X3473173Y665131D1*
X3455142Y665135D1*
Y781112D1*
X3571118D1*
Y665135D1*
X3553199Y665041D1*
X3558272Y659522D1*
X3562589Y653396D1*
X3566080Y646765D1*
X3568688Y639738D1*
X3570366Y632433D1*
X3571118Y623123D1*
X3571064Y620625D1*
X3255139Y1283169D2*
X3248932Y1277508D1*
X3242749Y1273272D1*
X3236072Y1269867D1*
X3229012Y1267354D1*
X3221686Y1265772D1*
X3214218Y1265147D1*
X3206731Y1265491D1*
X3199350Y1266798D1*
X3192201Y1269045D1*
X3185400Y1272196D1*
X3179064Y1276198D1*
X3173295Y1280984D1*
X3168193Y1286474D1*
X3163841Y1292575D1*
X3160312Y1299188D1*
X3157667Y1306199D1*
X3155948Y1313495D1*
X3155182Y1320950D1*
X3155386Y1328442D1*
X3156554Y1335845D1*
X3158667Y1343035D1*
X3161690Y1349894D1*
X3165572Y1356304D1*
X3170249Y1362161D1*
X3175642Y1367366D1*
X3181661Y1371832D1*
X3188206Y1375483D1*
X3195168Y1378261D1*
X3202429Y1380117D1*
X3209869Y1381021D1*
X3217364Y1380958D1*
X3224787Y1379929D1*
X3232016Y1377951D1*
X3238929Y1375058D1*
X3245412Y1371297D1*
X3251356Y1366730D1*
X3255147Y1363081D1*
X3255142Y1381113D1*
X3371118D1*
Y1265136D1*
X3255142D1*
Y1283154D1*
X3195940Y1693575D2*
X3194516Y1684588D1*
X3191703Y1675933D1*
X3187573Y1667825D1*
X3182224Y1660465D1*
X3175790Y1654030D1*
X3168429Y1648681D1*
X3160322Y1644551D1*
X3151667Y1641739D1*
X3142680Y1640315D1*
X3133580D1*
X3124593Y1641739D1*
X3115938Y1644551D1*
X3107831Y1648681D1*
X3100470Y1654030D1*
X3094035Y1660465D1*
X3088686Y1667825D1*
X3084556Y1675933D1*
X3081744Y1684588D1*
X3080320Y1693575D1*
Y1702675D1*
X3081744Y1711661D1*
X3084556Y1720316D1*
X3088686Y1728424D1*
X3094035Y1735785D1*
X3100470Y1742219D1*
X3107831Y1747568D1*
X3115938Y1751698D1*
X3124593Y1754510D1*
X3133580Y1755934D1*
X3142680D1*
X3151667Y1754510D1*
X3160322Y1751698D1*
X3168429Y1747568D1*
X3175790Y1742219D1*
X3182224Y1735785D1*
X3187573Y1728424D1*
X3191703Y1720316D1*
X3194516Y1711661D1*
X3195940Y1702675D1*
Y1693575D1*
X3092642Y1556113D2*
X3196118D1*
Y1440136D1*
X3080142D1*
Y1556113D1*
X3092642D1*
X2194365Y1667000D2*
X2192941Y1658013D1*
X2190129Y1649358D1*
X2185999Y1641251D1*
X2180650Y1633890D1*
X2174215Y1627455D1*
X2166854Y1622106D1*
X2158747Y1617976D1*
X2150092Y1615164D1*
X2141105Y1613740D1*
X2132005D1*
X2123018Y1615164D1*
X2114364Y1617976D1*
X2106256Y1622106D1*
X2098895Y1627455D1*
X2092461Y1633890D1*
X2087112Y1641251D1*
X2082982Y1649358D1*
X2080169Y1658013D1*
X2078745Y1667000D1*
Y1676100D1*
X2080169Y1685087D1*
X2082982Y1693741D1*
X2087112Y1701849D1*
X2092461Y1709210D1*
X2098895Y1715644D1*
X2106256Y1720993D1*
X2114364Y1725123D1*
X2123018Y1727936D1*
X2132005Y1729360D1*
X2141105D1*
X2150092Y1727936D1*
X2158747Y1725123D1*
X2166854Y1720993D1*
X2174215Y1715644D1*
X2180650Y1709210D1*
X2185999Y1701849D1*
X2190129Y1693741D1*
X2192941Y1685087D1*
X2194365Y1676100D1*
Y1667000D1*
X2291067Y1729538D2*
X2394543D1*
Y1613562D1*
X2278567D1*
Y1729538D1*
X2291067D1*
X2396064Y1495626D2*
X2395259Y1488175D1*
X2393497Y1480888D1*
X2390812Y1473892D1*
X2387247Y1467299D1*
X2382861Y1461222D1*
X2377727Y1455761D1*
X2371933Y1451008D1*
X2365573Y1447042D1*
X2358756Y1443929D1*
X2351593Y1441720D1*
X2344206Y1440455D1*
X2336718Y1440154D1*
X2329252Y1440820D1*
X2321936Y1442444D1*
X2314890Y1444997D1*
X2308231Y1448438D1*
X2302073Y1452710D1*
X2296517Y1457740D1*
X2291655Y1463444D1*
X2287571Y1469728D1*
X2284331Y1476486D1*
X2281988Y1483605D1*
X2280585Y1490967D1*
X2280143Y1498449D1*
X2280669Y1505925D1*
X2282155Y1513272D1*
X2284576Y1520365D1*
X2287892Y1527087D1*
X2292047Y1533324D1*
X2296971Y1538974D1*
X2302584Y1543941D1*
X2308790Y1548143D1*
X2315486Y1551509D1*
X2322560Y1553984D1*
X2329895Y1555525D1*
X2337367Y1556108D1*
X2344852Y1555722D1*
X2352224Y1554374D1*
X2359361Y1552087D1*
X2366144Y1548898D1*
X2372458Y1544860D1*
X2378199Y1540042D1*
X2383272Y1534524D1*
X2387589Y1528398D1*
X2391080Y1521766D1*
X2393688Y1514739D1*
X2395366Y1507434D1*
X2396118Y1498125D1*
X2396064Y1495626D1*
X2092642Y1556113D2*
X2196118D1*
Y1440136D1*
X2080142D1*
Y1556113D1*
X2092642D1*
X2046064Y1170626D2*
X2045259Y1163175D1*
X2043497Y1155888D1*
X2040812Y1148892D1*
X2037247Y1142299D1*
X2032861Y1136222D1*
X2028084Y1131109D1*
X2046118Y1131113D1*
Y1015136D1*
X1930142D1*
Y1131113D1*
X1948160D1*
X1941655Y1138444D1*
X1937571Y1144728D1*
X1934331Y1151486D1*
X1931988Y1158605D1*
X1930585Y1165967D1*
X1930143Y1173449D1*
X1930669Y1180925D1*
X1932155Y1188272D1*
X1934576Y1195365D1*
X1937892Y1202087D1*
X1942047Y1208324D1*
X1946971Y1213974D1*
X1952584Y1218941D1*
X1958790Y1223143D1*
X1965486Y1226509D1*
X1972560Y1228984D1*
X1979895Y1230525D1*
X1987367Y1231108D1*
X1994852Y1230722D1*
X2002224Y1229374D1*
X2009361Y1227087D1*
X2016144Y1223898D1*
X2022458Y1219860D1*
X2028199Y1215042D1*
X2033272Y1209524D1*
X2037589Y1203398D1*
X2041080Y1196766D1*
X2043688Y1189739D1*
X2045366Y1182434D1*
X2046118Y1173125D1*
X2046064Y1170626D1*
X4278839Y3796850D2*
X4273007Y3791588D1*
X4266824Y3787352D1*
X4260147Y3783948D1*
X4253087Y3781434D1*
X4245761Y3779852D1*
X4238293Y3779227D1*
X4230806Y3779571D1*
X4223425Y3780878D1*
X4216276Y3783125D1*
X4209475Y3786276D1*
X4203139Y3790278D1*
X4197370Y3795064D1*
X4195193Y3797194D1*
Y3779217D1*
X4169949D1*
X4169957Y3743210D1*
X4264091Y3743224D1*
Y3631185D1*
X4085122D1*
Y3743224D1*
X4104409D1*
X4104453Y3779245D1*
X4079217Y3779217D1*
Y3895193D1*
X4104461D1*
X4104453Y3960105D1*
X4081185Y3960122D1*
Y3979409D1*
X4045164Y3979453D1*
X4045193Y3954217D1*
X3929217D1*
Y4070193D1*
X3947235D1*
X3940730Y4077524D1*
X3936646Y4083808D1*
X3933406Y4090566D1*
X3931063Y4097685D1*
X3929660Y4105047D1*
X3929218Y4112529D1*
X3929744Y4120005D1*
X3931230Y4127352D1*
X3933651Y4134445D1*
X3936967Y4141167D1*
X3941122Y4147404D1*
X3946046Y4153054D1*
X3951659Y4158021D1*
X3957865Y4162223D1*
X3964560Y4165589D1*
X3971635Y4168064D1*
X3978970Y4169605D1*
X3986442Y4170188D1*
X3993927Y4169802D1*
X4001299Y4168454D1*
X4008436Y4166167D1*
X4015219Y4162978D1*
X4021533Y4158940D1*
X4027274Y4154122D1*
X4032346Y4148604D1*
X4036664Y4142478D1*
X4040155Y4135846D1*
X4042762Y4128819D1*
X4044441Y4121514D1*
X4045193Y4112205D1*
X4044709Y4104726D1*
X4043264Y4097371D1*
X4040882Y4090265D1*
X4037604Y4083525D1*
X4033484Y4077264D1*
X4027159Y4070189D1*
X4045193Y4070193D1*
Y4044949D1*
X4081199Y4044957D1*
X4081185Y4139091D1*
X4193224D1*
Y3960122D1*
X4169933D1*
X4169957Y3895164D1*
X4195193Y3895193D1*
Y3877175D1*
X4201659Y3883021D1*
X4207865Y3887223D1*
X4214560Y3890589D1*
X4221635Y3893064D1*
X4228970Y3894605D1*
X4236442Y3895188D1*
X4243927Y3894802D1*
X4251299Y3893454D1*
X4258436Y3891167D1*
X4265219Y3887978D1*
X4271533Y3883940D1*
X4278843Y3877556D1*
X4278839Y4278823D1*
X445587Y4278839D1*
X445571Y445587D1*
X4278823Y445571D1*
X4278839Y3085951D1*
X3910811Y3085909D1*
X3910714Y3550739D1*
X3901757Y3545722D1*
X3892434Y3541425D1*
X3882803Y3537871D1*
X3872923Y3535085D1*
X3862854Y3533083D1*
X3852659Y3531875D1*
X3842402Y3531472D1*
X3832144Y3531875D1*
X3821949Y3533083D1*
X3811881Y3535085D1*
X3802000Y3537871D1*
X3792369Y3541425D1*
X3783046Y3545722D1*
X3774089Y3550739D1*
X3765554Y3556442D1*
X3757492Y3562798D1*
X3749953Y3569765D1*
X3742986Y3577304D1*
X3736630Y3585366D1*
X3730927Y3593902D1*
X3725909Y3602858D1*
X3721613Y3612181D1*
X3718059Y3621812D1*
X3715273Y3631693D1*
X3713270Y3641761D1*
X3711902Y3656083D1*
X3708459Y3648297D1*
X3704492Y3641938D1*
X3699711Y3636165D1*
X3694203Y3631084D1*
X3688067Y3626782D1*
X3681411Y3623339D1*
X3674354Y3620815D1*
X3667024Y3619255D1*
X3659551Y3618688D1*
X3652068Y3619122D1*
X3644713Y3620552D1*
X3637612Y3622951D1*
X3630896Y3626277D1*
X3624684Y3630469D1*
X3619087Y3635453D1*
X3614205Y3641139D1*
X3610126Y3647427D1*
X3606923Y3654202D1*
X3604652Y3661344D1*
X3603356Y3668726D1*
X3603055Y3676214D1*
X3603759Y3683675D1*
X3605450Y3690976D1*
X3608102Y3697986D1*
X3611665Y3704579D1*
X3616077Y3710636D1*
X3621259Y3716052D1*
X3627115Y3720727D1*
X3633545Y3724579D1*
X3640430Y3727538D1*
X3647648Y3729551D1*
X3655072Y3730583D1*
X3662566Y3730614D1*
X3669997Y3729646D1*
X3677234Y3727693D1*
X3684144Y3724793D1*
X3690605Y3720995D1*
X3696501Y3716370D1*
X3701728Y3710999D1*
X3706190Y3704978D1*
X3709810Y3698415D1*
X3712521Y3691428D1*
X3713878Y3686184D1*
X3718059Y3702615D1*
X3721613Y3712247D1*
X3725909Y3721570D1*
X3730927Y3730526D1*
X3736630Y3739062D1*
X3742986Y3747123D1*
X3749953Y3754663D1*
X3757492Y3761630D1*
X3765554Y3767986D1*
X3774089Y3773689D1*
X3783046Y3778706D1*
X3792369Y3783003D1*
X3802000Y3786556D1*
X3811881Y3789343D1*
X3821949Y3791345D1*
X3832144Y3792552D1*
X3842402Y3792955D1*
X3852659Y3792552D1*
X3862854Y3791345D1*
X3872923Y3789343D1*
X3882803Y3786556D1*
X3892434Y3783003D1*
X3901757Y3778706D1*
X3910714Y3773689D1*
X3919249Y3767986D1*
X3927311Y3761630D1*
X3934850Y3754663D1*
X3941818Y3747123D1*
X3948173Y3739062D1*
X3953877Y3730526D1*
X3958894Y3721570D1*
X3963190Y3712247D1*
X3966744Y3702615D1*
X3969530Y3692735D1*
X3971533Y3682667D1*
X3972740Y3672471D1*
X3973143Y3662214D1*
X3972740Y3651957D1*
X3971533Y3641761D1*
X3969530Y3631693D1*
X3966744Y3621812D1*
X3963190Y3612181D1*
X3958894Y3602858D1*
X3953877Y3593902D1*
X3948173Y3585366D1*
X3941818Y3577304D1*
X3934850Y3569765D1*
X3927311Y3562798D1*
X3919249Y3556442D1*
X3910714Y3550739D1*
X3918946Y3556217D1*
X4278848D1*
X4278839Y3796890D1*
X880139Y1633169D2*
X873932Y1627508D1*
X867749Y1623272D1*
X861072Y1619867D1*
X854012Y1617354D1*
X846686Y1615772D1*
X839218Y1615147D1*
X831731Y1615491D1*
X824350Y1616798D1*
X817201Y1619045D1*
X810400Y1622196D1*
X804064Y1626198D1*
X798295Y1630984D1*
X793193Y1636474D1*
X788841Y1642575D1*
X785312Y1649188D1*
X782667Y1656199D1*
X780948Y1663495D1*
X780182Y1670950D1*
X780386Y1678442D1*
X781554Y1685845D1*
X783667Y1693035D1*
X786690Y1699894D1*
X790572Y1706304D1*
X795249Y1712161D1*
X800642Y1717366D1*
X806661Y1721832D1*
X813206Y1725483D1*
X820168Y1728261D1*
X827429Y1730117D1*
X834869Y1731021D1*
X842364Y1730958D1*
X849787Y1729929D1*
X857016Y1727951D1*
X863929Y1725058D1*
X870412Y1721297D1*
X876356Y1716730D1*
X880147Y1713081D1*
X880142Y1731113D1*
X996118D1*
Y1615136D1*
X880142D1*
Y1633154D1*
X880139Y1483169D2*
X873932Y1477508D1*
X867749Y1473272D1*
X861072Y1469867D1*
X854012Y1467354D1*
X846686Y1465772D1*
X839218Y1465147D1*
X831731Y1465491D1*
X824350Y1466798D1*
X817201Y1469045D1*
X810400Y1472196D1*
X804064Y1476198D1*
X798295Y1480984D1*
X793193Y1486474D1*
X788841Y1492575D1*
X785312Y1499188D1*
X782667Y1506199D1*
X780948Y1513495D1*
X780182Y1520950D1*
X780386Y1528442D1*
X781554Y1535845D1*
X783667Y1543035D1*
X786690Y1549894D1*
X790572Y1556304D1*
X795249Y1562161D1*
X800642Y1567366D1*
X806661Y1571832D1*
X813206Y1575483D1*
X820168Y1578261D1*
X827429Y1580117D1*
X834869Y1581021D1*
X842364Y1580958D1*
X849787Y1579929D1*
X857016Y1577951D1*
X863929Y1575058D1*
X870412Y1571297D1*
X876356Y1566730D1*
X880147Y1563081D1*
X880142Y1581113D1*
X996118D1*
Y1465136D1*
X880142D1*
Y1483154D1*
X1055139Y1908168D2*
X1048932Y1902507D1*
X1042749Y1898270D1*
X1036072Y1894866D1*
X1029012Y1892353D1*
X1021686Y1890770D1*
X1014218Y1890146D1*
X1006731Y1890490D1*
X999350Y1891797D1*
X992201Y1894043D1*
X985400Y1897194D1*
X979064Y1901197D1*
X973295Y1905983D1*
X968193Y1911472D1*
X963841Y1917573D1*
X960312Y1924186D1*
X957667Y1931198D1*
X955948Y1938493D1*
X955182Y1945949D1*
X955386Y1953441D1*
X956554Y1960844D1*
X958667Y1968034D1*
X961690Y1974892D1*
X965572Y1981303D1*
X970249Y1987160D1*
X975642Y1992365D1*
X981661Y1996831D1*
X988206Y2000482D1*
X995168Y2003260D1*
X1002429Y2005115D1*
X1009869Y2006020D1*
X1017364Y2005957D1*
X1024787Y2004928D1*
X1032016Y2002950D1*
X1038929Y2000056D1*
X1045412Y1996295D1*
X1051356Y1991728D1*
X1055147Y1988080D1*
X1055142Y2006112D1*
X1171118D1*
Y1890135D1*
X1055142D1*
Y1908152D1*
X1242639Y1345669D2*
X1236432Y1340008D1*
X1230249Y1335772D1*
X1223572Y1332367D1*
X1216512Y1329854D1*
X1209186Y1328272D1*
X1201718Y1327647D1*
X1194231Y1327991D1*
X1186850Y1329298D1*
X1179701Y1331545D1*
X1172900Y1334696D1*
X1166564Y1338698D1*
X1160795Y1343484D1*
X1155693Y1348974D1*
X1151341Y1355075D1*
X1147812Y1361688D1*
X1145167Y1368699D1*
X1143448Y1375995D1*
X1142682Y1383450D1*
X1142886Y1390942D1*
X1144054Y1398345D1*
X1146167Y1405535D1*
X1149190Y1412394D1*
X1153072Y1418804D1*
X1157749Y1424661D1*
X1163142Y1429866D1*
X1169161Y1434332D1*
X1175706Y1437983D1*
X1182668Y1440761D1*
X1189929Y1442617D1*
X1197369Y1443521D1*
X1204864Y1443458D1*
X1212287Y1442429D1*
X1219516Y1440451D1*
X1226429Y1437558D1*
X1232912Y1433797D1*
X1238856Y1429230D1*
X1242647Y1425581D1*
X1242642Y1443613D1*
X1358618D1*
Y1327636D1*
X1242642D1*
Y1345654D1*
X3643685Y2893224D2*
X3648226D1*
X3648213Y3141062D1*
X3639157Y3141028D1*
Y3215100D1*
X3470261Y3215142D1*
X3439341Y3184198D1*
X3469996Y3184169D1*
Y2918587D1*
X3376197D1*
Y2894493D1*
X3425705Y2894504D1*
Y2754906D1*
X3248705D1*
Y2894504D1*
X3298168D1*
X3298213Y2918601D1*
X3204413Y2918587D1*
Y3184169D1*
X3329072D1*
X3428811Y3283783D1*
X3433760Y3287381D1*
X3439213Y3290157D1*
X3445031Y3292049D1*
X3451075Y3293005D1*
X3566634Y3293126D1*
X3639143D1*
X3639157Y3348211D1*
X3559146Y3348333D1*
X3553102Y3349290D1*
X3547283Y3351181D1*
X3541832Y3353958D1*
X3536882Y3357555D1*
X3496067Y3398199D1*
X3469969Y3398213D1*
X3469996Y3304413D1*
X3204413D1*
Y3569996D1*
X3339814D1*
X3406205Y3636348D1*
X3406185Y3730724D1*
X3518224D1*
Y3618685D1*
X3496496D1*
X3491854Y3611882D1*
X3450105Y3569962D1*
X3469996Y3569996D1*
Y3476197D1*
X3515264Y3476076D1*
X3521307Y3475119D1*
X3527126Y3473228D1*
X3532577Y3470451D1*
X3537528Y3466854D1*
X3578343Y3426210D1*
X3639109Y3426197D1*
X3639157Y3501098D1*
X3810252D1*
Y3141028D1*
X3726219D1*
X3726197Y2893210D1*
X3743224Y2893224D1*
Y2811340D1*
X4003385Y2551168D1*
X4106199Y2551197D1*
X4106185Y2568224D1*
X4127524D1*
X4122236Y2572953D1*
X4117354Y2578639D1*
X4113276Y2584927D1*
X4110072Y2591702D1*
X4107802Y2598844D1*
X4106505Y2606226D1*
X4106205Y2613714D1*
X4106908Y2621175D1*
X4108600Y2628476D1*
X4111252Y2635486D1*
X4114815Y2642079D1*
X4119227Y2648136D1*
X4124408Y2653552D1*
X4130265Y2658227D1*
X4136694Y2662079D1*
X4143580Y2665038D1*
X4150798Y2667051D1*
X4158222Y2668083D1*
X4165715Y2668114D1*
X4173147Y2667146D1*
X4180383Y2665193D1*
X4187294Y2662293D1*
X4193755Y2658495D1*
X4199651Y2653870D1*
X4204878Y2648499D1*
X4209340Y2642478D1*
X4212959Y2635915D1*
X4215671Y2628928D1*
X4217424Y2621642D1*
X4218224Y2612205D1*
X4217723Y2604727D1*
X4216228Y2597383D1*
X4213766Y2590304D1*
X4210382Y2583618D1*
X4206135Y2577444D1*
X4201101Y2571891D1*
X4196882Y2568220D1*
X4218224Y2568224D1*
Y2456185D1*
X4201184D1*
X4201197Y2269676D1*
X4206142Y2261487D1*
X4209979Y2252224D1*
X4212320Y2242475D1*
X4213106Y2232480D1*
X4212320Y2222486D1*
X4209979Y2212736D1*
X4206142Y2203474D1*
X4200904Y2194924D1*
X4194392Y2187301D1*
X4186769Y2180789D1*
X4178219Y2175551D1*
X4168957Y2171714D1*
X4159207Y2169373D1*
X4149213Y2168587D1*
X4139218Y2169373D1*
X4129469Y2171714D1*
X4120206Y2175551D1*
X4111656Y2180789D1*
X4104033Y2187301D1*
X4097521Y2194924D1*
X4095333Y2198199D1*
X3945220Y2198213D1*
X3945193Y2075280D1*
X3718980D1*
Y2204429D1*
X3209635Y2204554D1*
X3202084Y2206055D1*
X3195092Y2209280D1*
X3189046Y2214046D1*
X2948636Y2454455D1*
X2657077Y2454453D1*
X2651862Y2451818D1*
X2645836Y2449898D1*
X2825762Y2269965D1*
X3114774Y2269856D1*
X3122325Y2268354D1*
X3129318Y2265130D1*
X3135364Y2260364D1*
X3196856Y2198871D1*
X3204042Y2197097D1*
X3211507Y2194004D1*
X3218396Y2189782D1*
X3224541Y2184535D1*
X3229787Y2178391D1*
X3234009Y2171501D1*
X3237102Y2164037D1*
X3238126Y2160404D1*
X3240558Y2167829D1*
X3244226Y2175029D1*
X3248975Y2181566D1*
X3254689Y2187280D1*
X3261226Y2192029D1*
X3268425Y2195697D1*
X3276109Y2198194D1*
X3284091Y2199458D1*
X3292169D1*
X3300151Y2198194D1*
X3307835Y2195697D1*
X3315034Y2192029D1*
X3321571Y2187280D1*
X3327823Y2180885D1*
X3340699Y2180776D1*
X3348251Y2179274D1*
X3355243Y2176050D1*
X3361289Y2171283D1*
X3438035Y2094395D1*
X3442312Y2087993D1*
X3444978Y2080770D1*
X3445781Y2075684D1*
X3469150Y2075207D1*
Y1896239D1*
X3357110D1*
Y2075207D1*
X3364777D1*
X3326339Y2113598D1*
X3321571Y2108970D1*
X3315034Y2104220D1*
X3307835Y2100552D1*
X3300151Y2098055D1*
X3292169Y2096791D1*
X3284091D1*
X3276109Y2098055D1*
X3268425Y2100552D1*
X3261226Y2104220D1*
X3254689Y2108970D1*
X3248975Y2114684D1*
X3244226Y2121220D1*
X3240558Y2128420D1*
X3238134Y2135845D1*
X3235702Y2128420D1*
X3232034Y2121220D1*
X3227285Y2114684D1*
X3221571Y2108970D1*
X3215034Y2104220D1*
X3207835Y2100552D1*
X3200151Y2098055D1*
X3192169Y2096791D1*
X3184091D1*
X3176109Y2098055D1*
X3168425Y2100552D1*
X3161226Y2104220D1*
X3154689Y2108970D1*
X3148975Y2114684D1*
X3144226Y2121220D1*
X3140558Y2128420D1*
X3138134Y2135845D1*
X3135702Y2128420D1*
X3132034Y2121220D1*
X3127285Y2114684D1*
X3121571Y2108970D1*
X3115034Y2104220D1*
X3107835Y2100552D1*
X3100151Y2098055D1*
X3092169Y2096791D1*
X3084091D1*
X3076109Y2098055D1*
X3068425Y2100552D1*
X3061226Y2104220D1*
X3054689Y2108970D1*
X3048975Y2114684D1*
X3044226Y2121220D1*
X3040558Y2128420D1*
X3038134Y2135845D1*
X3035702Y2128420D1*
X3032034Y2121220D1*
X3027285Y2114684D1*
X3021571Y2108970D1*
X3015034Y2104220D1*
X3007835Y2100552D1*
X3000151Y2098055D1*
X2992169Y2096791D1*
X2984091D1*
X2976109Y2098055D1*
X2968425Y2100552D1*
X2961226Y2104220D1*
X2954689Y2108970D1*
X2948975Y2114684D1*
X2944226Y2121220D1*
X2940558Y2128420D1*
X2938134Y2135845D1*
X2935702Y2128420D1*
X2932034Y2121220D1*
X2927285Y2114684D1*
X2921571Y2108970D1*
X2915034Y2104220D1*
X2907835Y2100552D1*
X2900151Y2098055D1*
X2892169Y2096791D1*
X2884091D1*
X2876109Y2098055D1*
X2868425Y2100552D1*
X2861226Y2104220D1*
X2854689Y2108970D1*
X2848975Y2114684D1*
X2844226Y2121220D1*
X2840558Y2128420D1*
X2838134Y2135845D1*
X2835702Y2128420D1*
X2832034Y2121220D1*
X2827285Y2114684D1*
X2821571Y2108970D1*
X2815034Y2104220D1*
X2807835Y2100552D1*
X2800151Y2098055D1*
X2792169Y2096791D1*
X2784091D1*
X2776109Y2098055D1*
X2768425Y2100552D1*
X2761226Y2104220D1*
X2754689Y2108970D1*
X2748975Y2114684D1*
X2744226Y2121220D1*
X2740558Y2128420D1*
X2738134Y2135845D1*
X2735702Y2128420D1*
X2732034Y2121220D1*
X2727285Y2114684D1*
X2721571Y2108970D1*
X2715034Y2104220D1*
X2707835Y2100552D1*
X2700151Y2098055D1*
X2692169Y2096791D1*
X2684091D1*
X2676109Y2098055D1*
X2668425Y2100552D1*
X2661226Y2104220D1*
X2654689Y2108970D1*
X2648975Y2114684D1*
X2644226Y2121220D1*
X2640558Y2128420D1*
X2638134Y2135845D1*
X2635702Y2128420D1*
X2632034Y2121220D1*
X2627285Y2114684D1*
X2621571Y2108970D1*
X2615034Y2104220D1*
X2607835Y2100552D1*
X2600151Y2098055D1*
X2592169Y2096791D1*
X2584091D1*
X2576109Y2098055D1*
X2568425Y2100552D1*
X2561226Y2104220D1*
X2554689Y2108970D1*
X2548975Y2114684D1*
X2544226Y2121220D1*
X2540558Y2128420D1*
X2538134Y2135845D1*
X2535702Y2128420D1*
X2532034Y2121220D1*
X2527285Y2114684D1*
X2521571Y2108970D1*
X2515034Y2104220D1*
X2507835Y2100552D1*
X2500151Y2098055D1*
X2492169Y2096791D1*
X2484091D1*
X2476109Y2098055D1*
X2468425Y2100552D1*
X2461226Y2104220D1*
X2454689Y2108970D1*
X2448975Y2114684D1*
X2444226Y2121220D1*
X2440558Y2128420D1*
X2438134Y2135845D1*
X2435702Y2128420D1*
X2432034Y2121220D1*
X2427285Y2114684D1*
X2421571Y2108970D1*
X2415034Y2104220D1*
X2407835Y2100552D1*
X2400151Y2098055D1*
X2392169Y2096791D1*
X2384091D1*
X2376109Y2098055D1*
X2368425Y2100552D1*
X2361226Y2104220D1*
X2354689Y2108970D1*
X2348975Y2114684D1*
X2344226Y2121220D1*
X2340558Y2128420D1*
X2338134Y2135845D1*
X2335702Y2128420D1*
X2332034Y2121220D1*
X2327285Y2114684D1*
X2321571Y2108970D1*
X2315034Y2104220D1*
X2307835Y2100552D1*
X2300151Y2098055D1*
X2292169Y2096791D1*
X2284091D1*
X2276109Y2098055D1*
X2268425Y2100552D1*
X2261226Y2104220D1*
X2254689Y2108970D1*
X2248975Y2114684D1*
X2244226Y2121220D1*
X2240558Y2128420D1*
X2238060Y2136104D1*
X2236797Y2144085D1*
Y2152164D1*
X2238060Y2160146D1*
X2240558Y2167829D1*
X2244226Y2175029D1*
X2248975Y2181566D1*
X2254689Y2187280D1*
X2261226Y2192029D1*
X2268425Y2195697D1*
X2276109Y2198194D1*
X2284091Y2199458D1*
X2292169D1*
X2300151Y2198194D1*
X2307835Y2195697D1*
X2315034Y2192029D1*
X2321571Y2187280D1*
X2327285Y2181566D1*
X2332034Y2175029D1*
X2335702Y2167829D1*
X2338126Y2160404D1*
X2340558Y2167829D1*
X2344226Y2175029D1*
X2348975Y2181566D1*
X2354689Y2187280D1*
X2361226Y2192029D1*
X2368425Y2195697D1*
X2376109Y2198194D1*
X2384091Y2199458D1*
X2392169D1*
X2400151Y2198194D1*
X2407835Y2195697D1*
X2415034Y2192029D1*
X2421571Y2187280D1*
X2427285Y2181566D1*
X2432034Y2175029D1*
X2435702Y2167829D1*
X2438126Y2160404D1*
X2440558Y2167829D1*
X2444226Y2175029D1*
X2448975Y2181566D1*
X2454689Y2187280D1*
X2461226Y2192029D1*
X2468425Y2195697D1*
X2476109Y2198194D1*
X2484091Y2199458D1*
X2492169D1*
X2500151Y2198194D1*
X2507835Y2195697D1*
X2515034Y2192029D1*
X2521571Y2187280D1*
X2527285Y2181566D1*
X2532034Y2175029D1*
X2535702Y2167829D1*
X2538126Y2160404D1*
X2540558Y2167829D1*
X2544226Y2175029D1*
X2548975Y2181566D1*
X2554689Y2187280D1*
X2561226Y2192029D1*
X2568425Y2195697D1*
X2576109Y2198194D1*
X2584091Y2199458D1*
X2592169D1*
X2600151Y2198194D1*
X2607835Y2195697D1*
X2615034Y2192029D1*
X2621571Y2187280D1*
X2627285Y2181566D1*
X2632034Y2175029D1*
X2635702Y2167829D1*
X2638126Y2160404D1*
X2640558Y2167829D1*
X2644226Y2175029D1*
X2648975Y2181566D1*
X2654689Y2187280D1*
X2661226Y2192029D1*
X2668425Y2195697D1*
X2676109Y2198194D1*
X2684091Y2199458D1*
X2692169D1*
X2700151Y2198194D1*
X2707835Y2195697D1*
X2715034Y2192029D1*
X2721571Y2187280D1*
X2727285Y2181566D1*
X2732034Y2175029D1*
X2735702Y2167829D1*
X2738126Y2160404D1*
X2740558Y2167829D1*
X2744226Y2175029D1*
X2748975Y2181566D1*
X2754689Y2187280D1*
X2761226Y2192029D1*
X2768425Y2195697D1*
X2776109Y2198194D1*
X2784091Y2199458D1*
X2792169D1*
X2800151Y2198194D1*
X2807835Y2195697D1*
X2815034Y2192029D1*
X2821571Y2187280D1*
X2827285Y2181566D1*
X2832034Y2175029D1*
X2835702Y2167829D1*
X2838126Y2160404D1*
X2840558Y2167829D1*
X2844226Y2175029D1*
X2848975Y2181566D1*
X2854689Y2187280D1*
X2861226Y2192029D1*
X2868425Y2195697D1*
X2876109Y2198194D1*
X2884091Y2199458D1*
X2892169D1*
X2900151Y2198194D1*
X2907835Y2195697D1*
X2915034Y2192029D1*
X2921571Y2187280D1*
X2927285Y2181566D1*
X2932034Y2175029D1*
X2935702Y2167829D1*
X2938126Y2160404D1*
X2940558Y2167829D1*
X2944226Y2175029D1*
X2948975Y2181566D1*
X2954689Y2187280D1*
X2961226Y2192029D1*
X2968425Y2195697D1*
X2976109Y2198194D1*
X2984091Y2199458D1*
X2992169D1*
X3000151Y2198194D1*
X3007835Y2195697D1*
X3015034Y2192029D1*
X3021571Y2187280D1*
X3027285Y2181566D1*
X3032034Y2175029D1*
X3035702Y2167829D1*
X3038126Y2160404D1*
X3040558Y2167829D1*
X3044226Y2175029D1*
X3048975Y2181566D1*
X3054689Y2187280D1*
X3061226Y2192029D1*
X3068425Y2195697D1*
X3076109Y2198194D1*
X3084091Y2199458D1*
X3092169D1*
X3100151Y2198194D1*
X3107139Y2195954D1*
X3098644Y2204446D1*
X2809635Y2204554D1*
X2802084Y2206055D1*
X2795092Y2209280D1*
X2789046Y2214046D1*
X2524450Y2478262D1*
X2522592Y2472547D1*
X2519864Y2467192D1*
X2516331Y2462329D1*
X2512080Y2458079D1*
X2507218Y2454546D1*
X2501862Y2451818D1*
X2496147Y2449959D1*
X2490210Y2449020D1*
X2484199D1*
X2478262Y2449959D1*
X2472547Y2451818D1*
X2467192Y2454546D1*
X2462329Y2458079D1*
X2458079Y2462329D1*
X2454546Y2467192D1*
X2451818Y2472547D1*
X2450014Y2478071D1*
X2403106Y2524986D1*
X2397547Y2526818D1*
X2392192Y2529546D1*
X2387329Y2533079D1*
X2383079Y2537329D1*
X2379546Y2542192D1*
X2376818Y2547547D1*
X2374959Y2553262D1*
X2374020Y2559199D1*
Y2565210D1*
X2374959Y2571147D1*
X2376818Y2576862D1*
X2379546Y2582218D1*
X2383079Y2587080D1*
X2387329Y2591331D1*
X2392192Y2594864D1*
X2397547Y2597592D1*
X2403262Y2599450D1*
X2409199Y2600390D1*
X2415210D1*
X2421147Y2599450D1*
X2425486Y2598101D1*
X2428012Y2604455D1*
X2384635Y2604554D1*
X2377084Y2606055D1*
X2370092Y2609280D1*
X2364046Y2614046D1*
X2313050Y2665042D1*
X2312966Y2615245D1*
X2311465Y2607694D1*
X2308240Y2600702D1*
X2303467Y2594648D1*
X2298633Y2587869D1*
X2296333Y2582315D1*
X2293193Y2577190D1*
X2289289Y2572621D1*
X2284719Y2568717D1*
X2279594Y2565576D1*
X2274041Y2563277D1*
X2268197Y2561873D1*
X2262205Y2561402D1*
X2256213Y2561873D1*
X2250071Y2563386D1*
X2249974Y2314753D1*
X2248472Y2307202D1*
X2245248Y2300210D1*
X2240482Y2294164D1*
X1944395Y1998219D1*
X1937993Y1993942D1*
X1930770Y1991277D1*
X1923125Y1990373D1*
X1852861D1*
X1846571Y1983970D1*
X1840034Y1979220D1*
X1832835Y1975552D1*
X1825151Y1973055D1*
X1817169Y1971791D1*
X1809091D1*
X1801109Y1973055D1*
X1793425Y1975552D1*
X1786226Y1979220D1*
X1779689Y1983970D1*
X1773975Y1989684D1*
X1769226Y1996220D1*
X1765558Y2003420D1*
X1763060Y2011104D1*
X1761797Y2019085D1*
Y2027164D1*
X1763060Y2035146D1*
X1765558Y2042829D1*
X1769226Y2050029D1*
X1773975Y2056566D1*
X1779689Y2062280D1*
X1786226Y2067029D1*
X1793425Y2070697D1*
X1801109Y2073194D1*
X1809091Y2074458D1*
X1817169D1*
X1825151Y2073194D1*
X1832835Y2070697D1*
X1840034Y2067029D1*
X1846571Y2062280D1*
X1852823Y2055885D1*
X1909566Y2055877D1*
X2184570Y2330887D1*
X2184571Y2571375D1*
X2180693Y2564690D1*
X2176789Y2560121D1*
X2172219Y2556217D1*
X2167094Y2553076D1*
X2161541Y2550777D1*
X2155697Y2549373D1*
X2149705Y2548902D1*
X2143713Y2549373D1*
X2137869Y2550777D1*
X2132315Y2553076D1*
X2129866Y2554449D1*
X1864304Y2554453D1*
X1864287Y2531185D1*
X1844415D1*
X1842463Y2524671D1*
X1838702Y2517954D1*
X1835364Y2514046D1*
X1799421Y2478104D1*
X1797592Y2472547D1*
X1794864Y2467192D1*
X1791331Y2462329D1*
X1787080Y2458079D1*
X1782218Y2454546D1*
X1776862Y2451818D1*
X1771147Y2449959D1*
X1765210Y2449020D1*
X1759199D1*
X1753262Y2449959D1*
X1747547Y2451818D1*
X1742192Y2454546D1*
X1737329Y2458079D1*
X1733079Y2462329D1*
X1729546Y2467192D1*
X1726818Y2472547D1*
X1724959Y2478262D1*
X1724020Y2484199D1*
Y2490210D1*
X1724959Y2496147D1*
X1726818Y2501862D1*
X1729546Y2507218D1*
X1733079Y2512080D1*
X1737329Y2516331D1*
X1742192Y2519864D1*
X1747547Y2522592D1*
X1753071Y2524395D1*
X1759865Y2531184D1*
X1685319Y2531185D1*
Y2616976D1*
X1603073Y2616953D1*
X1603067Y2611402D1*
X1471343D1*
Y2838008D1*
X1603067D1*
Y2832491D1*
X1660105Y2832457D1*
X1660122Y2855724D1*
X1839091D1*
Y2780676D1*
X1842857Y2782350D1*
X1845522Y2789573D1*
X1849799Y2795975D1*
X1964046Y2910364D1*
X1970092Y2915130D1*
X1977084Y2918354D1*
X1984635Y2919856D1*
X2006199Y2919957D1*
X2006185Y3034878D1*
X1962295Y2990978D1*
X1960226Y2981602D1*
X1957193Y2974282D1*
X1953054Y2967526D1*
X1947908Y2961501D1*
X1941883Y2956356D1*
X1935127Y2952217D1*
X1927807Y2949184D1*
X1920104Y2947335D1*
X1912205Y2946713D1*
X1904306Y2947335D1*
X1896602Y2949184D1*
X1889282Y2952217D1*
X1885371Y2954454D1*
X1764265Y2954453D1*
X1764287Y2931185D1*
X1585319D1*
Y3043224D1*
X1764287D1*
Y3019933D1*
X1867217Y3020127D1*
X1871356Y3026883D1*
X1876501Y3032908D1*
X1882526Y3038054D1*
X1889282Y3042193D1*
X1896602Y3045226D1*
X1904306Y3047075D1*
X1912205Y3047697D1*
X1920104Y3047075D1*
X1924752Y3046088D1*
X1965854Y3087173D1*
X1916167Y3136869D1*
X1908243D1*
X1900417Y3138108D1*
X1892882Y3140556D1*
X1885823Y3144154D1*
X1879412Y3148810D1*
X1873781Y3154449D1*
X1764304Y3154453D1*
X1764287Y3131185D1*
X1585319D1*
Y3243224D1*
X1764287D1*
Y3219933D1*
X1873810Y3219997D1*
X1879412Y3225600D1*
X1885823Y3230256D1*
X1892882Y3233853D1*
X1900417Y3236302D1*
X1908243Y3237541D1*
X1916167D1*
X1923992Y3236302D1*
X1931528Y3233853D1*
X1938587Y3230256D1*
X1944997Y3225600D1*
X1950600Y3219997D1*
X1955256Y3213587D1*
X1958853Y3206528D1*
X1961302Y3198992D1*
X1962541Y3191167D1*
X1962535Y3183197D1*
X2005281Y3140448D1*
X2102231Y3140429D1*
X2102248Y3144012D1*
X2181008D1*
X2180988Y3222085D1*
X2023636Y3379455D1*
X1534635Y3379554D1*
X1527084Y3381055D1*
X1520092Y3384280D1*
X1514046Y3389046D1*
X1381282Y3521951D1*
X1377005Y3528353D1*
X1374340Y3535576D1*
X1373436Y3543222D1*
Y3612509D1*
X1367551Y3616967D1*
X1360950Y3623568D1*
X1356202Y3630013D1*
X1351425Y3623568D1*
X1344824Y3616967D1*
X1337272Y3611479D1*
X1328954Y3607241D1*
X1320076Y3604357D1*
X1310856Y3602896D1*
X1301520D1*
X1292299Y3604357D1*
X1283421Y3607241D1*
X1275104Y3611479D1*
X1267551Y3616967D1*
X1260950Y3623568D1*
X1256202Y3630013D1*
X1251425Y3623568D1*
X1244824Y3616967D1*
X1237272Y3611479D1*
X1228954Y3607241D1*
X1220076Y3604357D1*
X1210856Y3602896D1*
X1201520D1*
X1192299Y3604357D1*
X1183421Y3607241D1*
X1175104Y3611479D1*
X1167551Y3616967D1*
X1166143Y3618268D1*
X1166144Y3602248D1*
X1046231D1*
Y3722161D1*
X1166144D1*
Y3706194D1*
X1171219Y3710335D1*
X1179178Y3715213D1*
X1187803Y3718785D1*
X1196881Y3720965D1*
X1206188Y3721697D1*
X1215495Y3720965D1*
X1224572Y3718785D1*
X1233197Y3715213D1*
X1241156Y3710335D1*
X1248255Y3704272D1*
X1254318Y3697173D1*
X1256173Y3694396D1*
X1260950Y3700841D1*
X1267551Y3707442D1*
X1273449Y3711825D1*
X1273436Y3729636D1*
X1087299Y3915934D1*
X1083022Y3922336D1*
X1081052Y3927093D1*
X1079277Y3929383D1*
X1072593Y3935093D1*
X1066883Y3941777D1*
X1062291Y3949273D1*
X1058927Y3957394D1*
X1056875Y3965941D1*
X1056185Y3974705D1*
X1056875Y3983469D1*
X1058927Y3992016D1*
X1062291Y4000136D1*
X1066883Y4007633D1*
X1072593Y4014316D1*
X1079277Y4020026D1*
X1086773Y4024618D1*
X1094894Y4027983D1*
X1103441Y4030034D1*
X1112205Y4030724D1*
X1120969Y4030034D1*
X1129516Y4027983D1*
X1137636Y4024618D1*
X1145133Y4020026D1*
X1151816Y4014316D1*
X1157526Y4007633D1*
X1162118Y4000136D1*
X1165483Y3992016D1*
X1167534Y3983469D1*
X1168224Y3974705D1*
X1167534Y3965941D1*
X1165483Y3957394D1*
X1162118Y3949273D1*
X1157526Y3941777D1*
X1155941Y3939766D1*
X1331093Y3764492D1*
X1335370Y3758091D1*
X1338035Y3750867D1*
X1338940Y3743222D1*
Y3711825D1*
X1344824Y3707442D1*
X1351425Y3700841D1*
X1356173Y3694396D1*
X1360950Y3700841D1*
X1367551Y3707442D1*
X1375104Y3712930D1*
X1383421Y3717168D1*
X1392299Y3720052D1*
X1401520Y3721513D1*
X1410856D1*
X1420076Y3720052D1*
X1428954Y3717168D1*
X1437272Y3712930D1*
X1444824Y3707442D1*
X1451425Y3700841D1*
X1456173Y3694396D1*
X1461636Y3701633D1*
X1466948Y3706921D1*
X1472882Y3711500D1*
X1479344Y3715297D1*
X1486232Y3718251D1*
X1493437Y3720315D1*
X1500845Y3721457D1*
X1508337Y3721657D1*
X1515795Y3720916D1*
X1523101Y3719241D1*
X1530138Y3716663D1*
X1536795Y3713219D1*
X1542967Y3708966D1*
X1548554Y3703970D1*
X1553470Y3698312D1*
X1556188Y3694434D1*
X1560950Y3700841D1*
X1567551Y3707442D1*
X1575104Y3712930D1*
X1583421Y3717168D1*
X1592299Y3720052D1*
X1601520Y3721513D1*
X1610856D1*
X1620076Y3720052D1*
X1628954Y3717168D1*
X1637272Y3712930D1*
X1644824Y3707442D1*
X1651425Y3700841D1*
X1656173Y3694396D1*
X1660950Y3700841D1*
X1667551Y3707442D1*
X1675104Y3712930D1*
X1683421Y3717168D1*
X1692299Y3720052D1*
X1701520Y3721513D1*
X1710856D1*
X1720076Y3720052D1*
X1728954Y3717168D1*
X1737272Y3712930D1*
X1744824Y3707442D1*
X1751425Y3700841D1*
X1756173Y3694396D1*
X1760950Y3700841D1*
X1767551Y3707442D1*
X1775104Y3712930D1*
X1783421Y3717168D1*
X1792299Y3720052D1*
X1801520Y3721513D1*
X1810856D1*
X1820076Y3720052D1*
X1828954Y3717168D1*
X1837272Y3712930D1*
X1844824Y3707442D1*
X1851425Y3700841D1*
X1856173Y3694396D1*
X1860950Y3700841D1*
X1867551Y3707442D1*
X1875104Y3712930D1*
X1883421Y3717168D1*
X1892299Y3720052D1*
X1901520Y3721513D1*
X1910856D1*
X1920076Y3720052D1*
X1928954Y3717168D1*
X1937272Y3712930D1*
X1944824Y3707442D1*
X1951425Y3700841D1*
X1956173Y3694396D1*
X1960950Y3700841D1*
X1967551Y3707442D1*
X1975104Y3712930D1*
X1983421Y3717168D1*
X1992299Y3720052D1*
X2001520Y3721513D1*
X2010856D1*
X2020076Y3720052D1*
X2028954Y3717168D1*
X2037272Y3712930D1*
X2044824Y3707442D1*
X2051425Y3700841D1*
X2056173Y3694396D1*
X2060950Y3700841D1*
X2067551Y3707442D1*
X2075104Y3712930D1*
X2083421Y3717168D1*
X2092299Y3720052D1*
X2101520Y3721513D1*
X2110856D1*
X2120076Y3720052D1*
X2128954Y3717168D1*
X2137272Y3712930D1*
X2144824Y3707442D1*
X2151425Y3700841D1*
X2156173Y3694396D1*
X2160950Y3700841D1*
X2167551Y3707442D1*
X2175104Y3712930D1*
X2183421Y3717168D1*
X2192299Y3720052D1*
X2201520Y3721513D1*
X2210856D1*
X2220076Y3720052D1*
X2228954Y3717168D1*
X2237272Y3712930D1*
X2244824Y3707442D1*
X2251425Y3700841D1*
X2256173Y3694396D1*
X2260950Y3700841D1*
X2267551Y3707442D1*
X2275104Y3712930D1*
X2283421Y3717168D1*
X2292299Y3720052D1*
X2301520Y3721513D1*
X2310856D1*
X2320076Y3720052D1*
X2328954Y3717168D1*
X2337272Y3712930D1*
X2344824Y3707442D1*
X2351425Y3700841D1*
X2356173Y3694396D1*
X2360950Y3700841D1*
X2367551Y3707442D1*
X2375104Y3712930D1*
X2383421Y3717168D1*
X2392299Y3720052D1*
X2401520Y3721513D1*
X2410856D1*
X2420076Y3720052D1*
X2428954Y3717168D1*
X2437272Y3712930D1*
X2444824Y3707442D1*
X2451425Y3700841D1*
X2456173Y3694396D1*
X2460950Y3700841D1*
X2467551Y3707442D1*
X2475104Y3712930D1*
X2483421Y3717168D1*
X2492299Y3720052D1*
X2501520Y3721513D1*
X2510856D1*
X2520076Y3720052D1*
X2528954Y3717168D1*
X2537272Y3712930D1*
X2544824Y3707442D1*
X2551425Y3700841D1*
X2556173Y3694396D1*
X2560950Y3700841D1*
X2567551Y3707442D1*
X2575104Y3712930D1*
X2583421Y3717168D1*
X2592299Y3720052D1*
X2601520Y3721513D1*
X2610856D1*
X2620076Y3720052D1*
X2628954Y3717168D1*
X2637272Y3712930D1*
X2644824Y3707442D1*
X2651425Y3700841D1*
X2655808Y3694944D1*
X2667131Y3694554D1*
X2674542Y3692463D1*
X2681259Y3688702D1*
X2685167Y3685364D1*
X2706470Y3664060D1*
X2768224Y3664091D1*
Y3485122D1*
X2706457D1*
X2666152Y3444976D1*
X2659751Y3440699D1*
X2652528Y3438034D1*
X2647441Y3437231D1*
X2646768Y3426478D1*
X2684169Y3426492D1*
Y3343240D1*
X2689091Y3343224D1*
Y3272864D1*
X3343428Y3927245D1*
X3323577Y3927248D1*
X2786909Y3390592D1*
X2785092Y3385047D1*
X2782364Y3379692D1*
X2778831Y3374829D1*
X2774580Y3370579D1*
X2769718Y3367046D1*
X2764362Y3364318D1*
X2758647Y3362459D1*
X2752710Y3361520D1*
X2746699D1*
X2740762Y3362459D1*
X2735047Y3364318D1*
X2729692Y3367046D1*
X2724829Y3370579D1*
X2720579Y3374829D1*
X2717046Y3379692D1*
X2714318Y3385047D1*
X2712459Y3390762D1*
X2711520Y3396699D1*
Y3402710D1*
X2712459Y3408647D1*
X2714318Y3414362D1*
X2717046Y3419718D1*
X2720579Y3424580D1*
X2724829Y3428831D1*
X2729692Y3432364D1*
X2735047Y3435092D1*
X2740571Y3436895D1*
X3277281Y3973600D1*
X3277248Y4047161D1*
X3292629D1*
X3288698Y4051963D1*
X3283783Y4059986D1*
X3280182Y4068677D1*
X3277986Y4077825D1*
X3277248Y4087205D1*
X3277986Y4096584D1*
X3280182Y4105732D1*
X3283783Y4114424D1*
X3288698Y4122446D1*
X3294808Y4129601D1*
X3301963Y4135711D1*
X3309986Y4140626D1*
X3318677Y4144227D1*
X3327825Y4146424D1*
X3337205Y4147161D1*
X3346584Y4146424D1*
X3355732Y4144227D1*
X3364424Y4140626D1*
X3372446Y4135711D1*
X3379601Y4129601D1*
X3385711Y4122446D1*
X3387172Y4120260D1*
X3392776Y4127465D1*
X3398146Y4132693D1*
X3404126Y4137211D1*
X3410623Y4140948D1*
X3417537Y4143844D1*
X3424757Y4145854D1*
X3432172Y4146950D1*
X3439665Y4147112D1*
X3447119Y4146336D1*
X3454420Y4144636D1*
X3461450Y4142041D1*
X3468102Y4138587D1*
X3474272Y4134331D1*
X3479862Y4129337D1*
X3484785Y4123686D1*
X3487196Y4120285D1*
X3492776Y4127465D1*
X3498146Y4132693D1*
X3504126Y4137211D1*
X3510623Y4140948D1*
X3517537Y4143844D1*
X3524757Y4145854D1*
X3532172Y4146950D1*
X3539665Y4147112D1*
X3547119Y4146336D1*
X3554420Y4144636D1*
X3561450Y4142041D1*
X3568102Y4138587D1*
X3574272Y4134331D1*
X3579862Y4129337D1*
X3584785Y4123686D1*
X3587196Y4120285D1*
X3592776Y4127465D1*
X3598146Y4132693D1*
X3604126Y4137211D1*
X3610623Y4140948D1*
X3617537Y4143844D1*
X3624757Y4145854D1*
X3632172Y4146950D1*
X3639665Y4147112D1*
X3647119Y4146336D1*
X3654420Y4144636D1*
X3661450Y4142041D1*
X3668102Y4138587D1*
X3674272Y4134331D1*
X3679862Y4129337D1*
X3684785Y4123686D1*
X3687196Y4120285D1*
X3692776Y4127465D1*
X3698146Y4132693D1*
X3704126Y4137211D1*
X3710623Y4140948D1*
X3717537Y4143844D1*
X3724757Y4145854D1*
X3732172Y4146950D1*
X3739665Y4147112D1*
X3747119Y4146336D1*
X3754420Y4144636D1*
X3761450Y4142041D1*
X3768102Y4138587D1*
X3774272Y4134331D1*
X3779862Y4129337D1*
X3784785Y4123686D1*
X3788965Y4117465D1*
X3792336Y4110770D1*
X3794845Y4103707D1*
X3796454Y4096387D1*
X3797161Y4087205D1*
X3796693Y4079724D1*
X3795295Y4072361D1*
X3792990Y4065230D1*
X3789811Y4058441D1*
X3785811Y4052102D1*
X3781052Y4046312D1*
X3775608Y4041161D1*
X3770285Y4037214D1*
X3776143Y4032797D1*
X3782797Y4026143D1*
X3788327Y4018531D1*
X3792597Y4010150D1*
X3795505Y4001201D1*
X3796976Y3991909D1*
Y3982500D1*
X3795505Y3973209D1*
X3792597Y3964260D1*
X3788327Y3955878D1*
X3782797Y3948266D1*
X3776143Y3941613D1*
X3768531Y3936083D1*
X3760150Y3931812D1*
X3751201Y3928904D1*
X3749993Y3928664D1*
X3708475Y3887301D1*
X3702073Y3883022D1*
X3694850Y3880358D1*
X3687205Y3879453D1*
X3596433D1*
X3598633Y3874041D1*
X3600037Y3868197D1*
X3600508Y3862205D1*
X3600037Y3856213D1*
X3598633Y3850369D1*
X3596333Y3844815D1*
X3593193Y3839690D1*
X3589289Y3835121D1*
X3584719Y3831217D1*
X3579594Y3828076D1*
X3574041Y3825777D1*
X3568197Y3824373D1*
X3562205Y3823902D1*
X3556213Y3824373D1*
X3550369Y3825777D1*
X3544815Y3828076D1*
X3542366Y3829449D1*
X3433933Y3829453D1*
X3436133Y3824041D1*
X3437537Y3818197D1*
X3438008Y3812205D1*
X3437537Y3806213D1*
X3436133Y3800369D1*
X3433833Y3794815D1*
X3430693Y3789690D1*
X3426789Y3785121D1*
X3422219Y3781217D1*
X3417094Y3778076D1*
X3411541Y3775777D1*
X3408839Y3775014D1*
X2774419Y3140600D1*
X2772592Y3135047D1*
X2769864Y3129692D1*
X2766331Y3124829D1*
X2762080Y3120579D1*
X2757218Y3117046D1*
X2751862Y3114318D1*
X2746147Y3112459D1*
X2740210Y3111520D1*
X2734199D1*
X2728262Y3112459D1*
X2722547Y3114318D1*
X2717192Y3117046D1*
X2712329Y3120579D1*
X2708079Y3124829D1*
X2704546Y3129692D1*
X2703257Y3131938D1*
X2664552Y3093235D1*
X2814091Y3093224D1*
X2814287Y2958224D1*
X2814091Y2873224D1*
Y2831185D1*
X2635122D1*
Y2837093D1*
X2557169Y2837091D1*
Y2962857D1*
X2552870Y2961531D1*
Y2850870D1*
X2474110D1*
X2474130Y2772130D1*
X2448593D1*
X2471340Y2749388D1*
X2476862Y2747592D1*
X2482218Y2744864D1*
X2487080Y2741331D1*
X2491331Y2737080D1*
X2494864Y2732218D1*
X2497592Y2726862D1*
X2499450Y2721147D1*
X2500390Y2715210D1*
Y2709199D1*
X2499450Y2703262D1*
X2497592Y2697547D1*
X2494864Y2692192D1*
X2491331Y2687329D1*
X2487080Y2683079D1*
X2482218Y2679546D1*
X2476862Y2676818D1*
X2471147Y2674959D1*
X2465210Y2674020D1*
X2459199D1*
X2453262Y2674959D1*
X2448924Y2676308D1*
X2446398Y2669954D1*
X2568992Y2669957D1*
X2568980Y2786630D1*
X2795193D1*
Y2662780D1*
X2751589D1*
X2751591Y2519953D1*
X2964774Y2519856D1*
X2972325Y2518354D1*
X2979318Y2515130D1*
X2985364Y2510364D1*
X3225773Y2269954D1*
X3718992Y2269957D1*
X3718980Y2299130D1*
X3945193D1*
Y2276230D1*
X4102585Y2276197D1*
X4107717Y2281066D1*
X4115828Y2286958D1*
X4123213Y2290797D1*
Y2456165D1*
X4106185Y2456185D1*
Y2473226D1*
X3984146Y2473333D1*
X3978102Y2474290D1*
X3972283Y2476181D1*
X3969492Y2477469D1*
X3969530Y2472262D1*
X3971533Y2462194D1*
X3972740Y2451999D1*
X3973143Y2441741D1*
X3972740Y2431484D1*
X3971533Y2421289D1*
X3969530Y2411220D1*
X3966744Y2401340D1*
X3963190Y2391709D1*
X3958894Y2382386D1*
X3953877Y2373429D1*
X3948173Y2364894D1*
X3941818Y2356832D1*
X3934850Y2349293D1*
X3927311Y2342325D1*
X3919249Y2335970D1*
X3910714Y2330266D1*
X3901757Y2325249D1*
X3892434Y2320953D1*
X3882803Y2317399D1*
X3872923Y2314613D1*
X3862854Y2312610D1*
X3852659Y2311403D1*
X3842402Y2311000D1*
X3832144Y2311403D1*
X3821949Y2312610D1*
X3811881Y2314613D1*
X3802000Y2317399D1*
X3792369Y2320953D1*
X3783046Y2325249D1*
X3774089Y2330266D1*
X3765554Y2335970D1*
X3757492Y2342325D1*
X3749953Y2349293D1*
X3742986Y2356832D1*
X3736630Y2364894D1*
X3730927Y2373429D1*
X3725909Y2382386D1*
X3721613Y2391709D1*
X3718059Y2401340D1*
X3715273Y2411220D1*
X3713270Y2421289D1*
X3712063Y2431484D1*
X3711660Y2441741D1*
X3712063Y2451999D1*
X3713270Y2462194D1*
X3715273Y2472262D1*
X3718059Y2482143D1*
X3721613Y2491774D1*
X3725909Y2501097D1*
X3730927Y2510054D1*
X3736630Y2518589D1*
X3742986Y2526651D1*
X3749953Y2534190D1*
X3757492Y2541157D1*
X3765554Y2547513D1*
X3774089Y2553217D1*
X3783046Y2558234D1*
X3792369Y2562530D1*
X3802000Y2566084D1*
X3811881Y2568870D1*
X3821949Y2570873D1*
X3832144Y2572080D1*
X3842402Y2572483D1*
X3852659Y2572080D1*
X3862854Y2570873D1*
X3876357Y2567902D1*
X3663110Y2781156D1*
X3631185Y2781185D1*
Y2893224D1*
X3643685D1*
X3940018Y2834706D2*
X3939185Y2827257D1*
X3937364Y2819988D1*
X3934588Y2813026D1*
X3930908Y2806497D1*
X3926391Y2800518D1*
X3921114Y2795196D1*
X3915176Y2790625D1*
X3908680Y2786887D1*
X3901743Y2784051D1*
X3894490Y2782165D1*
X3887049Y2781265D1*
X3879555Y2781366D1*
X3872142Y2782466D1*
X3864942Y2784546D1*
X3858084Y2787568D1*
X3851692Y2791479D1*
X3845878Y2796209D1*
X3840747Y2801672D1*
X3836391Y2807770D1*
X3832888Y2814396D1*
X3830302Y2821430D1*
X3828677Y2828747D1*
X3828045Y2836214D1*
X3828413Y2843699D1*
X3829778Y2851068D1*
X3832114Y2858189D1*
X3835381Y2864934D1*
X3839517Y2871184D1*
X3844451Y2876824D1*
X3850094Y2881756D1*
X3856345Y2885891D1*
X3863092Y2889154D1*
X3870214Y2891487D1*
X3877583Y2892849D1*
X3885068Y2893215D1*
X3892535Y2892579D1*
X3899852Y2890951D1*
X3906885Y2888362D1*
X3913508Y2884857D1*
X3919605Y2880499D1*
X3925067Y2875366D1*
X3929793Y2869550D1*
X3933702Y2863156D1*
X3936722Y2856297D1*
X3938798Y2849096D1*
X3939895Y2841682D1*
X3940018Y2834706D1*
X1285122Y2930724D2*
X1451591D1*
Y2818685D1*
X1390467D1*
X1390469Y2611402D1*
X1258744D1*
Y2643227D1*
X1252274Y2642054D1*
X1155710Y2641953D1*
X1155724Y2472819D1*
X1043685D1*
Y2641909D1*
X595164Y2641953D1*
X589316Y2635093D1*
X582633Y2629383D1*
X575136Y2624791D1*
X567016Y2621427D1*
X558469Y2619375D1*
X549705Y2618685D1*
X540941Y2619375D1*
X532394Y2621427D1*
X524273Y2624791D1*
X516777Y2629383D1*
X510093Y2635093D1*
X504383Y2641777D1*
X499791Y2649273D1*
X496427Y2657394D1*
X494375Y2665941D1*
X493685Y2674705D1*
X494375Y2683469D1*
X496427Y2692016D1*
X499791Y2700136D1*
X504383Y2707633D1*
X510093Y2714316D1*
X516777Y2720026D1*
X524444Y2724698D1*
X516777Y2729383D1*
X510093Y2735093D1*
X504383Y2741777D1*
X499791Y2749273D1*
X496427Y2757394D1*
X494375Y2765941D1*
X493685Y2774705D1*
X494375Y2783469D1*
X496427Y2792016D1*
X499791Y2800136D1*
X504383Y2807633D1*
X510093Y2814316D1*
X515063Y2818675D1*
X493685Y2818685D1*
Y2930724D1*
X605724D1*
Y2907433D1*
X675241Y2907457D1*
X675280Y2964189D1*
X799130D1*
Y2807499D1*
X895749Y2807457D1*
X895752Y2964189D1*
X1019602D1*
Y2828417D1*
X1041131Y2849806D1*
X1043159Y2851404D1*
X1043685Y2852622D1*
Y2951787D1*
X1155724D1*
Y2857697D1*
X1202077Y2857552D1*
X1209629Y2856051D1*
X1216621Y2852827D1*
X1222667Y2848060D1*
X1258745Y2811983D1*
X1258744Y2838008D1*
X1272660D1*
X1272622Y2930724D1*
X1285122D1*
X2468035Y1552568D2*
X2567575D1*
Y1440529D1*
X2455535D1*
Y1552568D1*
X2468035D1*
X2965039Y1492154D2*
X2963665Y1483471D1*
X2960949Y1475110D1*
X2956958Y1467278D1*
X2951790Y1460167D1*
X2945575Y1453951D1*
X2938463Y1448783D1*
X2930631Y1444793D1*
X2922270Y1442076D1*
X2913588Y1440702D1*
X2904798D1*
X2896115Y1442076D1*
X2887755Y1444793D1*
X2879923Y1448783D1*
X2872811Y1453951D1*
X2866596Y1460167D1*
X2861428Y1467278D1*
X2857437Y1475110D1*
X2854720Y1483471D1*
X2853346Y1492154D1*
Y1500944D1*
X2854720Y1509626D1*
X2857437Y1517987D1*
X2861428Y1525819D1*
X2866596Y1532930D1*
X2872811Y1539146D1*
X2879923Y1544314D1*
X2887755Y1548304D1*
X2896115Y1551021D1*
X2904798Y1552395D1*
X2913588D1*
X2922270Y1551021D1*
X2930631Y1548304D1*
X2938463Y1544314D1*
X2945575Y1539146D1*
X2951790Y1532930D1*
X2956958Y1525819D1*
X2960949Y1517987D1*
X2963665Y1509626D1*
X2965039Y1500944D1*
Y1492154D1*
X2866854Y1676388D2*
X2966394D1*
Y1564349D1*
X2854354D1*
Y1676388D1*
X2866854D1*
X2568583Y1615974D2*
X2567209Y1607291D1*
X2564492Y1598930D1*
X2560501Y1591098D1*
X2555333Y1583987D1*
X2549118Y1577772D1*
X2542007Y1572604D1*
X2534175Y1568613D1*
X2525814Y1565896D1*
X2517131Y1564522D1*
X2508341D1*
X2499659Y1565896D1*
X2491298Y1568613D1*
X2483466Y1572604D1*
X2476354Y1577772D1*
X2470139Y1583987D1*
X2464971Y1591098D1*
X2460980Y1598930D1*
X2458264Y1607291D1*
X2456890Y1615974D1*
Y1624764D1*
X2458264Y1633446D1*
X2460980Y1641807D1*
X2464971Y1649639D1*
X2470139Y1656751D1*
X2476354Y1662966D1*
X2483466Y1668134D1*
X2491298Y1672125D1*
X2499659Y1674841D1*
X2508341Y1676215D1*
X2517131D1*
X2525814Y1674841D1*
X2534175Y1672125D1*
X2542007Y1668134D1*
X2549118Y1662966D1*
X2555333Y1656751D1*
X2560501Y1649639D1*
X2564492Y1641807D1*
X2567209Y1633446D1*
X2568583Y1624764D1*
Y1615974D1*
X2509774Y1801388D2*
X2566394D1*
Y1689349D1*
X2454354D1*
Y1801388D1*
X2466513D1*
X2457864Y1806467D1*
X2451719Y1811714D1*
X2446472Y1817858D1*
X2442251Y1824748D1*
X2439157Y1832213D1*
X2438134Y1835845D1*
X2435702Y1828420D1*
X2432034Y1821220D1*
X2427285Y1814684D1*
X2421571Y1808970D1*
X2415034Y1804220D1*
X2407835Y1800552D1*
X2400151Y1798055D1*
X2392169Y1796791D1*
X2384091D1*
X2376109Y1798055D1*
X2368425Y1800552D1*
X2361226Y1804220D1*
X2354689Y1808970D1*
X2348975Y1814684D1*
X2344226Y1821220D1*
X2340558Y1828420D1*
X2338134Y1835845D1*
X2335702Y1828420D1*
X2332034Y1821220D1*
X2327285Y1814684D1*
X2321571Y1808970D1*
X2315034Y1804220D1*
X2307835Y1800552D1*
X2300151Y1798055D1*
X2292169Y1796791D1*
X2284091D1*
X2276109Y1798055D1*
X2268425Y1800552D1*
X2261226Y1804220D1*
X2254689Y1808970D1*
X2248975Y1814684D1*
X2244226Y1821220D1*
X2240558Y1828420D1*
X2238060Y1836104D1*
X2236797Y1844085D1*
Y1852164D1*
X2238060Y1860146D1*
X2240558Y1867829D1*
X2244226Y1875029D1*
X2248975Y1881566D1*
X2254689Y1887280D1*
X2261226Y1892029D1*
X2268425Y1895697D1*
X2276109Y1898194D1*
X2284091Y1899458D1*
X2292169D1*
X2300151Y1898194D1*
X2307835Y1895697D1*
X2315034Y1892029D1*
X2321571Y1887280D1*
X2327285Y1881566D1*
X2332034Y1875029D1*
X2335702Y1867829D1*
X2338126Y1860404D1*
X2340558Y1867829D1*
X2344226Y1875029D1*
X2348975Y1881566D1*
X2354689Y1887280D1*
X2361226Y1892029D1*
X2368425Y1895697D1*
X2376109Y1898194D1*
X2384091Y1899458D1*
X2392169D1*
X2400151Y1898194D1*
X2407835Y1895697D1*
X2415034Y1892029D1*
X2421571Y1887280D1*
X2427285Y1881566D1*
X2432034Y1875029D1*
X2435702Y1867829D1*
X2438126Y1860404D1*
X2440558Y1867829D1*
X2444226Y1875029D1*
X2448975Y1881566D1*
X2454689Y1887280D1*
X2461226Y1892029D1*
X2468425Y1895697D1*
X2476109Y1898194D1*
X2484091Y1899458D1*
X2492169D1*
X2500151Y1898194D1*
X2507835Y1895697D1*
X2515034Y1892029D1*
X2521571Y1887280D1*
X2527285Y1881566D1*
X2532034Y1875029D1*
X2535702Y1867829D1*
X2538126Y1860404D1*
X2540558Y1867829D1*
X2544226Y1875029D1*
X2548975Y1881566D1*
X2554689Y1887280D1*
X2561226Y1892029D1*
X2568425Y1895697D1*
X2576109Y1898194D1*
X2584091Y1899458D1*
X2592169D1*
X2600151Y1898194D1*
X2607835Y1895697D1*
X2615034Y1892029D1*
X2621571Y1887280D1*
X2627285Y1881566D1*
X2632034Y1875029D1*
X2635702Y1867829D1*
X2638126Y1860404D1*
X2640558Y1867829D1*
X2644226Y1875029D1*
X2648975Y1881566D1*
X2654689Y1887280D1*
X2661226Y1892029D1*
X2668425Y1895697D1*
X2676109Y1898194D1*
X2684091Y1899458D1*
X2692169D1*
X2700151Y1898194D1*
X2707835Y1895697D1*
X2715034Y1892029D1*
X2721571Y1887280D1*
X2727285Y1881566D1*
X2732034Y1875029D1*
X2735702Y1867829D1*
X2738126Y1860404D1*
X2740558Y1867829D1*
X2744226Y1875029D1*
X2748975Y1881566D1*
X2754689Y1887280D1*
X2761226Y1892029D1*
X2768425Y1895697D1*
X2776109Y1898194D1*
X2784091Y1899458D1*
X2792169D1*
X2800151Y1898194D1*
X2807835Y1895697D1*
X2815034Y1892029D1*
X2821571Y1887280D1*
X2827285Y1881566D1*
X2832034Y1875029D1*
X2835702Y1867829D1*
X2838126Y1860404D1*
X2840558Y1867829D1*
X2844226Y1875029D1*
X2848975Y1881566D1*
X2854689Y1887280D1*
X2861226Y1892029D1*
X2868425Y1895697D1*
X2876109Y1898194D1*
X2884091Y1899458D1*
X2892169D1*
X2900151Y1898194D1*
X2907835Y1895697D1*
X2915034Y1892029D1*
X2921571Y1887280D1*
X2927285Y1881566D1*
X2932034Y1875029D1*
X2935702Y1867829D1*
X2938126Y1860404D1*
X2940558Y1867829D1*
X2944226Y1875029D1*
X2948975Y1881566D1*
X2954689Y1887280D1*
X2961226Y1892029D1*
X2968425Y1895697D1*
X2976109Y1898194D1*
X2984091Y1899458D1*
X2992169D1*
X3000151Y1898194D1*
X3007835Y1895697D1*
X3015034Y1892029D1*
X3021571Y1887280D1*
X3027285Y1881566D1*
X3032034Y1875029D1*
X3035702Y1867829D1*
X3038126Y1860404D1*
X3040558Y1867829D1*
X3044226Y1875029D1*
X3048975Y1881566D1*
X3054689Y1887280D1*
X3061226Y1892029D1*
X3068425Y1895697D1*
X3076109Y1898194D1*
X3084091Y1899458D1*
X3092169D1*
X3100151Y1898194D1*
X3107835Y1895697D1*
X3115034Y1892029D1*
X3121571Y1887280D1*
X3127285Y1881566D1*
X3132034Y1875029D1*
X3135702Y1867829D1*
X3138126Y1860404D1*
X3140558Y1867829D1*
X3144226Y1875029D1*
X3148975Y1881566D1*
X3154689Y1887280D1*
X3161226Y1892029D1*
X3168425Y1895697D1*
X3176109Y1898194D1*
X3184091Y1899458D1*
X3192169D1*
X3200151Y1898194D1*
X3207835Y1895697D1*
X3215034Y1892029D1*
X3221571Y1887280D1*
X3227285Y1881566D1*
X3232034Y1875029D1*
X3235702Y1867829D1*
X3238126Y1860404D1*
X3240756Y1868302D1*
X3244186Y1874965D1*
X3248546Y1881058D1*
X3253745Y1886454D1*
X3259673Y1891039D1*
X3266202Y1894715D1*
X3273197Y1897404D1*
X3280507Y1899050D1*
X3287979Y1899617D1*
X3295454Y1899093D1*
X3302774Y1897491D1*
X3309783Y1894843D1*
X3316335Y1891205D1*
X3322289Y1886655D1*
X3327520Y1881289D1*
X3331916Y1875220D1*
X3335385Y1868579D1*
X3337853Y1861504D1*
X3339269Y1854146D1*
X3339562Y1845626D1*
X3338654Y1838188D1*
X3336677Y1830959D1*
X3333672Y1824096D1*
X3329702Y1817740D1*
X3324852Y1812028D1*
X3319223Y1807080D1*
X3312937Y1803003D1*
X3306126Y1799879D1*
X3298933Y1797778D1*
X3291510Y1796744D1*
X3284018Y1796797D1*
X3276612Y1797937D1*
X3269450Y1800140D1*
X3262684Y1803360D1*
X3256455Y1807528D1*
X3250899Y1812554D1*
X3246130Y1818335D1*
X3242251Y1824745D1*
X3239344Y1831652D1*
X3238135Y1835845D1*
X3235702Y1828420D1*
X3232034Y1821220D1*
X3227285Y1814684D1*
X3221571Y1808970D1*
X3215034Y1804220D1*
X3207835Y1800552D1*
X3200151Y1798055D1*
X3192169Y1796791D1*
X3184091D1*
X3176109Y1798055D1*
X3168425Y1800552D1*
X3161226Y1804220D1*
X3154689Y1808970D1*
X3148975Y1814684D1*
X3144226Y1821220D1*
X3140558Y1828420D1*
X3138134Y1835845D1*
X3135702Y1828420D1*
X3132034Y1821220D1*
X3127285Y1814684D1*
X3121571Y1808970D1*
X3115034Y1804220D1*
X3107835Y1800552D1*
X3100151Y1798055D1*
X3092169Y1796791D1*
X3084091D1*
X3076109Y1798055D1*
X3068425Y1800552D1*
X3061226Y1804220D1*
X3054689Y1808970D1*
X3048975Y1814684D1*
X3044226Y1821220D1*
X3040558Y1828420D1*
X3038134Y1835845D1*
X3035702Y1828420D1*
X3032034Y1821220D1*
X3027285Y1814684D1*
X3021571Y1808970D1*
X3015034Y1804220D1*
X3007835Y1800552D1*
X3000151Y1798055D1*
X2992169Y1796791D1*
X2984091D1*
X2976109Y1798055D1*
X2968425Y1800552D1*
X2961226Y1804220D1*
X2954689Y1808970D1*
X2948975Y1814684D1*
X2944226Y1821220D1*
X2940558Y1828420D1*
X2938134Y1835845D1*
X2935702Y1828420D1*
X2932034Y1821220D1*
X2927285Y1814684D1*
X2921571Y1808970D1*
X2915034Y1804220D1*
X2909600Y1801365D1*
X2916776Y1800698D1*
X2925323Y1798647D1*
X2933444Y1795282D1*
X2940940Y1790690D1*
X2947623Y1784980D1*
X2953333Y1778297D1*
X2957925Y1770801D1*
X2961290Y1762680D1*
X2963341Y1754133D1*
X2964031Y1745369D1*
X2963341Y1736605D1*
X2961290Y1728058D1*
X2957925Y1719937D1*
X2953333Y1712441D1*
X2947623Y1705757D1*
X2940940Y1700047D1*
X2933444Y1695455D1*
X2925323Y1692091D1*
X2916776Y1690039D1*
X2908012Y1689349D1*
X2899248Y1690039D1*
X2890701Y1692091D1*
X2882580Y1695455D1*
X2875084Y1700047D1*
X2868400Y1705757D1*
X2862690Y1712441D1*
X2858098Y1719937D1*
X2854734Y1728058D1*
X2852682Y1736605D1*
X2851992Y1745369D1*
X2852682Y1754133D1*
X2854734Y1762680D1*
X2858098Y1770801D1*
X2862690Y1778297D1*
X2868400Y1784980D1*
X2875084Y1790690D1*
X2882580Y1795282D1*
X2885654Y1796699D1*
X2876109Y1798055D1*
X2868425Y1800552D1*
X2861226Y1804220D1*
X2854689Y1808970D1*
X2848975Y1814684D1*
X2844226Y1821220D1*
X2840558Y1828420D1*
X2838134Y1835845D1*
X2835702Y1828420D1*
X2832034Y1821220D1*
X2827285Y1814684D1*
X2821571Y1808970D1*
X2815034Y1804220D1*
X2807835Y1800552D1*
X2800151Y1798055D1*
X2792169Y1796791D1*
X2784091D1*
X2776109Y1798055D1*
X2768425Y1800552D1*
X2761226Y1804220D1*
X2754689Y1808970D1*
X2748975Y1814684D1*
X2744226Y1821220D1*
X2740558Y1828420D1*
X2738134Y1835845D1*
X2735702Y1828420D1*
X2732034Y1821220D1*
X2727285Y1814684D1*
X2721571Y1808970D1*
X2715034Y1804220D1*
X2707835Y1800552D1*
X2700151Y1798055D1*
X2692169Y1796791D1*
X2684091D1*
X2676109Y1798055D1*
X2668425Y1800552D1*
X2661226Y1804220D1*
X2654689Y1808970D1*
X2648975Y1814684D1*
X2644226Y1821220D1*
X2640558Y1828420D1*
X2638134Y1835845D1*
X2635702Y1828420D1*
X2632034Y1821220D1*
X2627285Y1814684D1*
X2621571Y1808970D1*
X2615034Y1804220D1*
X2607835Y1800552D1*
X2600151Y1798055D1*
X2592169Y1796791D1*
X2584091D1*
X2576109Y1798055D1*
X2568425Y1800552D1*
X2561226Y1804220D1*
X2554689Y1808970D1*
X2548975Y1814684D1*
X2544226Y1821220D1*
X2540558Y1828420D1*
X2538134Y1835845D1*
X2535702Y1828420D1*
X2532034Y1821220D1*
X2527285Y1814684D1*
X2521571Y1808970D1*
X2515034Y1804220D1*
X2509656Y1801392D1*
X1431476Y1243728D2*
X1430102Y1235046D1*
X1427386Y1226685D1*
X1423395Y1218853D1*
X1418227Y1211741D1*
X1412012Y1205526D1*
X1410244Y1204133D1*
X1431650Y1204143D1*
Y1092104D1*
X1319610D1*
Y1204143D1*
X1340929D1*
X1336018Y1208512D1*
X1330308Y1215196D1*
X1325717Y1222692D1*
X1322352Y1230812D1*
X1320301Y1239360D1*
X1319610Y1248123D1*
X1320301Y1256887D1*
X1322352Y1265434D1*
X1325717Y1273555D1*
X1330308Y1281051D1*
X1336018Y1287735D1*
X1342702Y1293445D1*
X1350198Y1298037D1*
X1358319Y1301402D1*
X1366866Y1303453D1*
X1375630Y1304143D1*
X1384394Y1303453D1*
X1392941Y1301402D1*
X1401062Y1298037D1*
X1408558Y1293445D1*
X1415241Y1287735D1*
X1420951Y1281051D1*
X1425543Y1273555D1*
X1428908Y1265434D1*
X1430959Y1256887D1*
X1431650Y1248123D1*
X1431476Y1243728D1*
X3251205Y2618913D2*
X3425705D1*
Y2479315D1*
X3248705D1*
Y2618913D1*
X3251205D1*
X1456173Y3630013D2*
X1451425Y3623568D1*
X1444824Y3616967D1*
X1438927Y3612584D1*
X1438940Y3556785D1*
X1550777Y3444950D1*
X1658152Y3444957D1*
X1581283Y3521951D1*
X1577005Y3528353D1*
X1574341Y3535576D1*
X1573436Y3543222D1*
Y3612509D1*
X1567551Y3616967D1*
X1560950Y3623568D1*
X1556202Y3630013D1*
X1551134Y3623228D1*
X1545877Y3617887D1*
X1539990Y3613248D1*
X1533566Y3609387D1*
X1526707Y3606364D1*
X1519524Y3604227D1*
X1512127Y3603010D1*
X1504638Y3602732D1*
X1497172Y3603400D1*
X1489850Y3605000D1*
X1482787Y3607508D1*
X1476096Y3610885D1*
X1469882Y3615075D1*
X1464244Y3620014D1*
X1459273Y3625622D1*
X1456186Y3629980D1*
X2456173Y3630013D2*
X2451425Y3623568D1*
X2444824Y3616967D1*
X2438927Y3612584D1*
X2438839Y3328618D1*
X2437337Y3321067D1*
X2434113Y3314075D1*
X2429346Y3308029D1*
X2407560Y3286243D1*
X2409656Y3280975D1*
X2440934Y3312109D1*
X2447336Y3316387D1*
X2454559Y3319051D1*
X2462205Y3319957D1*
X2510105D1*
X2510122Y3343224D1*
X2530777D1*
X2530791Y3426492D1*
X2568184D1*
X2568193Y3517043D1*
X2645720D1*
X2656215Y3527533D1*
X2656185Y3621693D1*
X2652759Y3625136D1*
X2644824Y3616967D1*
X2637272Y3611479D1*
X2628954Y3607241D1*
X2620076Y3604357D1*
X2610856Y3602896D1*
X2601520D1*
X2592299Y3604357D1*
X2583421Y3607241D1*
X2575104Y3611479D1*
X2567551Y3616967D1*
X2560950Y3623568D1*
X2556202Y3630013D1*
X2551425Y3623568D1*
X2544824Y3616967D1*
X2537272Y3611479D1*
X2528954Y3607241D1*
X2520076Y3604357D1*
X2510856Y3602896D1*
X2501520D1*
X2492299Y3604357D1*
X2483421Y3607241D1*
X2475104Y3611479D1*
X2467551Y3616967D1*
X2460950Y3623568D1*
X2456202Y3630013D1*
X1019984Y2431484D2*
X1018777Y2421289D1*
X1016774Y2411220D1*
X1013988Y2401340D1*
X1010434Y2391709D1*
X1006138Y2382386D1*
X1001121Y2373429D1*
X995417Y2364894D1*
X989062Y2356832D1*
X982094Y2349293D1*
X974555Y2342325D1*
X966493Y2335970D1*
X957958Y2330266D1*
X949001Y2325249D1*
X939678Y2320953D1*
X930047Y2317399D1*
X920167Y2314613D1*
X910098Y2312610D1*
X899903Y2311403D1*
X889646Y2311000D1*
X879388Y2311403D1*
X869193Y2312610D1*
X859125Y2314613D1*
X849244Y2317399D1*
X839613Y2320953D1*
X830290Y2325249D1*
X821333Y2330266D1*
X812798Y2335970D1*
X804736Y2342325D1*
X797197Y2349293D1*
X790230Y2356832D1*
X783874Y2364894D1*
X778171Y2373429D1*
X773154Y2382386D1*
X768857Y2391709D1*
X765303Y2401340D1*
X762517Y2411220D1*
X760514Y2421289D1*
X759307Y2431484D1*
X758904Y2441741D1*
X759307Y2451999D1*
X760514Y2462194D1*
X762517Y2472262D1*
X765303Y2482143D1*
X768857Y2491774D1*
X773154Y2501097D1*
X778171Y2510054D1*
X783874Y2518589D1*
X790230Y2526651D1*
X797197Y2534190D1*
X804736Y2541157D1*
X812798Y2547513D1*
X821333Y2553217D1*
X830290Y2558234D1*
X839613Y2562530D1*
X849244Y2566084D1*
X859125Y2568870D1*
X869193Y2570873D1*
X879388Y2572080D1*
X889646Y2572483D1*
X899903Y2572080D1*
X910098Y2570873D1*
X920167Y2568870D1*
X930047Y2566084D1*
X939678Y2562530D1*
X949001Y2558234D1*
X957958Y2553217D1*
X966493Y2547513D1*
X974555Y2541157D1*
X982094Y2534190D1*
X989062Y2526651D1*
X995417Y2518589D1*
X1001121Y2510054D1*
X1006138Y2501097D1*
X1010434Y2491774D1*
X1013988Y2482143D1*
X1016774Y2472262D1*
X1018777Y2462194D1*
X1019984Y2451999D1*
X1020387Y2441741D1*
X1019984Y2431484D1*
Y3651957D2*
X1018777Y3641761D1*
X1016774Y3631693D1*
X1013988Y3621812D1*
X1010434Y3612181D1*
X1006138Y3602858D1*
X1001121Y3593902D1*
X995417Y3585366D1*
X989062Y3577304D1*
X982094Y3569765D1*
X974555Y3562798D1*
X966493Y3556442D1*
X957958Y3550739D1*
X949001Y3545722D1*
X939678Y3541425D1*
X930047Y3537871D1*
X920167Y3535085D1*
X910098Y3533083D1*
X899903Y3531875D1*
X889646Y3531472D1*
X879388Y3531875D1*
X869193Y3533083D1*
X859125Y3535085D1*
X849244Y3537871D1*
X839613Y3541425D1*
X830290Y3545722D1*
X821333Y3550739D1*
X812798Y3556442D1*
X804736Y3562798D1*
X797197Y3569765D1*
X790230Y3577304D1*
X783874Y3585366D1*
X778171Y3593902D1*
X773154Y3602858D1*
X768857Y3612181D1*
X765303Y3621812D1*
X762517Y3631693D1*
X760514Y3641761D1*
X759307Y3651957D1*
X758904Y3662214D1*
X759307Y3672471D1*
X760514Y3682667D1*
X762517Y3692735D1*
X765303Y3702615D1*
X768857Y3712247D1*
X773154Y3721570D1*
X778171Y3730526D1*
X783874Y3739062D1*
X790230Y3747123D1*
X797197Y3754663D1*
X804736Y3761630D1*
X812798Y3767986D1*
X821333Y3773689D1*
X830290Y3778706D1*
X839613Y3783003D1*
X849244Y3786556D1*
X859125Y3789343D1*
X869193Y3791345D1*
X879388Y3792552D1*
X889646Y3792955D1*
X899903Y3792552D1*
X910098Y3791345D1*
X920167Y3789343D1*
X930047Y3786556D1*
X939678Y3783003D1*
X949001Y3778706D1*
X957958Y3773689D1*
X966493Y3767986D1*
X974555Y3761630D1*
X982094Y3754663D1*
X989062Y3747123D1*
X995417Y3739062D1*
X1001121Y3730526D1*
X1006138Y3721570D1*
X1010434Y3712247D1*
X1013988Y3702615D1*
X1016774Y3692735D1*
X1018777Y3682667D1*
X1019984Y3672471D1*
X1020387Y3662214D1*
X1019984Y3651957D1*
X2318823Y884753D2*
X2457732D1*
Y733344D1*
X2306323D1*
Y884753D1*
X2318823D1*
X2260648Y803109D2*
X2258790Y791375D1*
X2255119Y780077D1*
X2249726Y769493D1*
X2242744Y759882D1*
X2234344Y751482D1*
X2224732Y744500D1*
X2214148Y739106D1*
X2202850Y735436D1*
X2191117Y733577D1*
X2179238D1*
X2167504Y735436D1*
X2156206Y739106D1*
X2145622Y744500D1*
X2136010Y751482D1*
X2127610Y759882D1*
X2120629Y769493D1*
X2115235Y780077D1*
X2111564Y791375D1*
X2109706Y803109D1*
Y814988D1*
X2111564Y826722D1*
X2115235Y838020D1*
X2120629Y848604D1*
X2127610Y858215D1*
X2136010Y866615D1*
X2145622Y873597D1*
X2156206Y878991D1*
X2167504Y882661D1*
X2179238Y884520D1*
X2191117D1*
X2202850Y882661D1*
X2214148Y878991D1*
X2224732Y873597D1*
X2234344Y866615D1*
X2242744Y858215D1*
X2249726Y848604D1*
X2255119Y838020D1*
X2258790Y826722D1*
X2260648Y814988D1*
Y803109D1*
X2094610Y2029144D2*
X2103449D1*
X2098518Y2033513D1*
X2092808Y2040197D1*
X2088217Y2047693D1*
X2084852Y2055814D1*
X2082801Y2064361D1*
X2082110Y2073125D1*
X2082801Y2081888D1*
X2084852Y2090436D1*
X2088217Y2098556D1*
X2092808Y2106052D1*
X2098518Y2112736D1*
X2105202Y2118446D1*
X2112698Y2123038D1*
X2120819Y2126403D1*
X2129366Y2128454D1*
X2138130Y2129144D1*
X2146894Y2128454D1*
X2155441Y2126403D1*
X2163562Y2123038D1*
X2171058Y2118446D1*
X2177741Y2112736D1*
X2183451Y2106052D1*
X2188043Y2098556D1*
X2191408Y2090436D1*
X2193459Y2081888D1*
X2194150Y2073125D1*
X2193459Y2064361D1*
X2191408Y2055814D1*
X2188043Y2047693D1*
X2183451Y2040197D1*
X2177741Y2033513D1*
X2172772Y2029155D1*
X2194150Y2029144D1*
Y1917105D1*
X2082110D1*
Y2029144D1*
X2094610D1*
X4019138Y679615D2*
X4119622D1*
Y566631D1*
X4006638D1*
Y679615D1*
X4019138D1*
X4119448Y1018692D2*
X4118062Y1009936D1*
X4115322Y1001505D1*
X4111298Y993606D1*
X4106087Y986434D1*
X4099819Y980167D1*
X4092647Y974955D1*
X4084748Y970932D1*
X4076318Y968192D1*
X4067562Y966806D1*
X4058698D1*
X4049942Y968192D1*
X4041512Y970932D1*
X4033613Y974955D1*
X4026441Y980167D1*
X4020173Y986434D1*
X4014962Y993606D1*
X4010938Y1001505D1*
X4008198Y1009936D1*
X4006812Y1018692D1*
Y1027555D1*
X4008198Y1036311D1*
X4010938Y1044741D1*
X4014962Y1052640D1*
X4020173Y1059812D1*
X4026441Y1066080D1*
X4033613Y1071291D1*
X4041512Y1075315D1*
X4049942Y1078055D1*
X4058698Y1079441D1*
X4067562D1*
X4076318Y1078055D1*
X4084748Y1075315D1*
X4092647Y1071291D1*
X4099819Y1066080D1*
X4106087Y1059812D1*
X4111298Y1052640D1*
X4115322Y1044741D1*
X4118062Y1036311D1*
X4119448Y1027555D1*
Y1018692D1*
X3567642Y1631113D2*
X3671118D1*
Y1515136D1*
X3555142D1*
Y1631113D1*
X3567642D1*
X3474089Y1568575D2*
X3472665Y1559588D1*
X3469853Y1550933D1*
X3465723Y1542825D1*
X3460374Y1535465D1*
X3453940Y1529030D1*
X3446579Y1523681D1*
X3438471Y1519551D1*
X3429816Y1516739D1*
X3420829Y1515315D1*
X3411730D1*
X3402743Y1516739D1*
X3394088Y1519551D1*
X3385980Y1523681D1*
X3378619Y1529030D1*
X3372185Y1535465D1*
X3366836Y1542825D1*
X3362706Y1550933D1*
X3359894Y1559588D1*
X3358470Y1568575D1*
Y1577675D1*
X3359894Y1586661D1*
X3362706Y1595316D1*
X3366836Y1603424D1*
X3372185Y1610785D1*
X3378619Y1617219D1*
X3385980Y1622568D1*
X3394088Y1626698D1*
X3402743Y1629510D1*
X3411730Y1630934D1*
X3420829D1*
X3429816Y1629510D1*
X3438471Y1626698D1*
X3446579Y1622568D1*
X3453940Y1617219D1*
X3460374Y1610785D1*
X3465723Y1603424D1*
X3469853Y1595316D1*
X3472665Y1586661D1*
X3474089Y1577675D1*
Y1568575D1*
X986736Y887017D2*
X1102024D1*
Y759230D1*
X974236D1*
Y887017D1*
X986736D1*
X1401039Y818110D2*
X1399471Y808207D1*
X1396373Y798672D1*
X1391820Y789739D1*
X1385928Y781627D1*
X1378839Y774538D1*
X1370727Y768646D1*
X1361794Y764093D1*
X1352259Y760995D1*
X1342356Y759427D1*
X1332329D1*
X1322427Y760995D1*
X1312891Y764093D1*
X1303958Y768646D1*
X1295846Y774538D1*
X1288757Y781627D1*
X1282865Y789739D1*
X1278312Y798672D1*
X1275214Y808207D1*
X1273646Y818110D1*
Y828136D1*
X1275214Y838039D1*
X1278312Y847575D1*
X1282865Y856508D1*
X1288757Y864619D1*
X1295846Y871709D1*
X1303958Y877601D1*
X1312891Y882154D1*
X1322427Y885252D1*
X1332329Y886820D1*
X1342356D1*
X1352259Y885252D1*
X1361794Y882154D1*
X1370727Y877601D1*
X1378839Y871709D1*
X1385928Y864619D1*
X1391820Y856508D1*
X1396373Y847575D1*
X1399471Y838039D1*
X1401039Y828136D1*
Y818110D1*
X2629699Y1376370D2*
X2636140Y1382352D1*
X2641575Y1385394D1*
X2647568Y1387085D1*
X2651713Y1387411D1*
X2675542Y1387085D1*
X2681535Y1385394D1*
X2686976Y1382346D1*
X2690591Y1382378D1*
X2697286Y1385151D1*
X2704332Y1386843D1*
X2711555Y1387411D1*
X2718778Y1386843D1*
X2725824Y1385151D1*
X2732520Y1382378D1*
X2736518Y1380047D1*
X2743885Y1383896D1*
X2750776Y1386135D1*
X2757932Y1387269D1*
X2765178D1*
X2772335Y1386135D1*
X2779226Y1383896D1*
X2785682Y1380606D1*
X2791545Y1376346D1*
X2796668Y1371223D1*
X2800928Y1365361D1*
X2804218Y1358904D1*
X2806457Y1352013D1*
X2807591Y1344857D1*
X2807684Y1301864D1*
X2807164Y1294640D1*
X2805472Y1287594D1*
X2802699Y1280899D1*
X2798913Y1274722D1*
X2794207Y1269211D1*
X2788697Y1264505D1*
X2782520Y1260719D1*
X2775824Y1257946D1*
X2768778Y1256255D1*
X2761555Y1255686D1*
X2754332Y1256255D1*
X2747286Y1257946D1*
X2740591Y1260719D1*
X2736592Y1263050D1*
X2729226Y1259201D1*
X2722335Y1256962D1*
X2715178Y1255828D1*
X2707932D1*
X2700776Y1256962D1*
X2693885Y1259201D1*
X2688453Y1261916D1*
X2683425Y1258573D1*
X2677583Y1256419D1*
X2671398Y1255686D1*
X2647568Y1256013D1*
X2641575Y1257703D1*
X2636140Y1260745D1*
X2626419Y1270008D1*
X2620437Y1276449D1*
X2617395Y1281883D1*
X2615705Y1287877D1*
X2615378Y1292021D1*
X2615459Y1353155D1*
X2616675Y1359262D1*
X2619282Y1364919D1*
X2623138Y1369808D1*
X2629699Y1376370D1*
X3136425Y1111507D2*
X3148933Y1098538D1*
X3151975Y1093104D1*
X3153667Y1087110D1*
X3153992Y1077966D1*
X3153667Y1059136D1*
X3151975Y1053143D1*
X3148928Y1047702D1*
X3148959Y1044088D1*
X3151732Y1037392D1*
X3153424Y1030346D1*
X3153992Y1023123D1*
X3153424Y1015900D1*
X3151732Y1008854D1*
X3148959Y1002159D1*
X3146629Y998160D1*
X3150478Y990794D1*
X3152717Y983903D1*
X3153850Y976747D1*
Y969500D1*
X3152717Y962344D1*
X3150478Y955453D1*
X3147188Y948996D1*
X3142928Y943134D1*
X3137804Y938010D1*
X3131942Y933751D1*
X3125486Y930461D1*
X3118594Y928222D1*
X3111438Y927088D1*
X3068445Y926995D1*
X3061222Y927514D1*
X3054176Y929206D1*
X3047480Y931979D1*
X3041303Y935765D1*
X3035793Y940471D1*
X3031087Y945982D1*
X3027301Y952159D1*
X3024528Y958854D1*
X3022836Y965900D1*
X3022268Y973123D1*
X3022836Y980346D1*
X3024528Y987392D1*
X3027301Y994088D1*
X3029631Y998087D1*
X3025782Y1005453D1*
X3023543Y1012344D1*
X3022409Y1019500D1*
Y1026747D1*
X3023543Y1033903D1*
X3025782Y1040794D1*
X3028497Y1046226D1*
X3025155Y1051253D1*
X3023000Y1057096D1*
X3022268Y1063281D1*
X3022593Y1087110D1*
X3024285Y1093104D1*
X3027327Y1098538D1*
X3033563Y1105235D1*
X3043030Y1114241D1*
X3048465Y1117283D1*
X3054458Y1118975D1*
X3063602Y1119301D1*
X3121802Y1118975D1*
X3127795Y1117283D1*
X3133230Y1114241D1*
X3136396Y1111535D1*
X3148933Y1098538D1*
X3151975Y1093104D1*
X3153667Y1087110D1*
X3153992Y1073115D1*
X3153667Y1059136D1*
X3151975Y1053143D1*
X3148933Y1047709D1*
X1951513Y1474828D2*
X1938545Y1462320D1*
X1933110Y1459278D1*
X1927117Y1457588D1*
X1917972Y1457261D1*
X1899143Y1457588D1*
X1893150Y1459278D1*
X1887710Y1462325D1*
X1884094Y1462294D1*
X1877399Y1459521D1*
X1870353Y1457829D1*
X1863130Y1457261D1*
X1855907Y1457829D1*
X1848861Y1459521D1*
X1842165Y1462294D1*
X1838167Y1464625D1*
X1830801Y1460776D1*
X1823909Y1458537D1*
X1816753Y1457403D1*
X1809507D1*
X1802350Y1458537D1*
X1795459Y1460776D1*
X1789003Y1464066D1*
X1783140Y1468325D1*
X1778017Y1473449D1*
X1773757Y1479311D1*
X1770467Y1485768D1*
X1768228Y1492659D1*
X1767094Y1499815D1*
X1766953Y1542808D1*
X1767521Y1550031D1*
X1769213Y1557077D1*
X1771986Y1563773D1*
X1775772Y1569950D1*
X1780478Y1575461D1*
X1785988Y1580167D1*
X1792165Y1583953D1*
X1798861Y1586726D1*
X1805907Y1588417D1*
X1813130Y1588986D1*
X1820353Y1588417D1*
X1827399Y1586726D1*
X1834094Y1583953D1*
X1838093Y1581622D1*
X1845459Y1585471D1*
X1852350Y1587710D1*
X1859507Y1588844D1*
X1866753D1*
X1873909Y1587710D1*
X1880801Y1585471D1*
X1886232Y1582756D1*
X1891260Y1586098D1*
X1897102Y1588253D1*
X1903287Y1588986D1*
X1927117Y1588660D1*
X1933110Y1586969D1*
X1938545Y1583927D1*
X1945240Y1577690D1*
X1954248Y1568223D1*
X1957290Y1562789D1*
X1958982Y1556795D1*
X1959307Y1547651D1*
X1958982Y1489451D1*
X1957290Y1483458D1*
X1954248Y1478024D1*
X1951542Y1474857D1*
X1938545Y1462320D1*
X1933110Y1459278D1*
X1927117Y1457588D1*
X1922972Y1457261D1*
X1674780Y1048097D2*
X1663545Y1037322D1*
X1658110Y1034280D1*
X1652117Y1032588D1*
X1642972Y1032262D1*
X1624143Y1032588D1*
X1618150Y1034280D1*
X1612709Y1037327D1*
X1609094Y1037295D1*
X1602399Y1034522D1*
X1595353Y1032831D1*
X1588130Y1032262D1*
X1580907Y1032831D1*
X1573861Y1034522D1*
X1567165Y1037295D1*
X1563167Y1039626D1*
X1555801Y1035777D1*
X1548909Y1033538D1*
X1541753Y1032404D1*
X1534507D1*
X1527350Y1033538D1*
X1520459Y1035777D1*
X1514003Y1039067D1*
X1508140Y1043327D1*
X1503017Y1048450D1*
X1498757Y1054312D1*
X1495467Y1060769D1*
X1493228Y1067660D1*
X1492094Y1074816D1*
X1491953Y1117810D1*
X1492521Y1125033D1*
X1494213Y1132079D1*
X1496986Y1138774D1*
X1500772Y1144951D1*
X1505478Y1150462D1*
X1510988Y1155168D1*
X1517165Y1158954D1*
X1523861Y1161727D1*
X1530907Y1163419D1*
X1538130Y1163987D1*
X1545353Y1163419D1*
X1552399Y1161727D1*
X1559094Y1158954D1*
X1563093Y1156623D1*
X1570459Y1160472D1*
X1577350Y1162711D1*
X1584507Y1163845D1*
X1591753D1*
X1598909Y1162711D1*
X1605801Y1160472D1*
X1611232Y1157757D1*
X1616260Y1161100D1*
X1622102Y1163255D1*
X1628287Y1163987D1*
X1652117Y1163661D1*
X1658110Y1161970D1*
X1663545Y1158928D1*
X1670241Y1152692D1*
X1679248Y1143224D1*
X1682290Y1137790D1*
X1683982Y1131797D1*
X1684307Y1122652D1*
X1683982Y1064453D1*
X1682290Y1058459D1*
X1679248Y1053025D1*
X1674780Y1048097D1*
X3964463Y1019084D2*
X3963199Y1011102D1*
X3960702Y1003419D1*
X3957034Y996219D1*
X3952285Y989682D1*
X3946571Y983969D1*
X3940034Y979219D1*
X3932835Y975551D1*
X3925151Y973054D1*
X3917169Y971790D1*
X3909091D1*
X3901109Y973054D1*
X3893425Y975551D1*
X3886226Y979219D1*
X3879689Y983969D1*
X3873975Y989682D1*
X3869226Y996219D1*
X3865558Y1003419D1*
X3863060Y1011102D1*
X3861797Y1019084D1*
Y1027163D1*
X3863060Y1035144D1*
X3865558Y1042828D1*
X3869226Y1050028D1*
X3873975Y1056564D1*
X3879689Y1062278D1*
X3886226Y1067028D1*
X3893425Y1070696D1*
X3901109Y1073193D1*
X3909091Y1074457D1*
X3917169D1*
X3925151Y1073193D1*
X3932835Y1070696D1*
X3940034Y1067028D1*
X3946571Y1062278D1*
X3952285Y1056564D1*
X3957034Y1050028D1*
X3960702Y1042828D1*
X3963199Y1035144D1*
X3964463Y1027163D1*
Y1019084D1*
X3814463D2*
X3813199Y1011102D1*
X3810702Y1003419D1*
X3807034Y996219D1*
X3802285Y989682D1*
X3796571Y983969D1*
X3790034Y979219D1*
X3782835Y975551D1*
X3775151Y973054D1*
X3767169Y971790D1*
X3759091D1*
X3751109Y973054D1*
X3743425Y975551D1*
X3736226Y979219D1*
X3729689Y983969D1*
X3723975Y989682D1*
X3719226Y996219D1*
X3715558Y1003419D1*
X3713060Y1011102D1*
X3711797Y1019084D1*
Y1027163D1*
X3713060Y1035144D1*
X3715558Y1042828D1*
X3719226Y1050028D1*
X3723975Y1056564D1*
X3729689Y1062278D1*
X3736226Y1067028D1*
X3743425Y1070696D1*
X3751109Y1073193D1*
X3759091Y1074457D1*
X3767169D1*
X3775151Y1073193D1*
X3782835Y1070696D1*
X3790034Y1067028D1*
X3796571Y1062278D1*
X3802285Y1056564D1*
X3807034Y1050028D1*
X3810702Y1042828D1*
X3813199Y1035144D1*
X3814463Y1027163D1*
Y1019084D1*
X2937888Y1192509D2*
X2936625Y1184528D1*
X2934127Y1176844D1*
X2930459Y1169644D1*
X2925710Y1163108D1*
X2919996Y1157394D1*
X2913459Y1152644D1*
X2906260Y1148976D1*
X2898576Y1146479D1*
X2890594Y1145215D1*
X2882516D1*
X2874534Y1146479D1*
X2866850Y1148976D1*
X2859651Y1152644D1*
X2853114Y1157394D1*
X2847400Y1163108D1*
X2842651Y1169644D1*
X2838983Y1176844D1*
X2836486Y1184528D1*
X2835222Y1192509D1*
Y1200588D1*
X2836486Y1208570D1*
X2838983Y1216253D1*
X2842651Y1223453D1*
X2847400Y1229990D1*
X2853114Y1235703D1*
X2859651Y1240453D1*
X2866850Y1244121D1*
X2874534Y1246618D1*
X2882516Y1247882D1*
X2890594D1*
X2898576Y1246618D1*
X2906260Y1244121D1*
X2913459Y1240453D1*
X2919996Y1235703D1*
X2925710Y1229990D1*
X2930459Y1223453D1*
X2934127Y1216253D1*
X2936625Y1208570D1*
X2937888Y1200588D1*
Y1192509D1*
X3237888D2*
X3236625Y1184528D1*
X3234127Y1176844D1*
X3230459Y1169644D1*
X3225710Y1163108D1*
X3219996Y1157394D1*
X3213459Y1152644D1*
X3206260Y1148976D1*
X3198576Y1146479D1*
X3190594Y1145215D1*
X3182516D1*
X3174534Y1146479D1*
X3166850Y1148976D1*
X3159651Y1152644D1*
X3153114Y1157394D1*
X3147400Y1163108D1*
X3142651Y1169644D1*
X3138983Y1176844D1*
X3136486Y1184528D1*
X3135222Y1192509D1*
Y1200588D1*
X3136486Y1208570D1*
X3138983Y1216253D1*
X3142651Y1223453D1*
X3147400Y1229990D1*
X3153114Y1235703D1*
X3159651Y1240453D1*
X3166850Y1244121D1*
X3174534Y1246618D1*
X3182516Y1247882D1*
X3190594D1*
X3198576Y1246618D1*
X3206260Y1244121D1*
X3213459Y1240453D1*
X3219996Y1235703D1*
X3225710Y1229990D1*
X3230459Y1223453D1*
X3234127Y1216253D1*
X3236625Y1208570D1*
X3237888Y1200588D1*
Y1192509D1*
X2618685Y1068224D2*
X2718224D1*
Y956185D1*
X2696887D1*
X2703217Y950366D1*
X2707942Y944550D1*
X2711852Y938156D1*
X2714871Y931297D1*
X2716948Y924096D1*
X2718045Y916682D1*
X2718001Y907211D1*
X2716836Y899808D1*
X2714692Y892627D1*
X2711609Y885797D1*
X2707642Y879438D1*
X2702861Y873665D1*
X2697353Y868584D1*
X2691217Y864282D1*
X2687462Y862215D1*
X2693755Y858495D1*
X2699651Y853870D1*
X2704878Y848499D1*
X2709340Y842478D1*
X2712959Y835915D1*
X2715671Y828928D1*
X2717424Y821642D1*
X2718224Y812205D1*
X2717723Y804727D1*
X2716228Y797383D1*
X2713766Y790304D1*
X2710382Y783618D1*
X2706135Y777444D1*
X2701101Y771891D1*
X2695373Y767059D1*
X2689050Y763035D1*
X2682245Y759892D1*
X2675084Y757685D1*
X2667692Y756454D1*
X2660201Y756220D1*
X2652745Y756990D1*
X2645461Y758747D1*
X2638474Y761459D1*
X2631913Y765081D1*
X2625894Y769546D1*
X2620525Y774774D1*
X2615902Y780673D1*
X2612108Y787136D1*
X2609209Y794047D1*
X2607260Y801283D1*
X2606294Y808717D1*
X2606328Y816210D1*
X2607364Y823633D1*
X2609379Y830850D1*
X2612341Y837735D1*
X2616196Y844163D1*
X2620873Y850018D1*
X2626290Y855197D1*
X2632350Y859606D1*
X2636949Y862202D1*
X2629841Y866479D1*
X2624028Y871209D1*
X2618896Y876672D1*
X2614541Y882770D1*
X2611038Y889396D1*
X2608451Y896430D1*
X2606827Y903747D1*
X2606194Y911214D1*
X2606563Y918699D1*
X2607928Y926068D1*
X2610264Y933189D1*
X2613530Y939934D1*
X2617667Y946184D1*
X2622601Y951824D1*
X2627534Y956190D1*
X2606185Y956185D1*
Y1068224D1*
X2618685D1*
X3239463Y569084D2*
X3238199Y561102D1*
X3235702Y553419D1*
X3232034Y546219D1*
X3227285Y539682D1*
X3221571Y533969D1*
X3215034Y529219D1*
X3207835Y525551D1*
X3200151Y523054D1*
X3192169Y521790D1*
X3184091D1*
X3176109Y523054D1*
X3168425Y525551D1*
X3161226Y529219D1*
X3154689Y533969D1*
X3148975Y539682D1*
X3144226Y546219D1*
X3140558Y553419D1*
X3138060Y561102D1*
X3136797Y569084D1*
Y577163D1*
X3138060Y585144D1*
X3140558Y592828D1*
X3144226Y600028D1*
X3148975Y606564D1*
X3154689Y612278D1*
X3161226Y617028D1*
X3168425Y620696D1*
X3176109Y623193D1*
X3184091Y624457D1*
X3192169D1*
X3200151Y623193D1*
X3207835Y620696D1*
X3215034Y617028D1*
X3221571Y612278D1*
X3227285Y606564D1*
X3232034Y600028D1*
X3235702Y592828D1*
X3238199Y585144D1*
X3239463Y577163D1*
Y569084D1*
Y869084D2*
X3238199Y861102D1*
X3235702Y853419D1*
X3232034Y846219D1*
X3227285Y839682D1*
X3221571Y833969D1*
X3215034Y829219D1*
X3207835Y825551D1*
X3200151Y823054D1*
X3192169Y821790D1*
X3184091D1*
X3176109Y823054D1*
X3168425Y825551D1*
X3161226Y829219D1*
X3154689Y833969D1*
X3148975Y839682D1*
X3144226Y846219D1*
X3140558Y853419D1*
X3138060Y861102D1*
X3136797Y869084D1*
Y877163D1*
X3138060Y885144D1*
X3140558Y892828D1*
X3144226Y900028D1*
X3148975Y906564D1*
X3154689Y912278D1*
X3161226Y917028D1*
X3168425Y920696D1*
X3176109Y923193D1*
X3184091Y924457D1*
X3192169D1*
X3200151Y923193D1*
X3207835Y920696D1*
X3215034Y917028D1*
X3221571Y912278D1*
X3227285Y906564D1*
X3232034Y900028D1*
X3235702Y892828D1*
X3238199Y885144D1*
X3239463Y877163D1*
Y869084D1*
X2339463Y1069085D2*
X2338199Y1061104D1*
X2335702Y1053420D1*
X2332034Y1046220D1*
X2327285Y1039684D1*
X2321571Y1033970D1*
X2315034Y1029220D1*
X2307835Y1025552D1*
X2300151Y1023055D1*
X2292169Y1021791D1*
X2284091D1*
X2276109Y1023055D1*
X2268425Y1025552D1*
X2261226Y1029220D1*
X2254689Y1033970D1*
X2248975Y1039684D1*
X2244226Y1046220D1*
X2240558Y1053420D1*
X2238060Y1061104D1*
X2236797Y1069085D1*
Y1077164D1*
X2238060Y1085146D1*
X2240558Y1092829D1*
X2244226Y1100029D1*
X2248975Y1106566D1*
X2254689Y1112280D1*
X2261226Y1117029D1*
X2268425Y1120697D1*
X2276109Y1123194D1*
X2284091Y1124458D1*
X2292169D1*
X2300151Y1123194D1*
X2307835Y1120697D1*
X2315034Y1117029D1*
X2321571Y1112280D1*
X2327285Y1106566D1*
X2332034Y1100029D1*
X2335702Y1092829D1*
X2338199Y1085146D1*
X2339463Y1077164D1*
Y1069085D1*
Y1369085D2*
X2338199Y1361104D1*
X2335702Y1353420D1*
X2332034Y1346220D1*
X2327285Y1339684D1*
X2321571Y1333970D1*
X2315034Y1329220D1*
X2307835Y1325552D1*
X2300151Y1323055D1*
X2292169Y1321791D1*
X2284091D1*
X2276109Y1323055D1*
X2268425Y1325552D1*
X2261226Y1329220D1*
X2254689Y1333970D1*
X2248975Y1339684D1*
X2244226Y1346220D1*
X2240558Y1353420D1*
X2238060Y1361104D1*
X2236797Y1369085D1*
Y1377164D1*
X2238060Y1385146D1*
X2240558Y1392829D1*
X2244226Y1400029D1*
X2248975Y1406566D1*
X2254689Y1412280D1*
X2261226Y1417029D1*
X2268425Y1420697D1*
X2276109Y1423194D1*
X2284091Y1424458D1*
X2292169D1*
X2300151Y1423194D1*
X2307835Y1420697D1*
X2315034Y1417029D1*
X2321571Y1412280D1*
X2327285Y1406566D1*
X2332034Y1400029D1*
X2335702Y1392829D1*
X2338199Y1385146D1*
X2339463Y1377164D1*
Y1369085D1*
X2164463Y1069085D2*
X2163199Y1061104D1*
X2160702Y1053420D1*
X2157034Y1046220D1*
X2152285Y1039684D1*
X2146571Y1033970D1*
X2140034Y1029220D1*
X2132835Y1025552D1*
X2125151Y1023055D1*
X2117169Y1021791D1*
X2109091D1*
X2101109Y1023055D1*
X2093425Y1025552D1*
X2086226Y1029220D1*
X2079689Y1033970D1*
X2073975Y1039684D1*
X2069226Y1046220D1*
X2065558Y1053420D1*
X2063060Y1061104D1*
X2061797Y1069085D1*
Y1077164D1*
X2063060Y1085146D1*
X2065558Y1092829D1*
X2069226Y1100029D1*
X2073975Y1106566D1*
X2079689Y1112280D1*
X2086226Y1117029D1*
X2093425Y1120697D1*
X2101109Y1123194D1*
X2109091Y1124458D1*
X2117169D1*
X2125151Y1123194D1*
X2132835Y1120697D1*
X2140034Y1117029D1*
X2146571Y1112280D1*
X2152285Y1106566D1*
X2157034Y1100029D1*
X2160702Y1092829D1*
X2163199Y1085146D1*
X2164463Y1077164D1*
Y1069085D1*
Y1369085D2*
X2163199Y1361104D1*
X2160702Y1353420D1*
X2157034Y1346220D1*
X2152285Y1339684D1*
X2146571Y1333970D1*
X2140034Y1329220D1*
X2132835Y1325552D1*
X2125151Y1323055D1*
X2117169Y1321791D1*
X2109091D1*
X2101109Y1323055D1*
X2093425Y1325552D1*
X2086226Y1329220D1*
X2079689Y1333970D1*
X2073975Y1339684D1*
X2069226Y1346220D1*
X2065558Y1353420D1*
X2063060Y1361104D1*
X2061797Y1369085D1*
Y1377164D1*
X2063060Y1385146D1*
X2065558Y1392829D1*
X2069226Y1400029D1*
X2073975Y1406566D1*
X2079689Y1412280D1*
X2086226Y1417029D1*
X2093425Y1420697D1*
X2101109Y1423194D1*
X2109091Y1424458D1*
X2117169D1*
X2125151Y1423194D1*
X2132835Y1420697D1*
X2140034Y1417029D1*
X2146571Y1412280D1*
X2152285Y1406566D1*
X2157034Y1400029D1*
X2160702Y1392829D1*
X2163199Y1385146D1*
X2164463Y1377164D1*
Y1369085D1*
X1914463D2*
X1913199Y1361104D1*
X1910702Y1353420D1*
X1907034Y1346220D1*
X1902285Y1339684D1*
X1896571Y1333970D1*
X1890034Y1329220D1*
X1882835Y1325552D1*
X1875151Y1323055D1*
X1867169Y1321791D1*
X1859091D1*
X1851109Y1323055D1*
X1843425Y1325552D1*
X1836226Y1329220D1*
X1829689Y1333970D1*
X1823975Y1339684D1*
X1819226Y1346220D1*
X1815558Y1353420D1*
X1813134Y1360845D1*
X1810702Y1353420D1*
X1807034Y1346220D1*
X1802285Y1339684D1*
X1796571Y1333970D1*
X1790034Y1329220D1*
X1782835Y1325552D1*
X1775151Y1323055D1*
X1767169Y1321791D1*
X1759091D1*
X1751109Y1323055D1*
X1743425Y1325552D1*
X1736226Y1329220D1*
X1729689Y1333970D1*
X1723975Y1339684D1*
X1719226Y1346220D1*
X1715558Y1353420D1*
X1713060Y1361104D1*
X1711797Y1369085D1*
Y1377164D1*
X1713060Y1385146D1*
X1715558Y1392829D1*
X1719226Y1400029D1*
X1723975Y1406566D1*
X1729689Y1412280D1*
X1736226Y1417029D1*
X1743425Y1420697D1*
X1751109Y1423194D1*
X1759091Y1424458D1*
X1767169D1*
X1775151Y1423194D1*
X1782835Y1420697D1*
X1790034Y1417029D1*
X1796571Y1412280D1*
X1802285Y1406566D1*
X1807034Y1400029D1*
X1810702Y1392829D1*
X1813126Y1385404D1*
X1815558Y1392829D1*
X1819226Y1400029D1*
X1823975Y1406566D1*
X1829689Y1412280D1*
X1836226Y1417029D1*
X1843425Y1420697D1*
X1851109Y1423194D1*
X1859091Y1424458D1*
X1867169D1*
X1875151Y1423194D1*
X1882835Y1420697D1*
X1890034Y1417029D1*
X1896571Y1412280D1*
X1902285Y1406566D1*
X1907034Y1400029D1*
X1910702Y1392829D1*
X1913199Y1385146D1*
X1914463Y1377164D1*
Y1369085D1*
X1914562Y1070626D2*
X1913654Y1063188D1*
X1911677Y1055959D1*
X1908672Y1049096D1*
X1904702Y1042740D1*
X1899852Y1037028D1*
X1894223Y1032080D1*
X1887937Y1028003D1*
X1881126Y1024879D1*
X1873933Y1022778D1*
X1866510Y1021744D1*
X1859018Y1021797D1*
X1851612Y1022937D1*
X1844450Y1025140D1*
X1837684Y1028360D1*
X1831455Y1032528D1*
X1825899Y1037554D1*
X1821130Y1043335D1*
X1817251Y1049745D1*
X1814344Y1056652D1*
X1813135Y1060845D1*
X1810702Y1053420D1*
X1807034Y1046220D1*
X1802285Y1039684D1*
X1796571Y1033970D1*
X1790034Y1029220D1*
X1782835Y1025552D1*
X1775151Y1023055D1*
X1767169Y1021791D1*
X1759091D1*
X1751109Y1023055D1*
X1743425Y1025552D1*
X1736226Y1029220D1*
X1729689Y1033970D1*
X1723975Y1039684D1*
X1719226Y1046220D1*
X1715558Y1053420D1*
X1713060Y1061104D1*
X1711797Y1069085D1*
Y1077164D1*
X1713060Y1085146D1*
X1715558Y1092829D1*
X1719226Y1100029D1*
X1723975Y1106566D1*
X1729689Y1112280D1*
X1736226Y1117029D1*
X1743425Y1120697D1*
X1751109Y1123194D1*
X1759091Y1124458D1*
X1767169D1*
X1775151Y1123194D1*
X1782835Y1120697D1*
X1790034Y1117029D1*
X1796571Y1112280D1*
X1802285Y1106566D1*
X1807034Y1100029D1*
X1810702Y1092829D1*
X1813126Y1085404D1*
X1815756Y1093302D1*
X1819186Y1099965D1*
X1823546Y1106058D1*
X1828745Y1111454D1*
X1834673Y1116039D1*
X1841202Y1119715D1*
X1848197Y1122404D1*
X1855507Y1124050D1*
X1862979Y1124617D1*
X1870454Y1124093D1*
X1877774Y1122491D1*
X1884783Y1119843D1*
X1891335Y1116205D1*
X1897289Y1111655D1*
X1902520Y1106289D1*
X1906916Y1100220D1*
X1910385Y1093579D1*
X1912853Y1086504D1*
X1914269Y1079146D1*
X1914562Y1070626D1*
X1864463Y1719085D2*
X1863199Y1711104D1*
X1860702Y1703420D1*
X1857034Y1696220D1*
X1852285Y1689684D1*
X1846571Y1683970D1*
X1840034Y1679220D1*
X1832835Y1675552D1*
X1825151Y1673055D1*
X1817169Y1671791D1*
X1809091D1*
X1801109Y1673055D1*
X1793425Y1675552D1*
X1786226Y1679220D1*
X1779689Y1683970D1*
X1773975Y1689684D1*
X1769226Y1696220D1*
X1765558Y1703420D1*
X1763060Y1711104D1*
X1761797Y1719085D1*
Y1727164D1*
X1763060Y1735146D1*
X1765558Y1742829D1*
X1769226Y1750029D1*
X1773975Y1756566D1*
X1779689Y1762280D1*
X1786226Y1767029D1*
X1793425Y1770697D1*
X1801109Y1773194D1*
X1809091Y1774458D1*
X1817169D1*
X1825151Y1773194D1*
X1832835Y1770697D1*
X1840034Y1767029D1*
X1846571Y1762280D1*
X1852285Y1756566D1*
X1857034Y1750029D1*
X1860702Y1742829D1*
X1863199Y1735146D1*
X1864463Y1727164D1*
Y1719085D1*
X689463Y1794085D2*
X688199Y1786104D1*
X685702Y1778420D1*
X682034Y1771220D1*
X677285Y1764684D1*
X671571Y1758970D1*
X665034Y1754220D1*
X657835Y1750552D1*
X650151Y1748055D1*
X642169Y1746791D1*
X634091D1*
X626109Y1748055D1*
X618425Y1750552D1*
X611226Y1754220D1*
X604689Y1758970D1*
X598975Y1764684D1*
X594226Y1771220D1*
X590558Y1778420D1*
X588060Y1786104D1*
X586797Y1794085D1*
Y1802164D1*
X588060Y1810146D1*
X590558Y1817829D1*
X594226Y1825029D1*
X598975Y1831566D1*
X604689Y1837280D1*
X611226Y1842029D1*
X618425Y1845697D1*
X626109Y1848194D1*
X634091Y1849458D1*
X642169D1*
X650151Y1848194D1*
X657835Y1845697D1*
X665034Y1842029D1*
X671571Y1837280D1*
X677285Y1831566D1*
X682034Y1825029D1*
X685702Y1817829D1*
X688199Y1810146D1*
X689463Y1802164D1*
Y1794085D1*
X989463D2*
X988199Y1786104D1*
X985702Y1778420D1*
X982034Y1771220D1*
X977285Y1764684D1*
X971571Y1758970D1*
X965034Y1754220D1*
X957835Y1750552D1*
X950151Y1748055D1*
X942169Y1746791D1*
X934091D1*
X926109Y1748055D1*
X918425Y1750552D1*
X911226Y1754220D1*
X904689Y1758970D1*
X898975Y1764684D1*
X894226Y1771220D1*
X890558Y1778420D1*
X888060Y1786104D1*
X886797Y1794085D1*
Y1802164D1*
X888060Y1810146D1*
X890558Y1817829D1*
X894226Y1825029D1*
X898975Y1831566D1*
X904689Y1837280D1*
X911226Y1842029D1*
X918425Y1845697D1*
X926109Y1848194D1*
X934091Y1849458D1*
X942169D1*
X950151Y1848194D1*
X957835Y1845697D1*
X965034Y1842029D1*
X971571Y1837280D1*
X977285Y1831566D1*
X982034Y1825029D1*
X985702Y1817829D1*
X988199Y1810146D1*
X989463Y1802164D1*
Y1794085D1*
X1664463Y1319085D2*
X1663199Y1311104D1*
X1660702Y1303420D1*
X1657034Y1296220D1*
X1652285Y1289684D1*
X1646571Y1283970D1*
X1640034Y1279220D1*
X1632835Y1275552D1*
X1625151Y1273055D1*
X1617169Y1271791D1*
X1609091D1*
X1601109Y1273055D1*
X1593425Y1275552D1*
X1586226Y1279220D1*
X1579689Y1283970D1*
X1573975Y1289684D1*
X1569226Y1296220D1*
X1565558Y1303420D1*
X1563134Y1310845D1*
X1560702Y1303420D1*
X1557034Y1296220D1*
X1552285Y1289684D1*
X1546571Y1283970D1*
X1540034Y1279220D1*
X1532835Y1275552D1*
X1525151Y1273055D1*
X1517169Y1271791D1*
X1509091D1*
X1501109Y1273055D1*
X1493425Y1275552D1*
X1486226Y1279220D1*
X1479689Y1283970D1*
X1473975Y1289684D1*
X1469226Y1296220D1*
X1465558Y1303420D1*
X1463060Y1311104D1*
X1461797Y1319085D1*
Y1327164D1*
X1463060Y1335146D1*
X1465558Y1342829D1*
X1469226Y1350029D1*
X1473975Y1356566D1*
X1479689Y1362280D1*
X1486226Y1367029D1*
X1493425Y1370697D1*
X1501109Y1373194D1*
X1509091Y1374458D1*
X1517169D1*
X1525151Y1373194D1*
X1532835Y1370697D1*
X1540034Y1367029D1*
X1546571Y1362280D1*
X1552285Y1356566D1*
X1557034Y1350029D1*
X1560702Y1342829D1*
X1563126Y1335404D1*
X1565558Y1342829D1*
X1569226Y1350029D1*
X1573975Y1356566D1*
X1579689Y1362280D1*
X1586226Y1367029D1*
X1593425Y1370697D1*
X1601109Y1373194D1*
X1609091Y1374458D1*
X1617169D1*
X1625151Y1373194D1*
X1632835Y1370697D1*
X1640034Y1367029D1*
X1646571Y1362280D1*
X1652285Y1356566D1*
X1657034Y1350029D1*
X1660702Y1342829D1*
X1663199Y1335146D1*
X1664463Y1327164D1*
Y1319085D1*
Y1619085D2*
X1663199Y1611104D1*
X1660702Y1603420D1*
X1657034Y1596220D1*
X1652285Y1589684D1*
X1646571Y1583970D1*
X1640034Y1579220D1*
X1632835Y1575552D1*
X1625151Y1573055D1*
X1617169Y1571791D1*
X1609091D1*
X1601109Y1573055D1*
X1593425Y1575552D1*
X1586226Y1579220D1*
X1579689Y1583970D1*
X1573975Y1589684D1*
X1569226Y1596220D1*
X1565558Y1603420D1*
X1563134Y1610845D1*
X1560702Y1603420D1*
X1557034Y1596220D1*
X1552285Y1589684D1*
X1546571Y1583970D1*
X1540034Y1579220D1*
X1532835Y1575552D1*
X1525151Y1573055D1*
X1517169Y1571791D1*
X1509091D1*
X1501109Y1573055D1*
X1493425Y1575552D1*
X1486226Y1579220D1*
X1479689Y1583970D1*
X1473975Y1589684D1*
X1469226Y1596220D1*
X1465564Y1603406D1*
X1463043Y1597693D1*
X1458451Y1590197D1*
X1452741Y1583513D1*
X1446058Y1577803D1*
X1438391Y1573131D1*
X1446058Y1568446D1*
X1452741Y1562736D1*
X1458451Y1556052D1*
X1463043Y1548556D1*
X1466408Y1540436D1*
X1468459Y1531888D1*
X1469150Y1523125D1*
X1468459Y1514361D1*
X1466408Y1505814D1*
X1463043Y1497693D1*
X1458451Y1490197D1*
X1452741Y1483513D1*
X1446058Y1477803D1*
X1438562Y1473211D1*
X1430441Y1469846D1*
X1421894Y1467795D1*
X1413130Y1467105D1*
X1404366Y1467795D1*
X1395819Y1469846D1*
X1387698Y1473211D1*
X1380202Y1477803D1*
X1373518Y1483513D1*
X1367808Y1490197D1*
X1363217Y1497693D1*
X1359852Y1505814D1*
X1357801Y1514361D1*
X1357110Y1523125D1*
X1357801Y1531888D1*
X1359852Y1540436D1*
X1363217Y1548556D1*
X1367808Y1556052D1*
X1373518Y1562736D1*
X1380202Y1568446D1*
X1387869Y1573118D1*
X1380202Y1577803D1*
X1373518Y1583513D1*
X1367808Y1590197D1*
X1363217Y1597693D1*
X1359852Y1605814D1*
X1357801Y1614361D1*
X1357110Y1623125D1*
X1357801Y1631888D1*
X1359852Y1640436D1*
X1363217Y1648556D1*
X1367808Y1656052D1*
X1373518Y1662736D1*
X1380202Y1668446D1*
X1387869Y1673118D1*
X1380202Y1677803D1*
X1373518Y1683513D1*
X1367808Y1690197D1*
X1363217Y1697693D1*
X1359852Y1705814D1*
X1357801Y1714361D1*
X1357110Y1723125D1*
X1357801Y1731888D1*
X1359852Y1740436D1*
X1363217Y1748556D1*
X1367808Y1756052D1*
X1373518Y1762736D1*
X1378488Y1767094D1*
X1357110Y1767105D1*
Y1879144D1*
X1469150D1*
Y1767105D1*
X1447832D1*
X1452741Y1762736D1*
X1458451Y1756052D1*
X1463043Y1748556D1*
X1466408Y1740436D1*
X1468459Y1731888D1*
X1469150Y1723125D1*
X1468459Y1714361D1*
X1466408Y1705814D1*
X1463043Y1697693D1*
X1458451Y1690197D1*
X1452741Y1683513D1*
X1446058Y1677803D1*
X1438391Y1673131D1*
X1446058Y1668446D1*
X1452741Y1662736D1*
X1458451Y1656052D1*
X1463043Y1648556D1*
X1465546Y1642773D1*
X1469226Y1650029D1*
X1473975Y1656566D1*
X1479689Y1662280D1*
X1486226Y1667029D1*
X1493425Y1670697D1*
X1501109Y1673194D1*
X1509091Y1674458D1*
X1517169D1*
X1525151Y1673194D1*
X1532835Y1670697D1*
X1540034Y1667029D1*
X1546571Y1662280D1*
X1552285Y1656566D1*
X1557034Y1650029D1*
X1560702Y1642829D1*
X1563126Y1635404D1*
X1565558Y1642829D1*
X1569226Y1650029D1*
X1573975Y1656566D1*
X1579689Y1662280D1*
X1586226Y1667029D1*
X1593425Y1670697D1*
X1601109Y1673194D1*
X1609091Y1674458D1*
X1617169D1*
X1625151Y1673194D1*
X1632835Y1670697D1*
X1640034Y1667029D1*
X1646571Y1662280D1*
X1652285Y1656566D1*
X1657034Y1650029D1*
X1660702Y1642829D1*
X1663199Y1635146D1*
X1664463Y1627164D1*
Y1619085D1*
X1358685Y3930724D2*
X1468224D1*
Y3818685D1*
X1356185D1*
Y3930724D1*
X1358685D1*
X968051Y3870310D2*
X966677Y3861627D1*
X963961Y3853266D1*
X959970Y3845434D1*
X954802Y3838323D1*
X948587Y3832108D1*
X941475Y3826940D1*
X933643Y3822949D1*
X925282Y3820232D1*
X916600Y3818858D1*
X907810D1*
X899127Y3820232D1*
X890766Y3822949D1*
X882934Y3826940D1*
X875823Y3832108D1*
X869608Y3838323D1*
X864440Y3845434D1*
X860449Y3853266D1*
X857732Y3861627D1*
X856358Y3870310D1*
Y3879100D1*
X857732Y3887782D1*
X860449Y3896143D1*
X864440Y3903975D1*
X869608Y3911087D1*
X875823Y3917302D1*
X882934Y3922470D1*
X890766Y3926461D1*
X899127Y3929177D1*
X907810Y3930551D1*
X916600D1*
X925282Y3929177D1*
X933643Y3926461D1*
X941475Y3922470D1*
X948587Y3917302D1*
X954802Y3911087D1*
X959970Y3903975D1*
X963961Y3896143D1*
X966677Y3887782D1*
X968051Y3879100D1*
Y3870310D1*
X4276050Y1934705D2*
X4274879Y1924785D1*
X4272177Y1915167D1*
X4268009Y1906088D1*
X4262478Y1897770D1*
X4255717Y1890416D1*
X4247891Y1884206D1*
X4239194Y1879291D1*
X4229837Y1875793D1*
X4220049Y1873794D1*
X4210070Y1873346D1*
X4200142Y1874461D1*
X4190509Y1877108D1*
X4181407Y1881223D1*
X4173058Y1886709D1*
X4165665Y1893428D1*
X4159409Y1901217D1*
X4154446Y1909886D1*
X4150894Y1919223D1*
X4148840Y1929000D1*
X4148336Y1938976D1*
X4149392Y1948911D1*
X4151984Y1958558D1*
X4156049Y1967684D1*
X4161487Y1976064D1*
X4168163Y1983495D1*
X4175917Y1989794D1*
X4184558Y1994807D1*
X4193874Y1998412D1*
X4203639Y2000521D1*
X4213613Y2001083D1*
X4223552Y2000083D1*
X4233214Y1997546D1*
X4242364Y1993533D1*
X4250774Y1988144D1*
X4258243Y1981509D1*
X4264587Y1973791D1*
X4269648Y1965180D1*
X4273307Y1955883D1*
X4275471Y1946131D1*
X4276098Y1937205D1*
X4276050Y1934705D1*
X3559610Y929143D2*
X3669150D1*
Y817104D1*
X3557110D1*
Y838421D1*
X3552741Y833512D1*
X3546058Y827802D1*
X3538562Y823210D1*
X3530441Y819845D1*
X3521894Y817794D1*
X3513130Y817104D1*
X3504366Y817794D1*
X3495819Y819845D1*
X3487698Y823210D1*
X3480202Y827802D1*
X3473518Y833512D1*
X3467808Y840196D1*
X3463136Y847862D1*
X3458451Y840196D1*
X3452741Y833512D1*
X3446058Y827802D1*
X3438562Y823210D1*
X3430441Y819845D1*
X3421894Y817794D1*
X3413130Y817104D1*
X3404366Y817794D1*
X3395819Y819845D1*
X3387698Y823210D1*
X3380202Y827802D1*
X3373518Y833512D1*
X3367808Y840196D1*
X3363136Y847862D1*
X3358451Y840196D1*
X3352741Y833512D1*
X3346058Y827802D1*
X3338562Y823210D1*
X3330441Y819845D1*
X3321894Y817794D1*
X3313130Y817104D1*
X3304366Y817794D1*
X3295819Y819845D1*
X3287698Y823210D1*
X3280202Y827802D1*
X3273518Y833512D1*
X3267808Y840196D1*
X3263217Y847692D1*
X3259852Y855812D1*
X3257801Y864360D1*
X3257110Y873123D1*
X3257801Y881887D1*
X3259852Y890434D1*
X3263217Y898555D1*
X3267808Y906051D1*
X3273518Y912735D1*
X3280202Y918445D1*
X3287698Y923037D1*
X3295819Y926402D1*
X3304366Y928453D1*
X3313130Y929143D1*
X3321894Y928453D1*
X3330441Y926402D1*
X3338562Y923037D1*
X3346058Y918445D1*
X3352741Y912735D1*
X3358451Y906051D1*
X3363123Y898385D1*
X3367808Y906051D1*
X3373518Y912735D1*
X3380202Y918445D1*
X3387698Y923037D1*
X3395819Y926402D1*
X3404366Y928453D1*
X3413130Y929143D1*
X3421894Y928453D1*
X3430441Y926402D1*
X3438562Y923037D1*
X3446058Y918445D1*
X3452741Y912735D1*
X3458451Y906051D1*
X3463123Y898385D1*
X3467808Y906051D1*
X3473518Y912735D1*
X3480202Y918445D1*
X3487698Y923037D1*
X3495819Y926402D1*
X3504366Y928453D1*
X3513130Y929143D1*
X3521894Y928453D1*
X3530441Y926402D1*
X3538562Y923037D1*
X3546058Y918445D1*
X3552741Y912735D1*
X3557121Y907738D1*
X3557110Y929143D1*
X3559610D1*
X3363123Y1147862D2*
X3358451Y1140196D1*
X3352741Y1133512D1*
X3346058Y1127802D1*
X3338562Y1123210D1*
X3330441Y1119845D1*
X3321894Y1117794D1*
X3313130Y1117104D1*
X3304366Y1117794D1*
X3295819Y1119845D1*
X3287698Y1123210D1*
X3280202Y1127802D1*
X3273518Y1133512D1*
X3267808Y1140196D1*
X3263217Y1147692D1*
X3259852Y1155812D1*
X3257801Y1164360D1*
X3257110Y1173123D1*
X3257801Y1181887D1*
X3259852Y1190434D1*
X3263217Y1198555D1*
X3267808Y1206051D1*
X3273518Y1212735D1*
X3280202Y1218445D1*
X3287698Y1223037D1*
X3295819Y1226402D1*
X3304366Y1228453D1*
X3313130Y1229143D1*
X3321894Y1228453D1*
X3330441Y1226402D1*
X3338562Y1223037D1*
X3346058Y1218445D1*
X3352741Y1212735D1*
X3358451Y1206051D1*
X3363123Y1198385D1*
X3367808Y1206051D1*
X3373518Y1212735D1*
X3380202Y1218445D1*
X3387698Y1223037D1*
X3395819Y1226402D1*
X3404366Y1228453D1*
X3413130Y1229143D1*
X3421894Y1228453D1*
X3430441Y1226402D1*
X3438562Y1223037D1*
X3446058Y1218445D1*
X3452741Y1212735D1*
X3458451Y1206051D1*
X3463123Y1198385D1*
X3467808Y1206051D1*
X3473518Y1212735D1*
X3480202Y1218445D1*
X3487698Y1223037D1*
X3495819Y1226402D1*
X3504366Y1228453D1*
X3513130Y1229143D1*
X3521894Y1228453D1*
X3530441Y1226402D1*
X3538562Y1223037D1*
X3546058Y1218445D1*
X3552741Y1212735D1*
X3558451Y1206051D1*
X3563123Y1198385D1*
X3567808Y1206051D1*
X3573518Y1212735D1*
X3580202Y1218445D1*
X3587698Y1223037D1*
X3595819Y1226402D1*
X3604366Y1228453D1*
X3613130Y1229143D1*
X3621894Y1228453D1*
X3630441Y1226402D1*
X3638562Y1223037D1*
X3646058Y1218445D1*
X3652741Y1212735D1*
X3658451Y1206051D1*
X3663043Y1198555D1*
X3666408Y1190434D1*
X3668459Y1181887D1*
X3669150Y1173123D1*
X3668459Y1164360D1*
X3666408Y1155812D1*
X3663043Y1147692D1*
X3658451Y1140196D1*
X3652741Y1133512D1*
X3646058Y1127802D1*
X3638562Y1123210D1*
X3630441Y1119845D1*
X3621894Y1117794D1*
X3613130Y1117104D1*
X3604366Y1117794D1*
X3595819Y1119845D1*
X3587698Y1123210D1*
X3580202Y1127802D1*
X3573518Y1133512D1*
X3567808Y1140196D1*
X3563136Y1147862D1*
X3558451Y1140196D1*
X3552741Y1133512D1*
X3546058Y1127802D1*
X3538562Y1123210D1*
X3530441Y1119845D1*
X3521894Y1117794D1*
X3513130Y1117104D1*
X3504366Y1117794D1*
X3495819Y1119845D1*
X3487698Y1123210D1*
X3480202Y1127802D1*
X3473518Y1133512D1*
X3467808Y1140196D1*
X3463136Y1147862D1*
X3458451Y1140196D1*
X3452741Y1133512D1*
X3446058Y1127802D1*
X3438562Y1123210D1*
X3430441Y1119845D1*
X3421894Y1117794D1*
X3413130Y1117104D1*
X3404366Y1117794D1*
X3395819Y1119845D1*
X3387698Y1123210D1*
X3380202Y1127802D1*
X3373518Y1133512D1*
X3367808Y1140196D1*
X3363136Y1147862D1*
X1168976Y1518730D2*
X1167602Y1510047D1*
X1164886Y1501686D1*
X1160895Y1493854D1*
X1155727Y1486743D1*
X1149512Y1480528D1*
X1142400Y1475360D1*
X1134568Y1471369D1*
X1126207Y1468652D1*
X1117525Y1467278D1*
X1108735D1*
X1100052Y1468652D1*
X1091692Y1471369D1*
X1083860Y1475360D1*
X1076748Y1480528D1*
X1070533Y1486743D1*
X1065365Y1493854D1*
X1061374Y1501686D1*
X1058657Y1510047D1*
X1057283Y1518730D1*
Y1527520D1*
X1058657Y1536202D1*
X1061374Y1544563D1*
X1065365Y1552395D1*
X1070533Y1559507D1*
X1076748Y1565722D1*
X1083860Y1570890D1*
X1087698Y1573211D1*
X1080202Y1577803D1*
X1073518Y1583513D1*
X1067808Y1590197D1*
X1063217Y1597693D1*
X1059852Y1605814D1*
X1057801Y1614361D1*
X1057110Y1623125D1*
X1057801Y1631888D1*
X1059852Y1640436D1*
X1063217Y1648556D1*
X1067808Y1656052D1*
X1073518Y1662736D1*
X1080202Y1668446D1*
X1087869Y1673118D1*
X1080202Y1677803D1*
X1073518Y1683513D1*
X1067808Y1690197D1*
X1063217Y1697693D1*
X1059852Y1705814D1*
X1057801Y1714361D1*
X1057110Y1723125D1*
X1057801Y1731888D1*
X1059852Y1740436D1*
X1063217Y1748556D1*
X1067808Y1756052D1*
X1073518Y1762736D1*
X1080202Y1768446D1*
X1087869Y1773118D1*
X1080202Y1777803D1*
X1073518Y1783513D1*
X1067808Y1790197D1*
X1063217Y1797693D1*
X1059852Y1805814D1*
X1057801Y1814361D1*
X1057110Y1823125D1*
X1057801Y1831888D1*
X1059852Y1840436D1*
X1063217Y1848556D1*
X1067808Y1856052D1*
X1073518Y1862736D1*
X1080202Y1868446D1*
X1087698Y1873038D1*
X1095819Y1876403D1*
X1104366Y1878454D1*
X1113130Y1879144D1*
X1121894Y1878454D1*
X1130441Y1876403D1*
X1138562Y1873038D1*
X1146058Y1868446D1*
X1152741Y1862736D1*
X1158451Y1856052D1*
X1163043Y1848556D1*
X1166408Y1840436D1*
X1168459Y1831888D1*
X1169150Y1823125D1*
X1168459Y1814361D1*
X1166408Y1805814D1*
X1163043Y1797693D1*
X1158451Y1790197D1*
X1152741Y1783513D1*
X1146058Y1777803D1*
X1138391Y1773131D1*
X1146058Y1768446D1*
X1152741Y1762736D1*
X1158451Y1756052D1*
X1163043Y1748556D1*
X1166408Y1740436D1*
X1168459Y1731888D1*
X1169150Y1723125D1*
X1168459Y1714361D1*
X1166408Y1705814D1*
X1163043Y1697693D1*
X1158451Y1690197D1*
X1152741Y1683513D1*
X1146058Y1677803D1*
X1138391Y1673131D1*
X1146058Y1668446D1*
X1152741Y1662736D1*
X1158451Y1656052D1*
X1163043Y1648556D1*
X1166408Y1640436D1*
X1168459Y1631888D1*
X1169150Y1623125D1*
X1168459Y1614361D1*
X1166408Y1605814D1*
X1163043Y1597693D1*
X1158451Y1590197D1*
X1152741Y1583513D1*
X1146058Y1577803D1*
X1138391Y1573131D1*
X1146058Y1568446D1*
X1152741Y1562736D1*
X1158451Y1556052D1*
X1163043Y1548556D1*
X1166408Y1540436D1*
X1168459Y1531888D1*
X1169150Y1523125D1*
X1168976Y1518730D1*
X2222161Y2913873D2*
Y2892018D1*
X2432955Y2892043D1*
X2432957Y3102836D1*
X2306972Y3102839D1*
X2222138D1*
X2222113Y3008350D1*
X2222152Y2913862D1*
X3102719Y3925206D2*
X3101331Y3913476D1*
X3099026Y3901891D1*
X3095820Y3890524D1*
X3091732Y3879442D1*
X3086787Y3868715D1*
X3081016Y3858411D1*
X3074454Y3848589D1*
X3067142Y3839314D1*
X3059123Y3830640D1*
X3050450Y3822622D1*
X3041175Y3815310D1*
X3031353Y3808748D1*
X3021049Y3802976D1*
X3010322Y3798031D1*
X2999240Y3793944D1*
X2987873Y3790738D1*
X2976287Y3788433D1*
X2964558Y3787045D1*
X2952756Y3786581D1*
X2940954Y3787045D1*
X2929224Y3788433D1*
X2917639Y3790738D1*
X2906272Y3793944D1*
X2895190Y3798031D1*
X2884463Y3802976D1*
X2874159Y3808748D1*
X2864337Y3815310D1*
X2855062Y3822622D1*
X2846388Y3830640D1*
X2838370Y3839314D1*
X2831058Y3848589D1*
X2824496Y3858411D1*
X2818724Y3868715D1*
X2813780Y3879442D1*
X2809692Y3890524D1*
X2806486Y3901891D1*
X2804181Y3913476D1*
X2802793Y3925206D1*
X2802329Y3937008D1*
X2802793Y3948810D1*
X2804181Y3960539D1*
X2806486Y3972125D1*
X2809692Y3983492D1*
X2813780Y3994573D1*
X2818724Y4005301D1*
X2824496Y4015605D1*
X2831058Y4025427D1*
X2838370Y4034702D1*
X2846388Y4043375D1*
X2855062Y4051394D1*
X2864337Y4058706D1*
X2874159Y4065268D1*
X2884463Y4071039D1*
X2895190Y4075984D1*
X2906272Y4080072D1*
X2917639Y4083278D1*
X2929224Y4085583D1*
X2940954Y4086971D1*
X2952756Y4087434D1*
X2964558Y4086971D1*
X2976287Y4085583D1*
X2987873Y4083278D1*
X2999240Y4080072D1*
X3010322Y4075984D1*
X3021049Y4071039D1*
X3031353Y4065268D1*
X3041175Y4058706D1*
X3050450Y4051394D1*
X3059123Y4043375D1*
X3067142Y4034702D1*
X3074454Y4025427D1*
X3081016Y4015605D1*
X3086787Y4005301D1*
X3091732Y3994573D1*
X3095820Y3983492D1*
X3099026Y3972125D1*
X3101331Y3960539D1*
X3102719Y3948810D1*
X3103182Y3937008D1*
X3102719Y3925206D1*
Y775600D2*
X3101331Y763870D1*
X3099026Y752285D1*
X3095820Y740917D1*
X3091732Y729836D1*
X3086787Y719109D1*
X3081016Y708804D1*
X3074454Y698983D1*
X3067142Y689707D1*
X3059123Y681034D1*
X3050450Y673016D1*
X3041175Y665703D1*
X3031353Y659142D1*
X3021049Y653370D1*
X3010322Y648425D1*
X2999240Y644337D1*
X2987873Y641131D1*
X2976287Y638827D1*
X2964558Y637438D1*
X2952756Y636975D1*
X2940954Y637438D1*
X2929224Y638827D1*
X2917639Y641131D1*
X2906272Y644337D1*
X2895190Y648425D1*
X2884463Y653370D1*
X2874159Y659142D1*
X2864337Y665703D1*
X2855062Y673016D1*
X2846388Y681034D1*
X2838370Y689707D1*
X2831058Y698983D1*
X2824496Y708804D1*
X2818724Y719109D1*
X2813780Y729836D1*
X2809692Y740917D1*
X2806486Y752285D1*
X2804181Y763870D1*
X2802793Y775600D1*
X2802329Y787402D1*
X2802793Y799203D1*
X2804181Y810933D1*
X2806486Y822518D1*
X2809692Y833886D1*
X2813780Y844967D1*
X2818724Y855694D1*
X2824496Y865999D1*
X2831058Y875820D1*
X2838370Y885096D1*
X2846388Y893769D1*
X2855062Y901787D1*
X2864337Y909100D1*
X2874159Y915661D1*
X2884463Y921433D1*
X2895190Y926378D1*
X2906272Y930466D1*
X2917639Y933672D1*
X2929224Y935976D1*
X2940954Y937365D1*
X2952756Y937828D1*
X2964558Y937365D1*
X2976287Y935976D1*
X2987873Y933672D1*
X2999240Y930466D1*
X3010322Y926378D1*
X3021049Y921433D1*
X3031353Y915661D1*
X3041175Y909100D1*
X3050450Y901787D1*
X3059123Y893769D1*
X3067142Y885096D1*
X3074454Y875820D1*
X3081016Y865999D1*
X3086787Y855694D1*
X3091732Y844967D1*
X3095820Y833886D1*
X3099026Y822518D1*
X3101331Y810933D1*
X3102719Y799203D1*
X3103182Y787402D1*
X3102719Y775600D1*
X1921617D2*
X1920228Y763870D1*
X1917924Y752285D1*
X1914718Y740917D1*
X1910630Y729836D1*
X1905685Y719109D1*
X1899913Y708804D1*
X1893352Y698983D1*
X1886039Y689707D1*
X1878021Y681034D1*
X1869348Y673016D1*
X1860072Y665703D1*
X1850251Y659142D1*
X1839946Y653370D1*
X1829219Y648425D1*
X1818138Y644337D1*
X1806770Y641131D1*
X1795185Y638827D1*
X1783455Y637438D1*
X1771654Y636975D1*
X1759852Y637438D1*
X1748122Y638827D1*
X1736537Y641131D1*
X1725169Y644337D1*
X1714088Y648425D1*
X1703361Y653370D1*
X1693056Y659142D1*
X1683235Y665703D1*
X1673959Y673016D1*
X1665286Y681034D1*
X1657268Y689707D1*
X1649955Y698983D1*
X1643394Y708804D1*
X1637622Y719109D1*
X1632677Y729836D1*
X1628589Y740917D1*
X1625383Y752285D1*
X1623079Y763870D1*
X1621690Y775600D1*
X1621227Y787402D1*
X1621690Y799203D1*
X1623079Y810933D1*
X1625383Y822518D1*
X1628589Y833886D1*
X1632677Y844967D1*
X1637622Y855694D1*
X1643394Y865999D1*
X1649955Y875820D1*
X1657268Y885096D1*
X1665286Y893769D1*
X1673959Y901787D1*
X1683235Y909100D1*
X1693056Y915661D1*
X1703361Y921433D1*
X1714088Y926378D1*
X1725169Y930466D1*
X1736537Y933672D1*
X1748122Y935976D1*
X1759852Y937365D1*
X1771654Y937828D1*
X1783455Y937365D1*
X1795185Y935976D1*
X1806770Y933672D1*
X1818138Y930466D1*
X1829219Y926378D1*
X1839946Y921433D1*
X1850251Y915661D1*
X1860072Y909100D1*
X1869348Y901787D1*
X1878021Y893769D1*
X1886039Y885096D1*
X1893352Y875820D1*
X1899913Y865999D1*
X1905685Y855694D1*
X1910630Y844967D1*
X1914718Y833886D1*
X1917924Y822518D1*
X1920228Y810933D1*
X1921617Y799203D1*
X1922080Y787402D1*
X1921617Y775600D1*
Y3925206D2*
X1920228Y3913476D1*
X1917924Y3901891D1*
X1914718Y3890524D1*
X1910630Y3879442D1*
X1905685Y3868715D1*
X1899913Y3858411D1*
X1893352Y3848589D1*
X1886039Y3839314D1*
X1878021Y3830640D1*
X1869348Y3822622D1*
X1860072Y3815310D1*
X1850251Y3808748D1*
X1839946Y3802976D1*
X1829219Y3798031D1*
X1818138Y3793944D1*
X1806770Y3790738D1*
X1795185Y3788433D1*
X1783455Y3787045D1*
X1771654Y3786581D1*
X1759852Y3787045D1*
X1748122Y3788433D1*
X1736537Y3790738D1*
X1725169Y3793944D1*
X1714088Y3798031D1*
X1703361Y3802976D1*
X1693056Y3808748D1*
X1683235Y3815310D1*
X1673959Y3822622D1*
X1665286Y3830640D1*
X1657268Y3839314D1*
X1649955Y3848589D1*
X1643394Y3858411D1*
X1637622Y3868715D1*
X1632677Y3879442D1*
X1628589Y3890524D1*
X1625383Y3901891D1*
X1623079Y3913476D1*
X1621690Y3925206D1*
X1621227Y3937008D1*
X1621690Y3948810D1*
X1623079Y3960539D1*
X1625383Y3972125D1*
X1628589Y3983492D1*
X1632677Y3994573D1*
X1637622Y4005301D1*
X1643394Y4015605D1*
X1649955Y4025427D1*
X1657268Y4034702D1*
X1665286Y4043375D1*
X1673959Y4051394D1*
X1683235Y4058706D1*
X1693056Y4065268D1*
X1703361Y4071039D1*
X1714088Y4075984D1*
X1725169Y4080072D1*
X1736537Y4083278D1*
X1748122Y4085583D1*
X1759852Y4086971D1*
X1771654Y4087434D1*
X1783455Y4086971D1*
X1795185Y4085583D1*
X1806770Y4083278D1*
X1818138Y4080072D1*
X1829219Y4075984D1*
X1839946Y4071039D1*
X1850251Y4065268D1*
X1860072Y4058706D1*
X1869348Y4051394D1*
X1878021Y4043375D1*
X1886039Y4034702D1*
X1893352Y4025427D1*
X1899913Y4015605D1*
X1905685Y4005301D1*
X1910630Y3994573D1*
X1914718Y3983492D1*
X1917924Y3972125D1*
X1920228Y3960539D1*
X1921617Y3948810D1*
X1922080Y3937008D1*
X1921617Y3925206D1*
X3838130Y523125D2*
D15*
Y465185D1*
X3780190Y523125D2*
X3896070D1*
X3838130Y1331064D2*
Y1273125D1*
X3780190D2*
X3896070D1*
X4063130Y1356064D2*
Y1298125D1*
X4005190D2*
X4121070D1*
X3513130Y623123D2*
Y565184D1*
X3455190Y623123D2*
X3571070D1*
X3213130Y1381064D2*
Y1265185D1*
X3155190Y1323125D2*
X3213130D1*
X2338130Y1556064D2*
Y1440185D1*
X2280190Y1498125D2*
X2396070D1*
X1988130Y1231064D2*
Y1173125D1*
X1930190D2*
X2046070D1*
X4237205Y3895144D2*
Y3779265D1*
X3987205Y4170144D2*
Y4112205D1*
X3929265D2*
X4045144D1*
X4137205Y4139042D2*
Y4087008D1*
X4081234D2*
X4193176D1*
X4212008Y3743176D2*
Y3631234D1*
Y3687205D2*
X4264042D1*
X838130Y1731064D2*
Y1615185D1*
X780190Y1673125D2*
X838130D1*
Y1581064D2*
Y1465185D1*
X780190Y1523125D2*
X838130D1*
X1013130Y2006063D2*
Y1890184D1*
X955190Y1948123D2*
X1013130D1*
X1200630Y1443564D2*
Y1327685D1*
X1142690Y1385625D2*
X1200630D1*
X3884055Y2893176D2*
Y2781234D1*
X3828084Y2837205D2*
X3940026D1*
X3659055Y3730676D2*
Y3618734D1*
X3603084Y3674705D2*
X3715026D1*
X1399508Y2930676D2*
Y2818734D1*
Y2874705D2*
X1451542D1*
X2762008Y3093176D2*
Y3037205D1*
X2814042D1*
X2006234Y2937402D2*
X2062205D1*
X1637402Y3043176D2*
Y2931234D1*
X1585367Y2987205D2*
X1637402D1*
Y3243176D2*
Y3131234D1*
X1585367Y3187205D2*
X1637402D1*
X2699508Y2562205D2*
X2751542D1*
X2762008Y2887205D2*
Y2831234D1*
Y2887205D2*
X2814042D1*
X3413130Y1948322D2*
Y1896287D1*
X3357159Y1948322D2*
X3469101D1*
X1375630Y1148123D2*
Y1092152D1*
X1319659Y1148123D2*
X1431601D1*
X3337205Y2618865D2*
Y2479364D1*
X3248753Y2549114D2*
X3425656D1*
X1106188Y3722113D2*
Y3602297D1*
X1046280Y3662205D2*
X1106188D1*
X1506188Y3721648D2*
Y3602761D1*
X4162205Y2668176D2*
Y2612205D1*
X4106234D2*
X4218176D1*
X3437205Y4147113D2*
Y4087205D1*
X3537205Y4147113D2*
Y4087205D1*
X3637205Y4147113D2*
Y4087205D1*
X3737205Y4147113D2*
Y4087205D1*
X3797113D1*
X3088130Y1119280D2*
Y1073123D1*
X3022289D2*
X3153971D1*
X1913130Y1588965D2*
Y1457282D1*
Y1523123D2*
X1959286D1*
X1638130Y1163966D2*
Y1032283D1*
Y1098125D2*
X1684286D1*
X2570079Y3426444D2*
Y3379331D1*
X2530840D2*
X2570079D1*
X2606234Y912205D2*
X2718176D1*
X2662205Y812205D2*
Y756234D1*
X2606234Y812205D2*
X2718176D1*
X1863130Y1124568D2*
Y1021681D1*
Y1073125D2*
X1914573D1*
X3887205Y2137205D2*
Y2075328D1*
Y2137205D2*
X3945144D1*
X1099705Y2951739D2*
Y2899705D1*
X1043734D2*
X1155676D1*
X2762205Y2962205D2*
X2814239D1*
X1412205Y3930676D2*
Y3818734D1*
X1356234Y3874705D2*
X1468176D1*
X4212205Y2001050D2*
Y1873360D1*
X4148360Y1937205D2*
X4276050D1*
X3288130Y1899568D2*
Y1796681D1*
Y1848125D2*
X3339573D1*
X957677Y2964140D2*
Y2874705D1*
X895801D2*
X1019554D1*
X3613130Y929094D2*
Y817152D1*
Y873123D2*
X3669101D1*
X1413130Y1879096D2*
Y1823125D1*
X1357159D2*
X1469101D1*
X3639206Y3321063D2*
X3810203D1*
X3724705Y3501050D2*
Y3454921D1*
X3639206D2*
X3810203D1*
X4114469Y3556168D2*
Y3085958D1*
X3910860Y3321063D2*
X4114469D1*
X1324606Y2649705D2*
Y2611450D1*
X1258793Y2649705D2*
X1390420D1*
X2162205Y2950197D2*
X2222113D1*
X2162205Y3013189D2*
X2222113D1*
X2433005Y2981693D2*
X2492913D1*
D16*
X3838130Y623125D3*
D17*
Y523125D3*
D16*
Y1173125D3*
D17*
Y1273125D3*
X4063130Y1298125D3*
D16*
Y1198125D3*
D17*
X3513130Y623123D3*
D16*
Y723123D3*
D17*
X3213130Y1323125D3*
D16*
X3313130D3*
D17*
X3138130Y1698125D3*
D16*
Y1498125D3*
D17*
X2136555Y1671550D3*
D16*
X2336555D3*
D17*
X2338130Y1498125D3*
D16*
X2138130D3*
D17*
X1988130Y1173125D3*
D16*
Y1073125D3*
X4137205Y3837205D3*
D17*
X4237205D3*
D16*
X3987205Y4012205D3*
D17*
Y4112205D3*
D18*
X4137205Y4012205D3*
Y4087008D3*
D19*
Y3687205D3*
X4212008D3*
D17*
X838130Y1673125D3*
D16*
X938130D3*
D17*
X838130Y1523125D3*
D16*
X938130D3*
D17*
X1013130Y1948123D3*
D16*
X1113130D3*
D17*
X1200630Y1385625D3*
D16*
X1300630D3*
D20*
X3687205Y2837205D3*
D21*
X3884055D3*
D20*
X3462205Y3674705D3*
D21*
X3659055D3*
D19*
X1324705Y2874705D3*
X1399508D3*
X2687205Y3037205D3*
X2762008D3*
D18*
X2062205Y3012205D3*
Y2937402D3*
D19*
X1712205Y2987205D3*
X1637402D3*
X1712205Y3187205D3*
X1637402D3*
X2624705Y2562205D3*
X2699508D3*
X2687205Y2887205D3*
X2762008D3*
D18*
X3413130Y2023125D3*
Y1948322D3*
D20*
X2511555Y1496549D3*
D21*
X2909193D3*
D20*
X2910374Y1620369D3*
D21*
X2512736D3*
D20*
X2510374Y1745369D3*
D21*
X2908012D3*
X1375630Y1248123D3*
D20*
Y1148123D3*
D23*
X3337205Y2824705D3*
Y2549114D3*
D24*
X2737205Y2724705D3*
X2626969D3*
D25*
X1106188Y3662205D3*
D26*
X1206188D3*
X1306188D3*
X1406188D3*
X1506188D3*
X1606188D3*
X1706188D3*
X1806188D3*
X1906188D3*
X2006188D3*
X2106188D3*
X2206188D3*
X2306188D3*
X2406188D3*
X2506188D3*
X2606188D3*
D27*
X2382028Y809049D3*
D28*
X2185177D3*
D29*
X1237205Y2749705D3*
X1199714D3*
D20*
X4162205Y2512205D3*
D21*
Y2612205D3*
D25*
X3337205Y3987205D3*
D30*
Y4087205D3*
X3437205Y3987205D3*
Y4087205D3*
X3537205Y3987205D3*
Y4087205D3*
X3637205Y3987205D3*
Y4087205D3*
X3737205Y3987205D3*
Y4087205D3*
D20*
X2138130Y1973125D3*
D21*
Y2073125D3*
D20*
X549705Y2874705D3*
D21*
Y2774705D3*
Y2674705D3*
D31*
X4063130Y623123D3*
D32*
Y1023123D3*
D16*
X3613130Y1573125D3*
D33*
X3416280D3*
D34*
X3337205Y3437205D3*
Y3051378D3*
D35*
X2612205Y2887205D3*
Y2954134D3*
D36*
X1038130Y823123D3*
D37*
X1337343D3*
D131*
X2661555Y1321549D3*
D38*
X2711555D3*
X2761555D3*
D134*
X3088130Y1073123D3*
D39*
Y1023123D3*
Y973123D3*
D137*
X1913130Y1523123D3*
D38*
X1863130D3*
X1813130D3*
D137*
X1638130Y1098125D3*
D38*
X1588130D3*
X1538130D3*
D41*
X2644882Y3379331D3*
X2570079D3*
X2607480Y3469882D3*
D42*
X3913130Y1023123D3*
D43*
Y723123D3*
D42*
X3763130Y1023123D3*
D43*
Y723123D3*
D42*
X2886555Y1196549D3*
D43*
X3186555D3*
D20*
X2662205Y1012205D3*
D21*
Y912205D3*
Y812205D3*
D42*
X3188130Y573123D3*
D43*
Y873123D3*
D42*
X2288130Y1073125D3*
D43*
Y1373125D3*
D42*
X2113130Y1073125D3*
D43*
Y1373125D3*
D42*
X1863130D3*
D43*
Y1073125D3*
D42*
X1763130D3*
D43*
Y1373125D3*
D42*
X1813130Y1723125D3*
D43*
Y2023125D3*
D42*
X638130Y1798125D3*
D43*
X938130D3*
D42*
X1613130Y1323125D3*
D43*
Y1623125D3*
D42*
X1513130D3*
D43*
Y1323125D3*
D24*
X3776969Y2237205D3*
X3887205D3*
X3776969Y2137205D3*
X3887205D3*
D18*
X1099705Y2599705D3*
Y2524902D3*
D19*
X1712205Y2799705D3*
X1787008D3*
X1812205Y2587205D3*
X1737402D3*
X1874705Y2724705D3*
X1949508D3*
D18*
X1099705Y2674705D3*
Y2749508D3*
Y2899705D3*
Y2824902D3*
D19*
X2624705Y2637205D3*
X2699508D3*
X2762205Y2962205D3*
X2687402D3*
D20*
X1412205Y3874705D3*
D21*
X1112205Y3974705D3*
X912205Y3874705D3*
D18*
X2712205Y3537205D3*
Y3612008D3*
D19*
X2562205Y3287205D3*
X2637008D3*
D42*
X2288130Y2148125D3*
D43*
Y1848125D3*
D42*
X2388130Y2148125D3*
D43*
Y1848125D3*
D42*
X2488130Y2148125D3*
D43*
Y1848125D3*
D42*
X2588130Y2148125D3*
D43*
Y1848125D3*
D42*
X2688130Y2148125D3*
D43*
Y1848125D3*
D37*
X4212205Y1937205D3*
X4149213Y2232480D3*
D42*
X2788130Y2148125D3*
D43*
Y1848125D3*
D42*
X2888130Y2148125D3*
D43*
Y1848125D3*
D42*
X2988130Y2148125D3*
D43*
Y1848125D3*
D42*
X3088130Y2148125D3*
D43*
Y1848125D3*
D42*
X3188130Y2148125D3*
D43*
Y1848125D3*
D42*
X3288130Y2148125D3*
D43*
Y1848125D3*
D44*
X737205Y2874705D3*
X957677D3*
D20*
X3613130Y873123D3*
D21*
X3513130D3*
X3413130D3*
X3313130D3*
Y1173123D3*
X3413130D3*
X3513130D3*
X3613130D3*
D20*
X1413130Y1823125D3*
D21*
Y1723125D3*
Y1623125D3*
Y1523125D3*
X1113130D3*
Y1623125D3*
Y1723125D3*
Y1823125D3*
D46*
X3724705Y3187205D3*
Y3254134D3*
Y3321063D3*
Y3387992D3*
Y3454921D3*
D47*
X4114469Y3321063D3*
D48*
X1537205Y2799705D3*
Y2749705D3*
Y2699705D3*
Y2649705D3*
X1324606D3*
Y2699705D3*
Y2749705D3*
Y2799705D3*
D50*
X2162205Y2887205D3*
Y2918701D3*
Y2950197D3*
Y2981693D3*
Y3013189D3*
Y3044685D3*
Y3076181D3*
Y3107677D3*
D51*
X2217323Y3162795D3*
X2248819D3*
X2280315D3*
X2311811D3*
X2343307D3*
X2374803D3*
X2406299D3*
X2437795D3*
D50*
X2492913Y3107677D3*
Y3076181D3*
Y3044685D3*
Y3013189D3*
Y2981693D3*
Y2950197D3*
Y2918701D3*
Y2887205D3*
D51*
X2437795Y2832087D3*
X2406299D3*
X2374803D3*
X2343307D3*
X2311811D3*
X2280315D3*
X2248819D3*
X2217323D3*
D52*
X1912205Y3187205D3*
Y2997205D3*
M02*
