M48
INCH
T01C0.0191
T02C0.022
T03C0.0276
T04C0.032
T05C0.034
T06C0.035
T07C0.0354
T08C0.0394
T09C0.0433
T10C0.0512
T11C0.126
T12C0.1772
%
T01
X+027122Y+034497
X+027497Y+033997
X+025701Y+033793
X+025622Y+032872
X+027372Y+031497
X+026872Y+030372
X+026122Y+028872
X+026247Y+027247
X+027372Y+027247
X+026997Y+026372
X+026372Y+024872
X+024872Y+024872
X+024622Y+025872
X+024122Y+025622
X+024122Y+026872
X+024622Y+027122
X+022497Y+027497
X+022622Y+025997
X+021497Y+025872
X+019497Y+027247
X+017872Y+027997
X+017122Y+027997
X+017372Y+025872
X+017622Y+024872
X+013247Y+028747
X+010997Y+025247
X+020622Y+030122
X+033997Y+038122
X+035622Y+038622
T02
X+039131Y+010231
X+037631Y+010231
X+037631Y+007231
X+039131Y+007231
X+031881Y+008731
X+031881Y+005731
X+031866Y+011965
X+028866Y+011965
X+022881Y+010731
X+021131Y+010731
X+018631Y+010731
X+017631Y+010731
X+016131Y+013231
X+015131Y+013231
X+017631Y+013731
X+018631Y+013731
X+021131Y+013731
X+022881Y+013731
X+022881Y+018481
X+023881Y+018481
X+024881Y+018481
X+025881Y+018481
X+026881Y+018481
X+027881Y+018481
X+028881Y+018481
X+029881Y+018481
X+030881Y+018481
X+031881Y+018481
X+032881Y+018481
X+032881Y+021481
X+031881Y+021481
X+030881Y+021481
X+029881Y+021481
X+028881Y+021481
X+027881Y+021481
X+026881Y+021481
X+025881Y+021481
X+024881Y+021481
X+023881Y+021481
X+022881Y+021481
X+018131Y+020231
X+018131Y+017231
X+016131Y+016231
X+015131Y+016231
X+009381Y+017981
X+006381Y+017981
T03
X+026616Y+013215
X+027116Y+013215
X+027616Y+013215
X+030881Y+010731
X+030881Y+010231
X+030881Y+009731
X+019131Y+015231
X+018631Y+015231
X+018131Y+015231
X+016381Y+010981
X+015881Y+010981
X+015381Y+010981
T04
X+019122Y+031872
X+019122Y+029972
T05
X+040631Y+006231
X+040631Y+010231
T06
X+013756Y+012481
X+013756Y+011481
T07
X+038381Y+006231
X+038381Y+005231
X+036131Y+008731
X+035131Y+008731
X+034131Y+008731
X+033131Y+008731
X+033131Y+011731
X+034131Y+011731
X+035131Y+011731
X+036131Y+011731
X+038381Y+011731
X+038381Y+012731
X+031381Y+014981
X+031381Y+016981
X+029080Y+017454
X+029104Y+016204
X+029092Y+014965
X+025116Y+014965
X+025127Y+016204
X+025104Y+017454
X+023366Y+016715
X+023381Y+014981
X+021381Y+014981
X+021366Y+016715
X+021381Y+019731
X+021381Y+020731
X+014131Y+018231
X+014131Y+017231
X+014131Y+016231
X+014131Y+015231
X+011131Y+015231
X+011131Y+016231
X+011131Y+017231
X+011131Y+018231
X+005497Y+026747
X+005497Y+027747
X+005497Y+028747
X+009122Y+038747
X+011122Y+039747
X+014122Y+038747
X+034622Y+036747
X+036591Y+036747
X+039872Y+040122
X+039872Y+041122
X+041372Y+038372
X+042372Y+038372
X+038841Y+028372
X+036872Y+028372
X+041622Y+026122
X+041622Y+025122
X+026622Y+010122
X+026622Y+009122
X+026622Y+008122
T08
X+040631Y+012981
X+040631Y+011981
X+036131Y+015731
X+034163Y+015731
X+033131Y+013231
X+032131Y+013231
X+035131Y+007231
X+035131Y+006231
X+019881Y+010731
X+019881Y+011731
X+013006Y+013856
X+012006Y+013856
X+009381Y+015231
X+008381Y+015231
X+008381Y+016731
X+009381Y+016731
X+010131Y+019481
X+011131Y+019481
X+011062Y+036622
X+012062Y+036622
X+013062Y+036622
X+014062Y+036622
X+015062Y+036622
X+016062Y+036622
X+017062Y+036622
X+018062Y+036622
X+019062Y+036622
X+020062Y+036622
X+021062Y+036622
X+022062Y+036622
X+023062Y+036622
X+024062Y+036622
X+025062Y+036622
X+026062Y+036622
T09
X+033372Y+039872
X+033372Y+040872
X+034372Y+040872
X+034372Y+039872
X+035372Y+039872
X+035372Y+040872
X+036372Y+040872
X+036372Y+039872
X+037372Y+039872
X+037372Y+040872
X+013373Y+008231
X+010381Y+008231
T10
X+023820Y+008090
X+021852Y+008090
X+042122Y+019372
X+041492Y+022325
T11
X+008896Y+024417
X+008896Y+036622
X+038424Y+036622
X+038424Y+024417
T12
X+029528Y+039370
X+017717Y+039370
X+017717Y+007874
X+029528Y+007874
T00
M30
