G04 DipTrace 3.0.0.2*
G04 TopSilkscreen.gto*
%MOIN*%
G04 #@! TF.FileFunction,Legend,Top*
G04 #@! TF.Part,Single*
%ADD10C,0.009843*%
%ADD128C,0.00772*%
%ADD129C,0.012351*%
%ADD130C,0.009264*%
%FSLAX26Y26*%
G04*
G70*
G90*
G75*
G01*
G04 TopSilk*
%LPD*%
X1327630Y1157564D2*
D10*
G02X1328764Y1239796I47136J40474D01*
G01*
X1423630Y1157564D2*
G03X1422496Y1239796I-47136J40474D01*
G01*
X1836634Y2262085D2*
X1887776D1*
X1736634D2*
X1787776D1*
X795134Y3756726D2*
X3936913D1*
Y2347230D1*
X795134D1*
Y3756726D1*
X919185Y3524383D2*
X3812862D1*
Y2555828D1*
X919185D1*
Y3524383D1*
X1100319Y3307919D2*
X3631728D1*
Y2772438D1*
X1100319D1*
Y3307919D1*
G36*
X1230429Y3055911D2*
X1346189D1*
Y3227218D1*
X1230429D1*
Y3055911D1*
G37*
G36*
Y2853139D2*
X1346189D1*
Y3024301D1*
X1230429D1*
Y2853139D1*
G37*
G36*
X1373933Y3055911D2*
X1490012D1*
Y3227218D1*
X1373933D1*
Y3055911D1*
G37*
G36*
Y2853139D2*
X1490012D1*
Y3024301D1*
X1373933D1*
Y2853139D1*
G37*
G36*
X1517437Y3055911D2*
X1633835D1*
Y3227218D1*
X1517437D1*
Y3055911D1*
G37*
G36*
Y2853139D2*
X1633835D1*
Y3024301D1*
X1517437D1*
Y2853139D1*
G37*
G36*
X1661260Y3055911D2*
X1777657D1*
Y3227218D1*
X1661260D1*
Y3055911D1*
G37*
G36*
Y2853139D2*
X1777657D1*
Y3024301D1*
X1661260D1*
Y2853139D1*
G37*
G36*
X1804764Y3055911D2*
X1921161D1*
Y3227218D1*
X1804764D1*
Y3055911D1*
G37*
G36*
Y2853139D2*
X1921161D1*
Y3024301D1*
X1804764D1*
Y2853139D1*
G37*
G36*
X1948906Y3055911D2*
X2064665D1*
Y3227218D1*
X1948906D1*
Y3055911D1*
G37*
G36*
Y2853139D2*
X2064665D1*
Y3024301D1*
X1948906D1*
Y2853139D1*
G37*
G36*
X2092409Y3055911D2*
X2208488D1*
Y3227218D1*
X2092409D1*
Y3055911D1*
G37*
G36*
Y2853139D2*
X2208488D1*
Y3024301D1*
X2092409D1*
Y2853139D1*
G37*
G36*
X2235913Y3055911D2*
X2352311D1*
Y3227218D1*
X2235913D1*
Y3055911D1*
G37*
G36*
Y2853139D2*
X2352311D1*
Y3024301D1*
X2235913D1*
Y2853139D1*
G37*
G36*
X2379736Y3055911D2*
X2496134D1*
Y3227218D1*
X2379736D1*
Y3055911D1*
G37*
G36*
Y2853139D2*
X2496134D1*
Y3024301D1*
X2379736D1*
Y2853139D1*
G37*
G36*
X2523559Y3055911D2*
X2639638D1*
Y3227218D1*
X2523559D1*
Y3055911D1*
G37*
G36*
Y2853139D2*
X2639638D1*
Y3024301D1*
X2523559D1*
Y2853139D1*
G37*
G36*
X2667382Y3055911D2*
X2783142D1*
Y3227218D1*
X2667382D1*
Y3055911D1*
G37*
G36*
Y2853139D2*
X2783142D1*
Y3024301D1*
X2667382D1*
Y2853139D1*
G37*
G36*
X2810886Y3055911D2*
X2927283D1*
Y3227218D1*
X2810886D1*
Y3055911D1*
G37*
G36*
Y2853139D2*
X2927283D1*
Y3024301D1*
X2810886D1*
Y2853139D1*
G37*
G36*
X2954390Y3055911D2*
X3070787D1*
Y3227218D1*
X2954390D1*
Y3055911D1*
G37*
G36*
Y2853139D2*
X3070787D1*
Y3024301D1*
X2954390D1*
Y2853139D1*
G37*
G36*
X3098213Y3055911D2*
X3214610D1*
Y3227218D1*
X3098213D1*
Y3055911D1*
G37*
G36*
Y2853139D2*
X3214610D1*
Y3024301D1*
X3098213D1*
Y2853139D1*
G37*
G36*
X3242035Y3055911D2*
X3358114D1*
Y3227218D1*
X3242035D1*
Y3055911D1*
G37*
G36*
Y2853139D2*
X3358114D1*
Y3024301D1*
X3242035D1*
Y2853139D1*
G37*
G36*
X3385858Y3055911D2*
X3501618D1*
Y3227218D1*
X3385858D1*
Y3055911D1*
G37*
G36*
Y2853139D2*
X3501618D1*
Y3024301D1*
X3385858D1*
Y2853139D1*
G37*
X3137205Y4217205D2*
D10*
X3937205D1*
Y3857205D1*
X3137205D1*
Y4217205D1*
X1531890Y3819587D2*
X782259D1*
X1531890Y4009350D2*
X1157074D1*
X1531890D2*
Y3819587D1*
X782259Y4009350D2*
Y3819587D1*
X781530Y3868014D2*
X721654D1*
Y3960923D1*
X781530D1*
Y3868014D1*
X1058631Y4009350D2*
X782259D1*
X1470729Y1225874D2*
D128*
Y1175634D1*
X1487475D1*
X1494660Y1178066D1*
X1499469Y1182819D1*
X1501845Y1187627D1*
X1504222Y1194757D1*
Y1206751D1*
X1501845Y1213936D1*
X1499469Y1218689D1*
X1494660Y1223497D1*
X1487475Y1225874D1*
X1470729D1*
X1543593Y1175634D2*
Y1225819D1*
X1519661Y1192381D1*
X1555531D1*
X1921954Y2253201D2*
X1972194D1*
Y2269948D1*
X1969762Y2277133D1*
X1965009Y2281941D1*
X1960201Y2284318D1*
X1953071Y2286695D1*
X1941077D1*
X1933892Y2284318D1*
X1929139Y2281941D1*
X1924331Y2277133D1*
X1921954Y2269948D1*
Y2253201D1*
X1929139Y2330819D2*
X1924386Y2328442D1*
X1922009Y2321257D1*
Y2316504D1*
X1924386Y2309319D1*
X1931571Y2304510D1*
X1943509Y2302134D1*
X1955447D1*
X1965009Y2304510D1*
X1969818Y2309319D1*
X1972194Y2316504D1*
Y2318880D1*
X1969818Y2326010D1*
X1965009Y2330819D1*
X1957824Y2333195D1*
X1955447D1*
X1948262Y2330819D1*
X1943509Y2326010D1*
X1941133Y2318880D1*
Y2316504D1*
X1943509Y2309319D1*
X1948262Y2304510D1*
X1955447Y2302134D1*
X1646954Y2251985D2*
X1697194D1*
Y2268732D1*
X1694762Y2275917D1*
X1690009Y2280725D1*
X1685201Y2283102D1*
X1678071Y2285479D1*
X1666077D1*
X1658892Y2283102D1*
X1654139Y2280725D1*
X1649331Y2275917D1*
X1646954Y2268732D1*
Y2251985D1*
X1697194Y2310479D2*
X1647009Y2334411D1*
Y2300918D1*
X2311094Y3853547D2*
Y3803307D1*
X2327841D1*
X2335026Y3805739D1*
X2339834Y3810492D1*
X2342211Y3815301D1*
X2344588Y3822430D1*
Y3834424D1*
X2342211Y3841609D1*
X2339834Y3846362D1*
X2335026Y3851171D1*
X2327841Y3853547D1*
X2311094D1*
X2393520Y3846362D2*
X2388767Y3851171D1*
X2381582Y3853547D1*
X2372020D1*
X2364835Y3851171D1*
X2360027Y3846362D1*
Y3841609D1*
X2362459Y3836801D1*
X2364835Y3834424D1*
X2369589Y3832047D1*
X2383959Y3827239D1*
X2388767Y3824862D1*
X2391144Y3822430D1*
X2393520Y3817677D1*
Y3810492D1*
X2388767Y3805739D1*
X2381582Y3803307D1*
X2372020D1*
X2364835Y3805739D1*
X2360027Y3810492D1*
X2408959Y3843930D2*
X2413768Y3846362D1*
X2420953Y3853492D1*
Y3803307D1*
X3523516Y4290428D2*
Y4252181D1*
X3521139Y4244996D1*
X3518708Y4242620D1*
X3513954Y4240188D1*
X3509146D1*
X3504393Y4242620D1*
X3502016Y4244996D1*
X3499584Y4252181D1*
Y4256934D1*
X3562887Y4240188D2*
Y4290373D1*
X3538955Y4256934D1*
X3574825D1*
X1933386Y2407177D2*
Y2428677D1*
X1930954Y2435862D1*
X1928577Y2438294D1*
X1923824Y2440670D1*
X1919016D1*
X1914263Y2438294D1*
X1911831Y2435862D1*
X1909454Y2428677D1*
Y2407177D1*
X1959694D1*
X1933386Y2423924D2*
X1959694Y2440670D1*
X1921448Y2458541D2*
X1919071D1*
X1914263Y2460918D1*
X1911886Y2463295D1*
X1909509Y2468103D1*
Y2477665D1*
X1911886Y2482418D1*
X1914263Y2484794D1*
X1919071Y2487226D1*
X1923824D1*
X1928633Y2484794D1*
X1935762Y2480041D1*
X1959694Y2456110D1*
Y2489603D1*
X1919071Y2505042D2*
X1916639Y2509851D1*
X1909509Y2517036D1*
X1959694D1*
X1683386Y2383927D2*
Y2405427D1*
X1680954Y2412612D1*
X1678577Y2415044D1*
X1673824Y2417420D1*
X1669016D1*
X1664263Y2415044D1*
X1661831Y2412612D1*
X1659454Y2405427D1*
Y2383927D1*
X1709694D1*
X1683386Y2400674D2*
X1709694Y2417420D1*
X1671448Y2435292D2*
X1669071D1*
X1664263Y2437668D1*
X1661886Y2440045D1*
X1659509Y2444853D1*
Y2454415D1*
X1661886Y2459168D1*
X1664263Y2461545D1*
X1669071Y2463976D1*
X1673824D1*
X1678633Y2461545D1*
X1685762Y2456791D1*
X1709694Y2432860D1*
Y2466353D1*
X1671448Y2484224D2*
X1669071D1*
X1664263Y2486601D1*
X1661886Y2488977D1*
X1659509Y2493786D1*
Y2503347D1*
X1661886Y2508101D1*
X1664263Y2510477D1*
X1669071Y2512909D1*
X1673824D1*
X1678633Y2510477D1*
X1685762Y2505724D1*
X1709694Y2481792D1*
Y2515286D1*
X1062308Y4058642D2*
X1083808D1*
X1090993Y4061074D1*
X1093425Y4063450D1*
X1095802Y4068203D1*
Y4073012D1*
X1093425Y4077765D1*
X1090993Y4080197D1*
X1083808Y4082573D1*
X1062308D1*
Y4032333D1*
X1079055Y4058642D2*
X1095802Y4032333D1*
X1113673Y4070580D2*
Y4072957D1*
X1116049Y4077765D1*
X1118426Y4080142D1*
X1123234Y4082518D1*
X1132796D1*
X1137549Y4080142D1*
X1139926Y4077765D1*
X1142358Y4072957D1*
Y4068203D1*
X1139926Y4063395D1*
X1135173Y4056265D1*
X1111241Y4032333D1*
X1144734D1*
X1188858Y4075388D2*
X1186482Y4080142D1*
X1179297Y4082518D1*
X1174544D1*
X1167359Y4080142D1*
X1162550Y4072957D1*
X1160173Y4061018D1*
Y4049080D1*
X1162550Y4039519D1*
X1167359Y4034710D1*
X1174544Y4032333D1*
X1176920D1*
X1184050Y4034710D1*
X1188858Y4039519D1*
X1191235Y4046704D1*
Y4049080D1*
X1188858Y4056265D1*
X1184050Y4061018D1*
X1176920Y4063395D1*
X1174544D1*
X1167359Y4061018D1*
X1162550Y4056265D1*
X1160173Y4049080D1*
X712205Y1303747D2*
D129*
Y1223363D1*
X736907Y1276952D2*
Y1223363D1*
Y1261653D2*
X748403Y1273149D1*
X756097Y1276952D1*
X767505D1*
X775198Y1273149D1*
X779001Y1261653D1*
Y1223363D1*
X849599Y1303747D2*
Y1223363D1*
Y1265456D2*
X841994Y1273149D1*
X834301Y1276952D1*
X822805D1*
X815199Y1273149D1*
X807506Y1265456D1*
X803703Y1253960D1*
Y1246355D1*
X807506Y1234859D1*
X815199Y1227254D1*
X822805Y1223363D1*
X834301D1*
X841994Y1227254D1*
X849599Y1234859D1*
X874302Y1303747D2*
X878105Y1299944D1*
X881996Y1303747D1*
X878105Y1307638D1*
X874302Y1303747D1*
X878105Y1276952D2*
Y1223363D1*
X952683Y1265456D2*
X944989Y1273149D1*
X937296Y1276952D1*
X925888D1*
X918194Y1273149D1*
X910589Y1265456D1*
X906698Y1253960D1*
Y1246355D1*
X910589Y1234859D1*
X918194Y1227254D1*
X925888Y1223363D1*
X937296D1*
X944989Y1227254D1*
X952683Y1234859D1*
X1023281Y1276952D2*
Y1223363D1*
Y1265456D2*
X1015676Y1273149D1*
X1007983Y1276952D1*
X996575D1*
X988881Y1273149D1*
X981276Y1265456D1*
X977385Y1253960D1*
Y1246355D1*
X981276Y1234859D1*
X988881Y1227254D1*
X996575Y1223363D1*
X1007983D1*
X1015676Y1227254D1*
X1023281Y1234859D1*
X1093880Y1303747D2*
Y1223363D1*
Y1265456D2*
X1086275Y1273149D1*
X1078581Y1276952D1*
X1067085D1*
X1059480Y1273149D1*
X1051787Y1265456D1*
X1047984Y1253960D1*
Y1246355D1*
X1051787Y1234859D1*
X1059480Y1227254D1*
X1067085Y1223363D1*
X1078581D1*
X1086275Y1227254D1*
X1093880Y1234859D1*
X1137684Y1276952D2*
X1130079Y1273149D1*
X1122385Y1265456D1*
X1118583Y1253960D1*
Y1246355D1*
X1122385Y1234859D1*
X1130079Y1227254D1*
X1137684Y1223363D1*
X1149180D1*
X1156873Y1227254D1*
X1164478Y1234859D1*
X1168369Y1246355D1*
Y1253960D1*
X1164478Y1265456D1*
X1156873Y1273149D1*
X1149180Y1276952D1*
X1137684D1*
X1193072D2*
Y1223363D1*
Y1253960D2*
X1196963Y1265456D1*
X1204568Y1273149D1*
X1212262Y1276952D1*
X1223758D1*
X624705Y1203747D2*
Y1123363D1*
X649407Y1176952D2*
Y1123363D1*
Y1161653D2*
X660903Y1173149D1*
X668597Y1176952D1*
X680005D1*
X687698Y1173149D1*
X691501Y1161653D1*
Y1123363D1*
X727699Y1203747D2*
Y1138661D1*
X731502Y1127254D1*
X739196Y1123363D1*
X746801D1*
X716203Y1176952D2*
X742998D1*
X771503Y1153960D2*
X817399D1*
Y1161653D1*
X813597Y1169347D1*
X809794Y1173149D1*
X802101Y1176952D1*
X790605D1*
X783000Y1173149D1*
X775306Y1165456D1*
X771503Y1153960D1*
Y1146355D1*
X775306Y1134859D1*
X783000Y1127254D1*
X790605Y1123363D1*
X802101D1*
X809794Y1127254D1*
X817399Y1134859D1*
X842102Y1176952D2*
Y1123363D1*
Y1153960D2*
X845993Y1165456D1*
X853598Y1173149D1*
X861292Y1176952D1*
X872788D1*
X897490D2*
Y1123363D1*
Y1153960D2*
X901381Y1165456D1*
X908987Y1173149D1*
X916680Y1176952D1*
X928176D1*
X952879D2*
Y1138661D1*
X956681Y1127254D1*
X964375Y1123363D1*
X975871D1*
X983476Y1127254D1*
X994972Y1138661D1*
Y1176952D2*
Y1123363D1*
X1019675Y1176952D2*
Y1096568D1*
Y1165456D2*
X1027369Y1173061D1*
X1034974Y1176952D1*
X1046470D1*
X1054163Y1173061D1*
X1061768Y1165456D1*
X1065659Y1153960D1*
Y1146266D1*
X1061768Y1134859D1*
X1054163Y1127165D1*
X1046470Y1123363D1*
X1034974D1*
X1027369Y1127165D1*
X1019675Y1134859D1*
X1136346Y1165456D2*
X1128653Y1173149D1*
X1120959Y1176952D1*
X1109552D1*
X1101858Y1173149D1*
X1094253Y1165456D1*
X1090362Y1153960D1*
Y1146355D1*
X1094253Y1134859D1*
X1101858Y1127254D1*
X1109552Y1123363D1*
X1120959D1*
X1128653Y1127254D1*
X1136346Y1134859D1*
X1206945Y1176952D2*
Y1123363D1*
Y1165456D2*
X1199340Y1173149D1*
X1191646Y1176952D1*
X1180239D1*
X1172545Y1173149D1*
X1164940Y1165456D1*
X1161049Y1153960D1*
Y1146355D1*
X1164940Y1134859D1*
X1172545Y1127254D1*
X1180239Y1123363D1*
X1191646D1*
X1199340Y1127254D1*
X1206945Y1134859D1*
X1250749Y1176952D2*
X1243144Y1173149D1*
X1235450Y1165456D1*
X1231648Y1153960D1*
Y1146355D1*
X1235450Y1134859D1*
X1243144Y1127254D1*
X1250749Y1123363D1*
X1262245D1*
X1269938Y1127254D1*
X1277544Y1134859D1*
X1281435Y1146355D1*
Y1153960D1*
X1277544Y1165456D1*
X1269938Y1173149D1*
X1262245Y1176952D1*
X1250749D1*
X1924705Y2190456D2*
X1959104D1*
X1970600Y2194347D1*
X1974491Y2198149D1*
X1978294Y2205755D1*
Y2213448D1*
X1974491Y2221053D1*
X1970600Y2224944D1*
X1959104Y2228747D1*
X1924705D1*
Y2148363D1*
X1951499Y2190456D2*
X1978294Y2148363D1*
X2002997Y2228747D2*
X2056586Y2148363D1*
Y2228747D2*
X2002997Y2148363D1*
X1588999Y2228747D2*
Y2148363D1*
X1562205Y2228747D2*
X1615794D1*
X1640497D2*
X1694086Y2148363D1*
Y2228747D2*
X1640497Y2148363D1*
X3444596Y2109646D2*
X3440794Y2117251D1*
X3433100Y2124944D1*
X3425495Y2128747D1*
X3410197D1*
X3402503Y2124944D1*
X3394898Y2117251D1*
X3391007Y2109646D1*
X3387205Y2098149D1*
Y2078960D1*
X3391007Y2067552D1*
X3394898Y2059859D1*
X3402503Y2052254D1*
X3410197Y2048363D1*
X3425495D1*
X3433100Y2052254D1*
X3440794Y2059859D1*
X3444596Y2067552D1*
X3492291Y2128747D2*
X3484598Y2124944D1*
X3476993Y2117251D1*
X3473102Y2109646D1*
X3469299Y2098149D1*
Y2078960D1*
X3473102Y2067552D1*
X3476993Y2059859D1*
X3484598Y2052254D1*
X3492291Y2048363D1*
X3507590D1*
X3515195Y2052254D1*
X3522889Y2059859D1*
X3526691Y2067552D1*
X3530494Y2078960D1*
Y2098149D1*
X3526691Y2109646D1*
X3522889Y2117251D1*
X3515195Y2124944D1*
X3507590Y2128747D1*
X3492291D1*
X3608786D2*
Y2048363D1*
X3555196Y2128747D1*
Y2048363D1*
X3660283Y2128747D2*
Y2048363D1*
X3633489Y2128747D2*
X3687078D1*
X3773064Y2048363D2*
X3742378Y2128747D1*
X3711781Y2048363D1*
X3723277Y2075157D2*
X3761568D1*
X3797766Y2128747D2*
Y2048363D1*
X3824561D1*
X3836057Y2052254D1*
X3843751Y2059859D1*
X3847553Y2067552D1*
X3851356Y2078960D1*
Y2098149D1*
X3847553Y2109646D1*
X3843751Y2117251D1*
X3836057Y2124944D1*
X3824561Y2128747D1*
X3797766D1*
X3899051D2*
X3891357Y2124944D1*
X3883752Y2117251D1*
X3879861Y2109646D1*
X3876059Y2098149D1*
Y2078960D1*
X3879861Y2067552D1*
X3883752Y2059859D1*
X3891357Y2052254D1*
X3899051Y2048363D1*
X3914349D1*
X3921954Y2052254D1*
X3929648Y2059859D1*
X3933450Y2067552D1*
X3937253Y2078960D1*
Y2098149D1*
X3933450Y2109646D1*
X3929648Y2117251D1*
X3921954Y2124944D1*
X3914349Y2128747D1*
X3899051D1*
X3961956Y2090456D2*
X3996356D1*
X4007852Y2094347D1*
X4011743Y2098149D1*
X4015545Y2105755D1*
Y2113448D1*
X4011743Y2121053D1*
X4007852Y2124944D1*
X3996356Y2128747D1*
X3961956D1*
Y2048363D1*
X3988750Y2090456D2*
X4015545Y2048363D1*
X3282096Y1984646D2*
X3278294Y1992251D1*
X3270600Y1999944D1*
X3262995Y2003747D1*
X3247697D1*
X3240003Y1999944D1*
X3232398Y1992251D1*
X3228507Y1984646D1*
X3224705Y1973149D1*
Y1953960D1*
X3228507Y1942552D1*
X3232398Y1934859D1*
X3240003Y1927254D1*
X3247697Y1923363D1*
X3262995D1*
X3270600Y1927254D1*
X3278294Y1934859D1*
X3282096Y1942552D1*
Y1953960D1*
X3262995D1*
X3356498Y2003747D2*
X3306799D1*
Y1923363D1*
X3356498D1*
X3306799Y1965456D2*
X3337396D1*
X3381200Y2003747D2*
Y1923363D1*
X3463295Y1984646D2*
X3459493Y1992251D1*
X3451799Y1999944D1*
X3444194Y2003747D1*
X3428895D1*
X3421202Y1999944D1*
X3413597Y1992251D1*
X3409706Y1984646D1*
X3405903Y1973149D1*
Y1953960D1*
X3409706Y1942552D1*
X3413597Y1934859D1*
X3421202Y1927254D1*
X3428895Y1923363D1*
X3444194D1*
X3451799Y1927254D1*
X3459493Y1934859D1*
X3463295Y1942552D1*
Y1953960D1*
X3444194D1*
X3537696Y2003747D2*
X3487998D1*
Y1923363D1*
X3537696D1*
X3487998Y1965456D2*
X3518595D1*
X3562399D2*
X3596799D1*
X3608295Y1969347D1*
X3612186Y1973149D1*
X3615988Y1980755D1*
Y1988448D1*
X3612186Y1996053D1*
X3608295Y1999944D1*
X3596799Y2003747D1*
X3562399D1*
Y1923363D1*
X3589194Y1965456D2*
X3615988Y1923363D1*
X3640691Y1963510D2*
X3684907D1*
X3770804Y1923363D2*
Y2003747D1*
X3740207Y1923363D1*
X3709610Y2003747D1*
Y1923363D1*
X3795507Y2003747D2*
Y1946355D1*
X3799309Y1934859D1*
X3807003Y1927254D1*
X3818499Y1923363D1*
X3826104D1*
X3837600Y1927254D1*
X3845294Y1934859D1*
X3849096Y1946355D1*
Y2003747D1*
X3873799D2*
Y1923363D1*
X3919695D1*
X3944398Y2003747D2*
Y1923363D1*
X3990293D1*
X4064695Y2003747D2*
X4014996D1*
Y1923363D1*
X4064695D1*
X4014996Y1965456D2*
X4045593D1*
X4089397D2*
X4123797D1*
X4135293Y1969347D1*
X4139184Y1973149D1*
X4142987Y1980755D1*
Y1988448D1*
X4139184Y1996053D1*
X4135293Y1999944D1*
X4123797Y2003747D1*
X4089397D1*
Y1923363D1*
X4116192Y1965456D2*
X4142987Y1923363D1*
X2824705Y4216247D2*
Y4135863D1*
X2906799Y4197146D2*
X2902997Y4204751D1*
X2895303Y4212444D1*
X2887698Y4216247D1*
X2872399D1*
X2864706Y4212444D1*
X2857101Y4204751D1*
X2853210Y4197146D1*
X2849407Y4185649D1*
Y4166460D1*
X2853210Y4155052D1*
X2857101Y4147359D1*
X2864706Y4139754D1*
X2872399Y4135863D1*
X2887698D1*
X2895303Y4139754D1*
X2902997Y4147359D1*
X2906799Y4155052D1*
X2985091Y4204751D2*
X2977486Y4212444D1*
X2965990Y4216247D1*
X2950692D1*
X2939196Y4212444D1*
X2931502Y4204751D1*
Y4197146D1*
X2935393Y4189452D1*
X2939196Y4185649D1*
X2946801Y4181847D1*
X2969793Y4174153D1*
X2977486Y4170351D1*
X2981289Y4166460D1*
X2985091Y4158855D1*
Y4147359D1*
X2977486Y4139754D1*
X2965990Y4135863D1*
X2950692D1*
X2939196Y4139754D1*
X2931502Y4147359D1*
X3009794Y4174153D2*
X3044282D1*
X3055690Y4177956D1*
X3059581Y4181847D1*
X3063384Y4189452D1*
Y4200948D1*
X3059581Y4208553D1*
X3055690Y4212444D1*
X3044282Y4216247D1*
X3009794D1*
Y4135863D1*
X683088Y3275482D2*
D130*
Y3249682D1*
X686006Y3241060D1*
X688858Y3238142D1*
X694562Y3235290D1*
X700332D1*
X706036Y3238142D1*
X708954Y3241060D1*
X711806Y3249682D1*
Y3275482D1*
X651518D1*
X683088Y3255386D2*
X651518Y3235290D1*
X703184Y3176571D2*
X708954Y3182275D1*
X711806Y3190897D1*
Y3202371D1*
X708954Y3210993D1*
X703184Y3216763D1*
X697480D1*
X691710Y3213845D1*
X688858Y3210993D1*
X686006Y3205289D1*
X680236Y3188045D1*
X677384Y3182275D1*
X674466Y3179423D1*
X668762Y3176571D1*
X660140D1*
X654436Y3182275D1*
X651518Y3190897D1*
Y3202371D1*
X654436Y3210993D1*
X660140Y3216763D1*
X651518Y3129326D2*
X711739D1*
X671614Y3158044D1*
Y3115000D1*
X711739Y3082147D2*
X708887Y3090703D1*
X703184Y3093621D1*
X697414D1*
X691710Y3090703D1*
X688791Y3084999D1*
X685940Y3073525D1*
X683088Y3064903D1*
X677318Y3059199D1*
X671614Y3056348D1*
X662992D1*
X657288Y3059199D1*
X654370Y3062051D1*
X651518Y3070673D1*
Y3082147D1*
X654370Y3090703D1*
X657288Y3093621D1*
X662992Y3096473D1*
X671614D1*
X677318Y3093621D1*
X683088Y3087851D1*
X685940Y3079295D1*
X688791Y3067821D1*
X691710Y3062051D1*
X697414Y3059199D1*
X703184D1*
X708887Y3062051D1*
X711739Y3070673D1*
Y3082147D1*
Y3003399D2*
Y3032050D1*
X685940Y3034902D1*
X688791Y3032050D1*
X691710Y3023428D1*
Y3014872D1*
X688791Y3006250D1*
X683088Y3000480D1*
X674466Y2997628D1*
X668762D1*
X660140Y3000480D1*
X654370Y3006250D1*
X651518Y3014873D1*
Y3023428D1*
X654370Y3032050D1*
X657288Y3034902D1*
X662992Y3037820D1*
X651518Y2979101D2*
X711739Y2938909D1*
X651518Y2874486D2*
X711806D1*
X651518Y2897434D1*
X711806Y2920382D1*
X651518D1*
X711806Y2838715D2*
X708954Y2844485D1*
X703184Y2850189D1*
X697480Y2853107D1*
X688858Y2855959D1*
X674466D1*
X665910Y2853107D1*
X660140Y2850189D1*
X654436Y2844485D1*
X651518Y2838715D1*
Y2827241D1*
X654436Y2821537D1*
X660140Y2815767D1*
X665910Y2812915D1*
X674466Y2810063D1*
X688858D1*
X697480Y2812915D1*
X703184Y2815767D1*
X708954Y2821537D1*
X711806Y2827241D1*
Y2838715D1*
Y2791536D2*
X651518D1*
Y2771440D1*
X654436Y2762818D1*
X660140Y2757048D1*
X665910Y2754196D1*
X674466Y2751344D1*
X688858D1*
X697480Y2754196D1*
X703184Y2757048D1*
X708954Y2762818D1*
X711806Y2771440D1*
Y2791536D1*
Y2732817D2*
X651518D1*
Y2706951D1*
X654436Y2698329D1*
X657288Y2695477D1*
X662992Y2692625D1*
X671614D1*
X677384Y2695477D1*
X680236Y2698329D1*
X683088Y2706951D1*
X686006Y2698329D1*
X688858Y2695477D1*
X694562Y2692625D1*
X700332D1*
X706036Y2695477D1*
X708954Y2698329D1*
X711806Y2706951D1*
Y2732817D1*
X683088D2*
Y2706951D1*
X711806Y2674098D2*
X668762D1*
X660140Y2671246D1*
X654436Y2665476D1*
X651518Y2656854D1*
Y2651150D1*
X654436Y2642528D1*
X660140Y2636758D1*
X668762Y2633906D1*
X711806D1*
X703184Y2575187D2*
X708954Y2580891D1*
X711806Y2589513D1*
Y2600987D1*
X708954Y2609609D1*
X703184Y2615379D1*
X697480D1*
X691710Y2612461D1*
X688858Y2609609D1*
X686006Y2603905D1*
X680236Y2586661D1*
X677384Y2580891D1*
X674466Y2578039D1*
X668762Y2575187D1*
X660140D1*
X654436Y2580891D1*
X651518Y2589513D1*
Y2600987D1*
X654436Y2609609D1*
X660140Y2615379D1*
X683088Y2498339D2*
Y2472539D1*
X686006Y2463917D1*
X688858Y2460999D1*
X694562Y2458147D1*
X700332D1*
X706036Y2460999D1*
X708954Y2463917D1*
X711806Y2472539D1*
Y2498339D1*
X651518D1*
X683088Y2478243D2*
X651518Y2458147D1*
X711806Y2419524D2*
X651518D1*
X711806Y2439620D2*
Y2399428D1*
Y2380901D2*
X668762D1*
X660140Y2378049D1*
X654436Y2372279D1*
X651518Y2363657D1*
Y2357953D1*
X654436Y2349331D1*
X660140Y2343561D1*
X668762Y2340709D1*
X711806D1*
M02*
