G04 DipTrace 3.0.0.2*
G04 TopSoldermask.gts*
%MOIN*%
G04 #@! TF.FileFunction,Soldermask,Top*
G04 #@! TF.Part,Single*
%AMOUTLINE1*
4,1,8,
-0.023622,0.031158,
-0.011473,0.043307,
0.011473,0.043307,
0.023622,0.031158,
0.023622,-0.031158,
0.011473,-0.043307,
-0.011473,-0.043307,
-0.023622,-0.031158,
-0.023622,0.031158,
0*%
%AMOUTLINE4*
4,1,8,
0.031158,0.023622,
0.043307,0.011473,
0.043307,-0.011473,
0.031158,-0.023622,
-0.031158,-0.023622,
-0.043307,-0.011473,
-0.043307,0.011473,
-0.031158,0.023622,
0.031158,0.023622,
0*%
%AMOUTLINE7*
4,1,8,
0.023622,-0.031158,
0.011473,-0.043307,
-0.011473,-0.043307,
-0.023622,-0.031158,
-0.023622,0.031158,
-0.011473,0.043307,
0.011473,0.043307,
0.023622,0.031158,
0.023622,-0.031158,
0*%
%ADD25R,0.066929X0.066929*%
%ADD30C,0.066929*%
%ADD36R,0.074803X0.074803*%
%ADD37C,0.074803*%
%ADD55C,0.125984*%
%ADD56C,0.177165*%
%ADD70C,0.055874*%
%ADD84C,0.057874*%
%ADD86C,0.057874*%
%ADD90O,0.086614X0.047244*%
%ADD92O,0.047244X0.086614*%
%ADD94C,0.082677*%
%ADD95R,0.082677X0.082677*%
%ADD100C,0.070866*%
%ADD102C,0.067874*%
%ADD104R,0.067874X0.067874*%
%ADD108C,0.106299*%
%ADD110R,0.106299X0.106299*%
%ADD112C,0.073874*%
%ADD122R,0.066929X0.059055*%
%ADD124C,0.070866*%
%ADD126R,0.070866X0.070866*%
%ADD132OUTLINE1*%
%ADD135OUTLINE4*%
%ADD138OUTLINE7*%
%FSLAX26Y26*%
G04*
G70*
G90*
G75*
G01*
G04 TopMask*
%LPD*%
D126*
X3838130Y623125D3*
D124*
Y523125D3*
D126*
Y1173125D3*
D124*
Y1273125D3*
X4063130Y1298125D3*
D126*
Y1198125D3*
D124*
X3513130Y623123D3*
D126*
Y723123D3*
D124*
X3213130Y1323125D3*
D126*
X3313130D3*
D124*
X3138130Y1698125D3*
D126*
Y1498125D3*
D124*
X2136555Y1671550D3*
D126*
X2336555D3*
D124*
X2338130Y1498125D3*
D126*
X2138130D3*
D124*
X1988130Y1173125D3*
D126*
Y1073125D3*
X4137205Y3837205D3*
D124*
X4237205D3*
D126*
X3987205Y4012205D3*
D124*
Y4112205D3*
X838130Y1673125D3*
D126*
X938130D3*
D124*
X838130Y1523125D3*
D126*
X938130D3*
D124*
X1013130Y1948123D3*
D126*
X1113130D3*
D124*
X1200630Y1385625D3*
D126*
X1300630D3*
D25*
X3687205Y2837205D3*
D30*
X3884055D3*
D25*
X3462205Y3674705D3*
D30*
X3659055D3*
D25*
X2511555Y1496549D3*
D30*
X2909193D3*
D25*
X2910374Y1620369D3*
D30*
X2512736D3*
D25*
X2510374Y1745369D3*
D30*
X2908012D3*
X1375630Y1248123D3*
D25*
Y1148123D3*
D122*
X1862205Y2224705D3*
Y2149902D3*
X1762205Y2224705D3*
Y2149902D3*
D36*
X1106188Y3662205D3*
D112*
X1206188D3*
X1306188D3*
X1406188D3*
X1506188D3*
X1606188D3*
X1706188D3*
X1806188D3*
X1906188D3*
X2006188D3*
X2106188D3*
X2206188D3*
X2306188D3*
X2406188D3*
X2506188D3*
X2606188D3*
D55*
X889646Y2441741D3*
X3842402D3*
X889646Y3662214D3*
X3842402D3*
D110*
X2382028Y809049D3*
D108*
X2185177D3*
D25*
X4162205Y2512205D3*
D30*
Y2612205D3*
D36*
X3337205Y3987205D3*
D37*
Y4087205D3*
X3437205Y3987205D3*
Y4087205D3*
X3537205Y3987205D3*
Y4087205D3*
X3637205Y3987205D3*
Y4087205D3*
X3737205Y3987205D3*
Y4087205D3*
D25*
X2138130Y1973125D3*
D30*
Y2073125D3*
D25*
X549705Y2874705D3*
D30*
Y2774705D3*
Y2674705D3*
D104*
X4063130Y623123D3*
D102*
Y1023123D3*
D126*
X3613130Y1573125D3*
D100*
X3416280D3*
D95*
X1038130Y823123D3*
D94*
X1337343D3*
D132*
X2661555Y1321549D3*
D92*
X2711555D3*
X2761555D3*
D135*
X3088130Y1073123D3*
D90*
Y1023123D3*
Y973123D3*
D138*
X1913130Y1523123D3*
D92*
X1863130D3*
X1813130D3*
D138*
X1638130Y1098125D3*
D92*
X1588130D3*
X1538130D3*
D86*
X3913130Y1023123D3*
D84*
Y723123D3*
D86*
X3763130Y1023123D3*
D84*
Y723123D3*
D86*
X2886555Y1196549D3*
D84*
X3186555D3*
D25*
X2662205Y1012205D3*
D30*
Y912205D3*
Y812205D3*
D86*
X3188130Y573123D3*
D84*
Y873123D3*
D86*
X2288130Y1073125D3*
D84*
Y1373125D3*
D86*
X2113130Y1073125D3*
D84*
Y1373125D3*
D86*
X1863130D3*
D84*
Y1073125D3*
D86*
X1763130D3*
D84*
Y1373125D3*
D86*
X1813130Y1723125D3*
D84*
Y2023125D3*
D86*
X638130Y1798125D3*
D84*
X938130D3*
D86*
X1613130Y1323125D3*
D84*
Y1623125D3*
D86*
X1513130D3*
D84*
Y1323125D3*
D122*
X1862205Y2412205D3*
Y2487008D3*
X1762205Y2412205D3*
Y2487008D3*
D25*
X1412205Y3874705D3*
D30*
X1112205Y3974705D3*
X912205Y3874705D3*
D86*
X2288130Y2148125D3*
D84*
Y1848125D3*
D86*
X2388130Y2148125D3*
D84*
Y1848125D3*
D86*
X2488130Y2148125D3*
D84*
Y1848125D3*
D86*
X2588130Y2148125D3*
D84*
Y1848125D3*
D86*
X2688130Y2148125D3*
D84*
Y1848125D3*
D94*
X4212205Y1937205D3*
X4149213Y2232480D3*
D86*
X2788130Y2148125D3*
D84*
Y1848125D3*
D86*
X2888130Y2148125D3*
D84*
Y1848125D3*
D86*
X2988130Y2148125D3*
D84*
Y1848125D3*
D86*
X3088130Y2148125D3*
D84*
Y1848125D3*
D86*
X3188130Y2148125D3*
D84*
Y1848125D3*
D86*
X3288130Y2148125D3*
D84*
Y1848125D3*
D25*
X3613130Y873123D3*
D30*
X3513130D3*
X3413130D3*
X3313130D3*
Y1173123D3*
X3413130D3*
X3513130D3*
X3613130D3*
D25*
X1413130Y1823125D3*
D30*
Y1723125D3*
Y1623125D3*
Y1523125D3*
X1113130D3*
Y1623125D3*
Y1723125D3*
Y1823125D3*
D70*
X1912205Y3187205D3*
Y2997205D3*
D56*
X2952756Y3937008D3*
Y787402D3*
X1771654D3*
Y3937008D3*
M02*
